<svg id="svg5529" xmlns="http://www.w3.org/2000/svg" viewBox="0 0 132.38 132.38"><defs><style>.cls-1{fill:#f6cb58;fill-rule:evenodd;}</style></defs><g id="layer1"><path id="path5837" class="cls-1" d="M56.17,16.08a10,10,0,0,0-9.86,10.17h0v79.9a10.16,10.16,0,0,0,.17,2c.07.33.14.66.24,1a9.83,9.83,0,0,0,.74,1.84c.11.2.23.4.35.59s.18.29.28.43l0,.06c.14.2.29.4.45.59s.39.46.61.68l.11.1.36.33c.17.17.36.32.54.47a10.75,10.75,0,0,0,1.71,1.06,7.47,7.47,0,0,0,.92.39c.31.11.62.21.94.3s.65.16,1,.21h0a9.79,9.79,0,0,0,2,.12H96.27a10,10,0,0,0,0-20H66.34v-70a10,10,0,0,0-9.86-10.18Z"/></g></svg>