<svg id="图层_1" data-name="图层 1" xmlns="http://www.w3.org/2000/svg" xmlns:xlink="http://www.w3.org/1999/xlink" viewBox="0 0 400 400"><defs><style>.cls-1,.cls-3,.cls-5,.cls-6{fill:none;}.cls-2{clip-path:url(#clip-path);}.cls-3,.cls-4,.cls-8{stroke:#ccc;}.cls-3,.cls-4,.cls-5,.cls-6,.cls-7,.cls-8{stroke-miterlimit:10;}.cls-3,.cls-4{stroke-width:4px;}.cls-4{fill:#f7f7f7;}.cls-5,.cls-6{stroke:#ddd;}.cls-5{stroke-width:3px;}.cls-6,.cls-8{stroke-width:2px;}.cls-7{fill:#666;stroke:#999;}.cls-8{fill:#ddd;}</style><clipPath id="clip-path"><rect class="cls-1" x="50" y="50" width="300" height="300"/></clipPath></defs><g class="cls-2"><path class="cls-3" d="M61.21,419.23V101a47.33,47.33,0,0,1,47.34-47.34h157.9A47.34,47.34,0,0,1,313.79,101"/><rect class="cls-4" x="76.46" y="67.07" width="117.35" height="120.78" rx="31.21"/><circle class="cls-5" cx="107.53" cy="98.12" r="24.02"/><circle class="cls-5" cx="107.53" cy="157.05" r="24.02"/><circle class="cls-5" cx="162.93" cy="127.46" r="24.02"/><circle class="cls-6" cx="162.93" cy="83.33" r="9.23"/><circle class="cls-7" cx="162.93" cy="171.59" r="9.23"/><circle class="cls-8" cx="163.09" cy="127.24" r="16.63"/><circle class="cls-8" cx="107.53" cy="98.12" r="16.63"/><circle class="cls-8" cx="107.53" cy="157.05" r="16.63"/><path class="cls-3" d="M30.41,224.2H86.18a3.22,3.22,0,0,1,3.22,3.22v1a1,1,0,0,1-1,1H28.16a1,1,0,0,1-1-1v-1a3.22,3.22,0,0,1,3.22-3.22Z" transform="translate(-168.52 285.1) rotate(-90)"/><rect class="cls-3" x="212.32" y="105.85" width="325.12" height="392.12" rx="48.64"/><rect class="cls-4" x="234.88" y="128.93" width="112.31" height="112.31" rx="26.66"/><circle class="cls-5" cx="263.78" cy="157.8" r="22.33"/><circle class="cls-5" cx="263.78" cy="212.6" r="22.33"/><circle class="cls-6" cx="323.89" cy="148.76" r="10.75"/><circle class="cls-6" cx="323.89" cy="222.44" r="5.62"/><circle class="cls-7" cx="323.89" cy="185.08" r="15.46"/><circle class="cls-8" cx="263.78" cy="157.8" r="15.46"/><circle class="cls-8" cx="263.78" cy="212.6" r="15.46"/><path class="cls-3" d="M269.35,100.63h46.49a3.74,3.74,0,0,1,3.74,3.74v1.48a0,0,0,0,1,0,0h-54a0,0,0,0,1,0,0v-1.48A3.74,3.74,0,0,1,269.35,100.63Z"/><path class="cls-3" d="M189.05,262h39.79a3.22,3.22,0,0,1,3.22,3.22v1a1,1,0,0,1-1,1H186.8a1,1,0,0,1-1-1v-1a3.22,3.22,0,0,1,3.22-3.22Z" transform="translate(-55.65 473.55) rotate(-90)"/><path class="cls-3" d="M189.05,204.75h39.79a3.22,3.22,0,0,1,3.22,3.22v1a1,1,0,0,1-1,1H186.8a1,1,0,0,1-1-1v-1a3.22,3.22,0,0,1,3.22-3.22Z" transform="translate(1.59 416.31) rotate(-90)"/></g></svg>