<svg xmlns="http://www.w3.org/2000/svg" viewBox="0 0 1000 1000"><defs><style>.cls-1{fill:#55aeff;}.cls-1,.cls-2,.cls-3,.cls-4,.cls-5,.cls-6,.cls-7{stroke:#6a94d8;stroke-linecap:round;stroke-linejoin:round;stroke-width:8px;}.cls-2{fill:#deefff;}.cls-3{fill:none;}.cls-4{fill:#8dc9ff;}.cls-5{fill:#bbdcff;}.cls-6{fill:#bdf3ff;}.cls-7{fill:#6ccbff;}</style></defs><g id="图层_1" data-name="图层 1"><polygon class="cls-1" points="617.62 252.86 575.48 228.53 533.34 204.2 393.18 482.94 487.32 537.29 575.48 353.98 663.64 639.09 757.78 693.44 617.62 252.86"/><polygon class="cls-2" points="617.62 252.86 512.62 312.86 428.34 264.2 533.34 204.2 617.62 252.86"/><polygon class="cls-3" points="663.63 639.08 558.63 699.08 652.78 753.44 757.78 693.44 663.63 639.08"/><polygon class="cls-3" points="393.18 482.93 288.18 542.93 382.33 597.29 487.33 537.29 393.18 482.93"/><polygon class="cls-4" points="575.5 354.12 470.5 414.12 382.33 597.29 487.33 537.29 575.5 354.12"/><line class="cls-3" x1="470.48" y1="414.13" x2="575.48" y2="354.13"/><polygon class="cls-5" points="512.62 312.86 470.48 288.53 428.34 264.2 288.18 542.94 382.32 597.29 470.48 413.98 558.64 699.09 652.78 753.44 512.62 312.86"/><polygon class="cls-4" points="617.62 252.86 512.62 312.86 652.78 753.44 757.78 693.44 617.62 252.86"/><path class="cls-6" d="M288.18,542.94s32.88-63.89,94.79-71.51c75.51-9.3,147.51-41.3,142.51-119.3,23.63,75.1,39.22,125.21,49.9,158s-16.16,82-66.9,79-139-38-163-13C308.26,554.64,288.18,542.94,288.18,542.94Z"/><path class="cls-6" d="M288.18,542.94s33.3-29.81,106.3-19.81c74.3,10.18,181.95-27.9,153-102-10-25.52-14-43-22-69,5,78-67,110-143,119C320.33,478.49,294.76,527,288.18,542.94Z"/><polygon class="cls-4" points="797.98 562.13 776.98 549.13 776.98 523.13 797.98 536.13 797.98 562.13"/><polygon class="cls-2" points="797.98 509.13 776.98 523.13 797.98 536.13 757.98 558.13 797.98 583.08 862.02 546.11 797.98 509.13"/><polygon class="cls-5" points="797.98 609.13 757.98 584.13 757.98 558.13 797.98 583.13 797.98 609.13"/><polygon class="cls-4" points="797.98 609.13 861.98 572.13 861.98 546.13 797.98 583.13 797.98 609.13"/><polygon class="cls-5" points="281.98 362.13 239.98 336.13 239.98 310.13 281.98 336.13 281.98 362.13"/><polygon class="cls-4" points="281.98 362.13 324.98 337.13 324.98 311.13 281.98 336.13 281.98 362.13"/><polygon class="cls-2" points="324.88 311.38 282.88 285.38 239.98 310.13 281.98 336.13 324.88 311.38"/><polygon class="cls-5" points="392.99 760.79 368.33 745.52 368.33 716.26 392.99 731.52 392.99 760.79"/><polygon class="cls-4" points="392.99 760.79 418.23 746.11 418.23 716.85 392.99 731.52 392.99 760.79"/><polygon class="cls-2" points="418.17 716.99 393.51 701.73 368.33 716.26 392.99 731.52 418.17 716.99"/><polygon class="cls-5" points="762.29 373.82 723.6 349.87 723.6 303.95 762.29 327.9 762.29 373.82"/><polygon class="cls-4" points="762.29 373.82 801.91 350.79 801.91 304.87 762.29 327.9 762.29 373.82"/><polygon class="cls-2" points="801.81 305.1 763.12 281.14 723.6 303.95 762.29 327.9 801.81 305.1"/><path class="cls-7" d="M181,526.13v98c0,4.15,8.51,7.5,19,7.5s19-3.35,19-7.5v-98Z"/><polygon class="cls-5" points="137.98 554.59 178.72 483.73 199.98 494.95 199.98 591.79 137.98 554.59"/><polygon class="cls-4" points="261.98 554.59 221.24 483.73 199.98 494.95 199.98 591.79 261.98 554.59"/><polygon class="cls-2" points="199.98 605.96 137.98 568.76 137.98 554.59 199.98 591.79 199.98 605.96"/><polygon class="cls-2" points="199.98 605.96 261.98 568.76 261.98 554.59 199.98 591.79 199.98 605.96"/><polygon class="cls-6" points="199.98 441.22 228.32 489.05 199.98 504.18 199.98 441.22"/><polygon class="cls-2" points="199.98 441.22 171.64 489.05 199.98 504.18 199.98 441.22"/><path class="cls-7" d="M658.6,718.62v71.69c0,3,7.89,5.49,17.62,5.49s17.61-2.46,17.61-5.49V718.62Z"/><polygon class="cls-5" points="618.74 731.44 656.51 679.6 676.22 687.81 676.22 758.65 618.74 731.44"/><polygon class="cls-4" points="733.69 731.44 695.92 679.6 676.22 687.81 676.22 758.65 733.69 731.44"/><polygon class="cls-2" points="676.22 777.02 618.74 749.8 618.74 731.44 676.22 758.65 676.22 777.02"/><polygon class="cls-2" points="676.22 777.02 733.69 749.8 733.69 731.44 676.22 758.65 676.22 777.02"/><polygon class="cls-6" points="676.22 648.5 702.49 683.49 676.22 694.56 676.22 648.5"/><polygon class="cls-2" points="676.22 648.5 649.94 683.49 676.22 694.56 676.22 648.5"/></g></svg>