<svg xmlns="http://www.w3.org/2000/svg" xmlns:xlink="http://www.w3.org/1999/xlink" viewBox="0 0 1000 1000"><defs><style>.cls-1{fill:#a9d4ff;}.cls-12,.cls-2{fill:#c3cddd;}.cls-10,.cls-16,.cls-18,.cls-19,.cls-2,.cls-22,.cls-3,.cls-9{stroke:#333;}.cls-10,.cls-16,.cls-18,.cls-2,.cls-3,.cls-9{stroke-miterlimit:10;}.cls-10,.cls-18,.cls-19,.cls-2,.cls-22,.cls-3,.cls-9{stroke-width:12px;}.cls-14,.cls-3{fill:#d3e0ef;}.cls-19,.cls-22,.cls-4,.cls-9{fill:none;}.cls-5{fill:url(#未命名的渐变_390);}.cls-6{fill:#333;}.cls-7{clip-path:url(#clip-path);}.cls-8{fill:#d7faff;}.cls-10{fill:#39bdff;}.cls-11{fill:#ffe922;}.cls-13{clip-path:url(#clip-path-2);}.cls-15{clip-path:url(#clip-path-3);}.cls-16{fill:#d647bb;stroke-width:8px;}.cls-17{clip-path:url(#clip-path-4);}.cls-18{fill:#79b1f2;}.cls-19{stroke-linecap:round;}.cls-19,.cls-22{stroke-linejoin:round;}.cls-20{clip-path:url(#clip-path-5);}.cls-21{fill:#ffc783;}.cls-22{stroke-linecap:square;}.cls-23{clip-path:url(#clip-path-6);}.cls-24{fill:#7398ff;}.cls-25{fill:#1f85ff;}</style><linearGradient id="未命名的渐变_390" x1="500" y1="905" x2="500" y2="95" gradientUnits="userSpaceOnUse"><stop offset="0" stop-color="#0023d5"/><stop offset="1" stop-color="#a973ff"/></linearGradient><clipPath id="clip-path"><path class="cls-1" d="M691,744H823.27A404.68,404.68,0,0,0,857,691.47L783,48s-23-12-68-4l11,33L712,90Z"/></clipPath><clipPath id="clip-path-2"><rect class="cls-2" x="191.3" y="402.81" width="45.51" height="166.13"/></clipPath><clipPath id="clip-path-3"><circle class="cls-3" cx="213.49" cy="612.75" r="71.12"/></clipPath><clipPath id="clip-path-4"><circle class="cls-3" cx="213.49" cy="369.35" r="42.05"/></clipPath><clipPath id="clip-path-5"><path class="cls-4" d="M323,376.64,284,434.7a12,12,0,0,0-2,6.47L277.16,766.9A11.93,11.93,0,0,0,289.08,779H411.72a11.92,11.92,0,0,0,11.9-12.66L401.8,417.05a11.92,11.92,0,0,0-5.72-9.45l-57-34.51A11.91,11.91,0,0,0,323,376.64Z"/></clipPath><clipPath id="clip-path-6"><polygon class="cls-4" points="487.38 421.81 437.95 763.17 601.76 763.17 550.69 421.81 487.38 421.81"/></clipPath></defs><g id="图层_4" data-name="图层 4"><circle class="cls-5" cx="500" cy="500" r="405"/><path class="cls-6" d="M500,107a391.71,391.71,0,1,1-153,30.88A390.51,390.51,0,0,1,500,107m0-12C276.32,95,95,276.32,95,500S276.32,905,500,905,905,723.68,905,500,723.68,95,500,95Z"/><path class="cls-1" d="M691,744H823.27A404.68,404.68,0,0,0,857,691.47L783,48s-23-12-68-4l11,33L712,90Z"/><g class="cls-7"><path class="cls-8" d="M697.2,738,717.92,92.69l15-13.92-10-29.95a158.11,158.11,0,0,1,21.68-1.57c16.95,0,28,3.17,32.83,4.93l73.35,638.1A402,402,0,0,1,820.27,738Z"/><path class="cls-6" d="M744.61,53.25a99,99,0,0,1,27.31,3.44l72.69,632.38A394,394,0,0,1,817.24,732H703.39L723.83,95.39l10.34-9.6,5.66-5.25-2.45-7.33L731,53.92c4.68-.45,9.25-.67,13.66-.67m0-12A169.18,169.18,0,0,0,715,44l11,33L712,90,691,744H823.27A404.68,404.68,0,0,0,857,691.47L783,48s-12.94-6.75-38.39-6.75Z"/><path class="cls-9" d="M863,744S767,570,711,118h80"/></g><path class="cls-10" d="M623.29,338.08,577.11,734.47a8.55,8.55,0,0,0,8.48,9.53H754.16a8.54,8.54,0,0,0,8.5-9.34L723.89,320.38a8.54,8.54,0,0,0-10.3-7.55L630,330.72A8.54,8.54,0,0,0,623.29,338.08Z"/><line class="cls-9" x1="660" y1="744" x2="657" y2="330"/><path class="cls-11" d="M377.05,738l58.41-137.91c.05-.12.1-.24.14-.37,7.88-22.63,38.94-39.05,73.86-39.05,20.8,0,40.26,5.72,56.26,16.56,18.57,12.57,31.53,31.22,38.51,55.43a6,6,0,0,0,8.22,3.82,41.27,41.27,0,0,1,16.85-3.86c23.55,0,39.66,24.47,41.33,37a6,6,0,0,0,8,4.83,59.2,59.2,0,0,1,20.65-3.87A51.58,51.58,0,0,1,743.87,696c8,13.31,9.14,28.74,3.38,42Z"/><path class="cls-6" d="M509.46,566.67c19.6,0,37.9,5.37,52.9,15.53,17.38,11.76,29.52,29.3,36.11,52.13a12,12,0,0,0,6.48,7.55,12,12,0,0,0,9.95.07,35.36,35.36,0,0,1,14.4-3.33c20.55,0,34.12,22.31,35.39,31.83a12,12,0,0,0,11.89,10.42,11.84,11.84,0,0,0,4.18-.76,53.26,53.26,0,0,1,18.56-3.49,45.63,45.63,0,0,1,39.4,22.49c6.33,10.59,7.83,22.26,4.4,32.89h-357L441,602.43c.1-.24.19-.49.28-.74,3.3-9.47,11.73-18.2,23.74-24.58,12.67-6.73,28.46-10.44,44.45-10.44h0m0-12c-36.51,0-70.51,17.21-79.51,43.08L368,744H751c18.76-35-9.74-79.38-51.68-79.38a65,65,0,0,0-22.74,4.25c-2-14.87-19.93-42.25-47.28-42.25A47,47,0,0,0,610,631c-15.83-54.87-59.76-76.34-100.55-76.33Z"/><path class="cls-12" d="M170.91,725.67c-6.14-8.94-11.93-18.15-17.31-27.53l21-34.37a.3.3,0,0,1,.25-.14l20.41,5.82a.28.28,0,0,1,.18.15.26.26,0,0,1,0,.25Z"/><path class="cls-6" d="M177.44,670.6l9.86,2.82-17.48,39.8q-4.78-7.4-9.24-15l16.86-27.62m-2.61-13a6.3,6.3,0,0,0-5.37,3L146.64,698a403.86,403.86,0,0,0,25.49,39.77l28.79-65.54a6.3,6.3,0,0,0-4-8.58l-20.33-5.81a6.5,6.5,0,0,0-1.73-.24Z"/><path class="cls-12" d="M267.44,738.17a.3.3,0,0,1-.27-.17l-29.93-68.16a.25.25,0,0,1,0-.23.27.27,0,0,1,.19-.16l20.32-5.81h.07a.27.27,0,0,1,.26.13l45.15,74a.25.25,0,0,1,0,.29.23.23,0,0,1-.25.15Z"/><path class="cls-6" d="M255.22,670.6l37.58,61.57H271.16l-25.8-58.75,9.86-2.82m2.61-13a6.5,6.5,0,0,0-1.73.24l-20.32,5.81a6.29,6.29,0,0,0-4,8.58l29.93,68.15a6.27,6.27,0,0,0,5.76,3.76H303a6.29,6.29,0,0,0,5.37-9.57l-45.15-74a6.3,6.3,0,0,0-5.37-3Z"/><rect class="cls-2" x="198.13" y="664.52" width="28.45" height="79.65" rx="6.29"/><rect class="cls-12" x="191.3" y="402.81" width="45.51" height="166.13"/><g class="cls-13"><rect class="cls-14" x="191.3" y="427.84" width="45.51" height="28.45"/><rect class="cls-14" x="191.3" y="482.46" width="45.51" height="28.45"/></g><rect class="cls-9" x="191.3" y="402.81" width="45.51" height="166.13"/><circle class="cls-14" cx="213.49" cy="612.75" r="71.12"/><g class="cls-15"><rect class="cls-16" x="137.82" y="591.7" width="150.2" height="43.24"/></g><circle class="cls-9" cx="213.49" cy="612.75" r="71.12"/><rect class="cls-2" x="201.54" y="257.27" width="25.03" height="75.1"/><circle class="cls-14" cx="213.49" cy="369.35" r="42.05"/><g class="cls-17"><rect class="cls-16" x="168.75" y="356.9" width="88.8" height="25.56"/></g><circle class="cls-9" cx="213.49" cy="369.35" r="42.05"/><circle class="cls-2" cx="214.06" cy="248.16" r="25.03"/><path class="cls-6" d="M211.15,153.17l-3.24,67.32a2.52,2.52,0,0,0,2.52,2.64h7.25a2.51,2.51,0,0,0,2.52-2.64L217,153.17A2.91,2.91,0,0,0,211.15,153.17Z"/><path class="cls-18" d="M453,118.81H335.53a6.36,6.36,0,0,0-6.35,6L298.5,747.19H482.24l-22.9-622.28A6.35,6.35,0,0,0,453,118.81Zm-28.57,80.3h-65a6.35,6.35,0,0,1-6.33-5.78l-2.94-31.78a6.37,6.37,0,0,1,6.34-7h75.14a6.36,6.36,0,0,1,6.2,7.77l-7.2,31.78A6.35,6.35,0,0,1,424.42,199.11Z"/><line class="cls-19" x1="354" y1="219" x2="429" y2="219"/><g class="cls-20"><path class="cls-21" d="M289.08,773a5.92,5.92,0,0,1-5.92-6L288,441.26a5.91,5.91,0,0,1,1-3.21L328,380a5.91,5.91,0,0,1,8-1.76l57,34.51a5.91,5.91,0,0,1,2.84,4.69l21.82,349.29a5.92,5.92,0,0,1-5.91,6.29Z"/><path class="cls-6" d="M333,383.32h0m-.05.07,56.89,34.45L411.64,767H289.16L294,441.39l38.94-58m0-12a11.92,11.92,0,0,0-9.91,5.28L284,434.7a12,12,0,0,0-2,6.47L277.16,766.9A11.93,11.93,0,0,0,289.08,779H411.72a11.92,11.92,0,0,0,11.9-12.66L401.8,417.05a11.92,11.92,0,0,0-5.72-9.45l-57-34.51a11.8,11.8,0,0,0-6.16-1.73Z"/><polyline class="cls-22" points="282.41 437.83 356.41 449.83 401.41 410.83"/><line class="cls-22" x1="412.41" y1="768.83" x2="356.41" y2="449.83"/></g><g class="cls-23"><path class="cls-24" d="M451.7,757.17a5.91,5.91,0,0,1-5.84-6.75l46-317.55a5.93,5.93,0,0,1,5.84-5.06h42.74a6,6,0,0,1,5.84,5l47.52,317.55a5.91,5.91,0,0,1-5.85,6.78Z"/><path class="cls-6" d="M540.35,433.81l47.49,317.36h-136l46-317.36h42.58m.08-12H497.69A11.91,11.91,0,0,0,485.91,432l-46,317.55a11.9,11.9,0,0,0,11.78,13.61H587.94a11.91,11.91,0,0,0,11.78-13.67L552.2,432a11.91,11.91,0,0,0-11.77-10.15Z"/><line class="cls-9" x1="508" y1="482" x2="491" y2="752"/><line class="cls-9" x1="554" y1="752" x2="531" y2="482"/><line class="cls-9" x1="483" y1="483" x2="553" y2="483"/></g><path class="cls-25" d="M500,899A398.26,398.26,0,0,1,185,744.94a6,6,0,0,0,2.84-3C192.24,731.52,216.08,717,245,717c15.72,0,38.9,4.38,60.1,25.27a6,6,0,0,0,4.21,1.72,5.93,5.93,0,0,0,3.06-.84,62.81,62.81,0,0,1,32.15-8.31,72.85,72.85,0,0,1,49.78,19.61,6,6,0,0,0,4.13,1.65,6.1,6.1,0,0,0,2.44-.51A6,6,0,0,0,404.4,750a10.09,10.09,0,0,1,3.08-7.53c3.27-3.36,8.78-5.45,14.37-5.45a20,20,0,0,1,7.79,1.51A5.87,5.87,0,0,0,432,739a6,6,0,0,0,5.74-4.26c2.08-6.87,10.4-14.32,22.25-19.94a106.21,106.21,0,0,1,44.59-9.68c18.8,0,52.91,5.26,70,40.5a6,6,0,0,0,5.17,3.38H580a6,6,0,0,0,5.18-3c5.69-9.75,21.77-16.3,40-16.3,17.28,0,32.17,6,38.88,15.7A6,6,0,0,0,675,742.13c.54-25,27.65-46.9,58-46.9,13.45,0,32.93,4.26,49.31,24.54A6,6,0,0,0,787,722a7.16,7.16,0,0,0,.8,0,6,6,0,0,0,4.26-2.72,17.73,17.73,0,0,1,7.08-1.13c8.87,0,20.5,3.54,26,13.27A398.54,398.54,0,0,1,500,899Z"/><path class="cls-6" d="M733,689.23v12c12.15,0,29.76,3.87,44.65,22.31A12,12,0,0,0,787,728a12.41,12.41,0,0,0,1.6-.11,12,12,0,0,0,7-3.49,18.93,18.93,0,0,1,3.57-.3c5,0,13.45,1.65,18.57,7.25A396.35,396.35,0,0,1,684.42,847.13,393,393,0,0,1,319,848.93,396.68,396.68,0,0,1,192.9,745.25c.18-.33.34-.66.49-1,3-7.2,24-21.22,51.58-21.21,14.59,0,36.14,4.08,55.89,23.54a12,12,0,0,0,14.55,1.77c8.22-4.89,18.27-7.47,29.08-7.47a66.78,66.78,0,0,1,45.64,18,12,12,0,0,0,20.27-9,4.1,4.1,0,0,1,1.37-3.18c2.16-2.21,6.11-3.64,10.08-3.64a13.78,13.78,0,0,1,5.42,1,12,12,0,0,0,16.21-7.55c1.18-3.89,6.88-10.48,19.07-16.26a101.59,101.59,0,0,1,42-9.1c17.4,0,48.94,4.83,64.63,37.12A12,12,0,0,0,579.54,755H580a12,12,0,0,0,10.37-6c4.5-7.73,19.14-13.33,34.81-13.33,15.35,0,28.36,5,34,13.11A12,12,0,0,0,669,754a11.72,11.72,0,0,0,3.45-.51A12,12,0,0,0,681,742.26c.47-21.86,24.78-41,52-41v-12m0,0c-32.92,0-63.38,23.56-64,52.77-8.64-12.48-26.27-18.28-43.82-18.28-19,0-37.9,6.8-45.18,19.28-15.64-32.21-46.11-43.88-75.42-43.88-34.39,0-67.18,16.06-72.58,33.88a25.85,25.85,0,0,0-10.15-2c-11.88,0-23.76,7.43-23.45,19.13a78.55,78.55,0,0,0-53.91-21.26c-12.76,0-25.07,3.12-35.21,9.15C289.13,718.17,266,711,245,711c-30.83,0-57.09,15.37-62.64,28.55-3.35-.51-6.59-.88-9.73-1.14C246.25,839.4,365.46,905,500,905c137.38,0,258.78-68.41,332-173-5.8-14.8-21.59-19.89-32.87-19.89-6.25,0-11.12,1.56-12.14,3.9-15.33-19-35.06-26.77-54-26.77Z"/><path class="cls-19" d="M451.7,763.17S491,721,540,750"/><path class="cls-19" d="M710,732s33-28,58.93,7.82"/><path class="cls-19" d="M212.35,747.19S273,719,308,780"/></g></svg>