<svg xmlns="http://www.w3.org/2000/svg" xmlns:xlink="http://www.w3.org/1999/xlink" viewBox="0 0 1000 1000"><defs><style>.cls-1,.cls-2,.cls-9{fill:none;}.cls-1,.cls-14,.cls-15,.cls-5,.cls-6,.cls-8,.cls-9{stroke:#999;}.cls-1,.cls-10,.cls-14,.cls-5,.cls-8,.cls-9{stroke-miterlimit:10;}.cls-3{fill:#1c1c1c;opacity:0;}.cls-10,.cls-15,.cls-4,.cls-5,.cls-6,.cls-8{fill:#ccc;}.cls-10,.cls-14,.cls-15,.cls-5,.cls-6,.cls-9{stroke-width:12px;}.cls-15,.cls-6{stroke-linecap:round;}.cls-6{stroke-linejoin:bevel;}.cls-7{clip-path:url(#clip-path);}.cls-10{stroke:#333;opacity:0.42;}.cls-11,.cls-16{fill:#999;}.cls-11{opacity:0.8;}.cls-12{fill:#888;}.cls-13{clip-path:url(#clip-path-2);}.cls-14{fill:#97c6ff;}.cls-15{stroke-linejoin:round;}</style><clipPath id="clip-path"><circle class="cls-1" cx="499.5" cy="500" r="405"/></clipPath><clipPath id="clip-path-2"><circle class="cls-2" cx="499.5" cy="500" r="405"/></clipPath></defs><g id="图层_7" data-name="图层 7"><rect class="cls-3" y="1" width="999" height="999"/><circle class="cls-4" cx="499.5" cy="500" r="405"/><rect class="cls-5" x="503.66" y="412" width="116.68" height="396" rx="8.4"/><rect class="cls-5" x="503.66" y="412" width="116.68" height="16.79" rx="7.38"/><path class="cls-6" d="M503.66,808s23.5-129.06,23.5-221.39-23.5-157.82-23.5-157.82Z"/><path class="cls-6" d="M620.34,808s-23.5-129.06-23.5-221.39,23.5-157.82,23.5-157.82Z"/><line class="cls-6" x1="523.81" y1="448.94" x2="598.94" y2="448.94"/><line class="cls-6" x1="536.83" y1="472.44" x2="585.92" y2="472.44"/><g class="cls-7"><polygon class="cls-8" points="158.42 633.36 217 607.41 201.5 565 153.5 625 158.42 633.36"/><polygon class="cls-8" points="147.14 654 158.42 633.36 153.5 625 114.5 648 147.14 654"/><polygon class="cls-8" points="199.79 654 147.14 654 158.42 633.36 217 607.41 257.85 625 199.79 654"/><polygon class="cls-8" points="158.42 682.35 147.14 654 114.5 648 158 754.46 158.42 682.35"/><polygon class="cls-8" points="226.5 688.08 158.42 682.35 147.14 654 199.79 654 226.5 688.08"/><polygon class="cls-8" points="326.5 689 261.81 711.1 226.5 688.08 199.79 654 257.85 625 326.5 689"/><polygon class="cls-8" points="226.5 754.46 261.81 711.1 226.5 688.08 158.42 682.35 158 754.46 196.5 786 226.5 754.46"/><polygon class="cls-8" points="306.5 756 261.81 711.1 226.5 754.46 196.5 786 257.5 788 276.5 764 306.5 756"/><polygon class="cls-8" points="363.5 777 326.5 689 261.81 711.1 306.5 756 363.5 777"/><polygon class="cls-8" points="446.2 733 354.88 756.49 326.5 689 411.5 669 446.2 733"/><polygon class="cls-8" points="492.5 775 446.2 733 354.88 756.49 363.5 777 454.5 787 492.5 775"/><polygon class="cls-8" points="497.07 682.35 456.5 671.04 446.2 733 492.5 775 523.5 747 497.07 682.35"/><polygon class="cls-8" points="481 619.5 468.5 616 411.5 669 446.2 733 456.5 671.04 481 619.5"/><polygon class="cls-8" points="499.5 598.18 481 619.5 468.5 616 479.5 550 499.5 598.18"/><polygon class="cls-8" points="514.77 668.05 535.78 619 481 619.5 514.77 668.05"/><polygon class="cls-8" points="499.5 598.18 535.78 619 481 619.5 499.5 598.18"/><polygon class="cls-8" points="523.5 747 514.77 668.05 481 619.5 456.5 671.04 497.07 682.35 523.5 747"/><polygon class="cls-8" points="562.5 677 535.78 619 514.77 668.05 562.5 677"/><polygon class="cls-8" points="561.5 773 562.5 677 514.77 668.05 523.5 747 561.5 773"/><polygon class="cls-8" points="628.5 700 588.21 654 549.14 648 562.5 677 628.5 700"/><polygon class="cls-8" points="535.78 619 588.21 654 549.14 648 535.78 619"/><polygon class="cls-8" points="586.5 628 588.21 654 535.78 619 586.5 628"/><polygon class="cls-8" points="628.5 700 664.5 670 586.5 628 588.21 654 628.5 700"/><polygon class="cls-8" points="687.5 748 628.5 700 664.5 670 694.5 721 687.5 748"/><polygon class="cls-8" points="636.5 770 628.5 700 687.5 748 636.5 770"/><polygon class="cls-8" points="562.5 677 628.5 700 636.5 770 561.5 773 562.5 677"/><polygon class="cls-5" points="201.5 565 153.5 625 114.5 648 158 754.46 196.5 786 257.5 788 276.5 764 306.5 756 363.5 777 454.5 787 492.5 775 523.5 747 561.5 773 636.5 770 687.5 748 694.5 721 677.5 695 664.5 670 586.5 628 535.78 619 499.5 598.18 479.5 550 201.5 565"/></g><circle class="cls-1" cx="499.5" cy="500" r="405"/><polygon class="cls-4" points="416.5 342 437.5 324 414.5 325 400.5 336 416.5 342"/><polygon class="cls-4" points="398.96 378.97 416.5 342 400.5 336 382.5 368 398.96 378.97"/><polygon class="cls-4" points="439.56 336 416.5 342 398.96 378.97 439.5 406 460.3 378.97 458.5 352 439.56 336"/><polygon class="cls-4" points="471.5 374 460.3 378.97 458.5 352 439.56 336 416.5 342 437.5 324 468.5 345 471.5 374"/><polygon class="cls-4" points="439.5 406 460.3 378.97 471.5 374 454.5 399 439.5 406"/><polygon class="cls-9" points="382.5 368 400.5 336 414.5 325 437.5 324 468.5 345 471.5 374 454.5 399 439.5 406 382.5 368"/><polygon class="cls-8" points="194.26 433.5 168.6 429 144.5 411 163.07 394 192.5 394 194.26 433.5"/><polygon class="cls-8" points="221.5 449 192.5 394 194.26 433.5 202.5 458 221.5 449"/><polygon class="cls-8" points="158.42 445.5 194.26 433.5 168.6 429 144.5 411 139.5 434 158.42 445.5"/><polygon class="cls-8" points="172.5 463 158.42 445.5 139.5 434 146.5 456 169.5 477 172.5 463"/><polygon class="cls-8" points="225 452.5 241.5 421 192.5 394 221.5 449 225 452.5"/><polygon class="cls-8" points="206.7 478.5 185.5 471.11 172.5 463 158.42 445.5 194.26 433.5 202.5 458 221.5 449 225 452.5 206.7 478.5"/><polygon class="cls-8" points="195.5 497 206.7 478.5 185.5 471.11 172.5 463 169.5 477 177.5 479 195.5 497"/><polygon class="cls-5" points="241.5 421 192.5 394 163.07 394 144.5 411 139.5 434 146.5 456 169.5 477 177.5 479 195.5 497 241.5 421"/><polygon class="cls-10" points="211.5 616 326.5 689 411.5 669 468.5 616 505.5 506 456.5 394 383.5 364 319.5 361 238.5 407 190.5 460 185.5 519 211.5 616"/><polygon class="cls-4" points="319.5 361 331.5 387 272.5 420 238.5 407 319.5 361"/><polygon class="cls-4" points="382.5 394 331.5 387 319.5 361 383.5 364 429.23 382.79 382.5 394"/><polygon class="cls-4" points="272.5 420 238.5 407 190.5 460 228.1 438 272.5 420"/><polygon class="cls-4" points="356.5 427 382.5 394 331.5 387 272.5 420 356.5 427"/><polygon class="cls-4" points="300.5 454 356.5 427 272.5 420 272.5 438 300.5 454"/><polygon class="cls-4" points="272.5 420 228.1 438 272.5 438 272.5 420"/><polygon class="cls-4" points="382.5 394 456.5 394 429.23 382.79 382.5 394"/><polygon class="cls-4" points="395.5 432 437.06 419.35 456.5 394 382.5 394 356.5 427 395.5 432"/><polygon class="cls-4" points="327.5 478 390.02 445.5 395.5 432 356.5 427 300.5 454 327.5 478"/><polygon class="cls-4" points="469.39 475.42 491.38 473.73 456.5 394 437.06 419.35 469.39 475.42"/><polygon class="cls-4" points="274.5 514 327.5 478 300.5 454 243.5 480 274.5 514"/><polygon class="cls-4" points="272.5 438 228.1 438 190.5 460 185.5 519 208.19 500.51 243.5 480 272.5 438"/><polygon class="cls-4" points="272.5 438 300.5 454 243.5 480 272.5 438"/><polygon class="cls-4" points="211.5 616 226.5 594 243.5 480 208.19 500.51 185.5 519 211.5 616"/><polygon class="cls-4" points="265.5 563 274.5 514 243.5 480 226.5 594 265.5 563"/><polygon class="cls-4" points="291.5 556 265.5 563 226.5 594 211.5 616 251.5 641.39 270.5 606 294.5 585 291.5 556"/><polygon class="cls-4" points="427 468.78 469.39 475.42 437.06 419.35 395.5 432 390.02 445.5 427 468.78"/><polygon class="cls-4" points="456.5 516.34 491.37 548 505.5 506 491.38 473.73 469.39 475.42 456.5 516.34"/><polygon class="cls-4" points="295.5 528 327.5 478 274.5 514 295.5 528"/><polygon class="cls-4" points="344.5 533 295.5 528 291.5 556 305.51 566.33 326.5 570 344.5 533"/><polygon class="cls-4" points="398.42 510.87 366.5 519 327.5 478 390.02 445.5 398.42 510.87"/><polygon class="cls-4" points="327.5 478 366.5 519 344.5 533 295.5 528 327.5 478"/><polygon class="cls-4" points="274.5 514 295.5 528 291.5 556 265.5 563 274.5 514"/><polygon class="cls-4" points="419.27 526.2 427 468.78 390.02 445.5 398.42 510.87 419.27 526.2"/><polygon class="cls-4" points="437.06 528 456.5 516.34 469.39 475.42 427 468.78 419.27 526.2 437.06 528"/><polygon class="cls-4" points="342.06 550.74 382.5 559.7 415.5 544 419.27 526.2 398.42 510.87 366.5 519 344.5 533 342.06 550.74"/><polygon class="cls-4" points="424.96 570 382.5 559.7 342.06 550.74 344.5 533 326.5 570 362.96 588.89 395.5 575.29 424.96 570"/><polygon class="cls-4" points="321.5 604 357.5 591 362.96 588.89 326.5 570 305.51 566.33 294.5 585 321.5 604"/><polygon class="cls-4" points="291.5 556 305.51 566.33 294.5 585 291.5 556"/><polygon class="cls-4" points="436.02 570.5 424.96 570 382.5 559.7 415.5 544 419.27 526.2 437.06 528 436.02 570.5"/><polygon class="cls-4" points="451.95 570 443.1 548 436.02 570.5 437.06 528 456.5 516.34 491.37 548 451.95 570"/><polygon class="cls-4" points="301.5 654 321.5 604 294.5 585 270.5 606 257.85 629.56 301.5 654"/><polygon class="cls-4" points="301.5 654 326.5 689 251.5 641.39 257.85 629.56 301.5 654"/><polygon class="cls-4" points="362.96 624.73 321.5 604 342.23 596.45 372.5 608 407.05 596.45 431.5 599 398.42 628.04 362.96 624.73"/><polygon class="cls-4" points="407.5 578 436.02 570.5 424.96 570 395.5 575.29 399.5 579 407.5 578"/><polygon class="cls-4" points="395.5 575.29 362.96 588.89 357.5 591 342.23 596.45 372.5 608 399.5 579 395.5 575.29"/><polygon class="cls-4" points="431.5 599 436.02 570.5 407.5 578 399.5 579 372.5 608 407.05 596.45 431.5 599"/><polygon class="cls-4" points="344.5 651.11 398.42 628.04 362.96 624.73 321.5 604 301.5 654 344.5 651.11"/><polygon class="cls-4" points="449.83 633.36 388.5 650 344.5 651.11 301.5 654 326.5 689 411.5 669 449.83 633.36"/><polygon class="cls-4" points="449.83 610.46 468.5 616 449.83 633.36 388.5 650 344.5 651.11 398.42 628.04 449.83 610.46"/><polygon class="cls-4" points="433.44 586.77 449.83 610.46 398.42 628.04 431.5 599 433.44 586.77"/><polygon class="cls-4" points="451.95 570 449.83 610.46 433.44 586.77 436.02 570.5 443.1 548 451.95 570"/><polygon class="cls-4" points="491.37 548 451.95 570 449.83 610.46 468.5 616 491.37 548"/><path class="cls-9" d="M215.82,618.74l106,67.3a13.13,13.13,0,0,0,10,1.69l76.23-17.93a13.26,13.26,0,0,0,5.94-3.17l52-48.36a13.09,13.09,0,0,0,3.5-5.43l34.32-102a13.09,13.09,0,0,0-.41-9.44l-44.84-102.5a13.16,13.16,0,0,0-7-6.88l-66-27.12a13.14,13.14,0,0,0-4.37-1l-57.94-2.71a13,13,0,0,0-7.09,1.7L240.33,406a13.14,13.14,0,0,0-3.24,2.6l-43.61,48.15a13.14,13.14,0,0,0-3.35,7.71l-4.44,52.29a13.43,13.43,0,0,0,.4,4.51l24.09,89.84A13.08,13.08,0,0,0,215.82,618.74Z"/><path class="cls-11" d="M237.5,472c4-8,14-25,30-29s27,5,32,13,11,25-1,39-22,15-24,25-3,31-11,38-28,1-34-8-16-30-9-47S232.5,482,237.5,472Z"/><path class="cls-11" d="M432.5,417c-8-2-20-12-30-13s-32,7-33,17-1,24,18,34,32,9,39.5,17,11.36,26,17.43,28,16.07-2,20.07-10,7-17,3-26S444.5,420,432.5,417Z"/><path class="cls-11" d="M342.5,538s-1,9.59,0,12.29,18,7.71,29,7.71,31.87-4,36.43-10a136.08,136.08,0,0,0,11.35-18.28C420.5,527,417.5,518,409.5,517s-28-1-34,1-22,8-25,12A54,54,0,0,1,342.5,538Z"/><rect class="cls-12" x="265.99" y="471.49" width="12.02" height="12.02" transform="translate(-273.61 411.9) rotate(-53.48)"/><rect class="cls-12" x="392.58" y="429.08" width="14.85" height="14.85" transform="translate(-187.08 513.1) rotate(-54.93)"/><g class="cls-13"><path class="cls-5" d="M745.15,398V859H859.5V471.86a10,10,0,0,0-3.83-7.86l-94.39-73.87A10,10,0,0,0,745.15,398Z"/><rect class="cls-5" x="769.5" y="506" width="18" height="353"/><rect class="cls-5" x="816.5" y="563" width="18" height="296"/><line class="cls-14" x1="745.15" y1="404.35" x2="859.5" y2="494"/><rect class="cls-15" x="172.5" y="750" width="252" height="42"/><rect class="cls-15" x="139.5" y="786" width="329" height="47"/><rect class="cls-15" x="318.5" y="838" width="363" height="67"/><path class="cls-15" d="M624.5,739s-11,1-18,1-5-9-5-21c-28,8-65,7-92,7s-64,1-92-7c0,12,2,21-5,21s-18-1-18-1-1,19,22,19h186C625.5,758,624.5,739,624.5,739Z"/><rect class="cls-15" x="416.5" y="758" width="189" height="18"/><path class="cls-15" d="M606,776H416.5a51.56,51.56,0,0,1-48,3s21,17.19,32,17.19H622c11,0,32-17.19,32-17.19A51.56,51.56,0,0,1,606,776Z"/><polygon class="cls-15" points="655.5 824 365.5 824 385.5 796 635.5 796 655.5 824"/><polygon class="cls-15" points="733.5 853 715 834.5 671.5 834.5 655.5 818.98 489.5 818.98 352.5 818.98 336.5 834.5 293 834.5 274.5 853 245.5 853 245.5 870.18 284.48 870.18 298 856.66 347.36 856.66 358.5 845.52 489.5 845.52 649.5 845.52 660.64 856.66 710 856.66 723.52 870.18 762.5 870.18 762.5 853 733.5 853"/></g><path class="cls-16" d="M499.5,107a391.71,391.71,0,1,1-153,30.88A390.51,390.51,0,0,1,499.5,107m0-12c-223.68,0-405,181.32-405,405s181.32,405,405,405,405-181.32,405-405S723.18,95,499.5,95Z"/><path class="cls-5" d="M625.09,202H739a7.76,7.76,0,0,1,7.58,6.12l2.91,13.49a7.75,7.75,0,0,1-7.58,9.39H620.61a7.76,7.76,0,0,1-7.36-10.2l4.49-13.49A7.74,7.74,0,0,1,625.09,202Z"/><rect class="cls-5" x="646.91" y="181" width="67.54" height="21" rx="6.77"/><rect class="cls-5" x="669.18" y="158" width="23" height="23"/><rect class="cls-5" x="658.18" y="141" width="45" height="17" rx="5.83"/><rect class="cls-5" x="673.18" y="100" width="15" height="41"/><rect class="cls-5" x="664.68" y="85" width="32" height="15" rx="4.49"/><path class="cls-5" d="M679.6,28.89,675.23,85h10.9l-4.36-56.11A1.09,1.09,0,0,0,679.6,28.89Z"/><polygon class="cls-5" points="619.71 231 658.18 321.35 703.18 321.35 744.02 231 619.71 231"/><line class="cls-5" x1="649.02" y1="231" x2="674.9" y2="321.35"/><line class="cls-5" x1="681.87" y1="231" x2="681.87" y2="321.35"/><line class="cls-5" x1="717.5" y1="231" x2="692.32" y2="321.35"/><path class="cls-4" d="M656.93,327.35h47.49l20.45,501.94c-1.23.85-2.49,1.7-3.74,2.54l-.3.2c-4.22,2.82-8.6,5.62-13,8.31l-.35.22c-2.11,1.29-4.28,2.59-6.46,3.87l-.61.35c-4.27,2.5-8.65,4.94-13,7.29l-.91.49q-3.15,1.66-6.33,3.29l-1,.5c-2.41,1.21-4.55,2.28-6.56,3.25a398.5,398.5,0,0,1-39.5,16.47Z"/><path class="cls-16" d="M698.66,333.35,718.74,826.2l-1,.65-.18.12-.08,0c-4.19,2.8-8.5,5.56-12.82,8.21l-.19.12-.17.11c-2.06,1.26-4.19,2.53-6.34,3.79l-.34.2-.27.16c-4.18,2.44-8.5,4.86-12.82,7.17l-.35.19-.54.29c-2.06,1.09-4.16,2.18-6.25,3.24l-.58.3-.39.2c-2.39,1.2-4.5,2.25-6.46,3.19-9.93,4.79-20.14,9.19-30.5,13.14l23.17-534h36m11.52-12h-59L626.73,884.6A401,401,0,0,0,675.21,865h0q3.35-1.62,6.66-3.29l1-.51c2.15-1.1,4.3-2.21,6.43-3.35l.92-.49q6.67-3.57,13.21-7.39l.63-.37c2.19-1.28,4.37-2.59,6.54-3.91l.37-.23q6.69-4.11,13.21-8.46l.27-.18q3.3-2.21,6.54-4.47h0l-20.82-511Z"/><rect class="cls-5" x="672.5" y="324" width="15" height="118"/><rect class="cls-5" x="672.5" y="442" width="15" height="25"/><path class="cls-4" d="M672.5,473h15V852c-4.94,2.64-10,5.19-15,7.62Z"/><path class="cls-16" d="M681.5,479V848.4l-3,1.56V479h3m12-12h-27V869.07q13.79-6.24,27-13.48V467Z"/></g></svg>