<svg xmlns="http://www.w3.org/2000/svg" xmlns:xlink="http://www.w3.org/1999/xlink" viewBox="0 0 1000 1000"><defs><style>.cls-1,.cls-30{fill:none;}.cls-2{fill:url(#未命名的渐变_198);}.cls-3{fill:#b0fff5;}.cls-3,.cls-30,.cls-4,.cls-42,.cls-5,.cls-84,.cls-85,.cls-86,.cls-87,.cls-88,.cls-89,.cls-90,.cls-92,.cls-93,.cls-95{stroke:#333;stroke-width:12px;}.cls-3,.cls-30,.cls-4,.cls-42,.cls-84,.cls-85,.cls-92,.cls-93,.cls-95{stroke-miterlimit:10;}.cls-4{fill:#fffcd9;}.cls-5{fill:#83c9c3;stroke-linejoin:bevel;}.cls-5,.cls-86,.cls-87,.cls-88,.cls-89,.cls-90{stroke-linecap:round;}.cls-6{clip-path:url(#clip-path);}.cls-7{fill:#f9f9ef;}.cls-8{fill:#b8b9bf;}.cls-9{fill:#363c41;}.cls-10{fill:#282a2b;}.cls-11{fill:#202426;}.cls-12{fill:#121413;}.cls-13{fill:#222523;}.cls-14{fill:#0f1211;}.cls-15{fill:#181b1a;}.cls-16{fill:#1d1f21;}.cls-17{fill:#151818;}.cls-18{fill:#1a1c1e;}.cls-19{fill:#313336;}.cls-20{fill:#272b2e;}.cls-21{fill:#5e6268;}.cls-22{fill:#161918;}.cls-23{fill:#494a51;}.cls-24{fill:#121416;}.cls-25{fill:#afb0b6;}.cls-26{fill:#7b7e87;}.cls-27{fill:#bcbcbc;}.cls-28{fill:#d8d8d8;}.cls-29{fill:#939393;}.cls-31{fill:#676b6d;}.cls-32{fill:#555559;}.cls-33{fill:#262b2e;}.cls-34{fill:#242c2e;}.cls-35{fill:#2b2c31;}.cls-36{fill:#1e1e1e;}.cls-37{fill:#232323;}.cls-38{fill:#191919;}.cls-39{fill:#282828;}.cls-40{fill:#262626;}.cls-41{fill:#1c1c1c;}.cls-42{fill:#f4f4f4;opacity:0.42;}.cls-43{fill:#ececee;}.cls-44{fill:#e8e9ef;}.cls-45{fill:#e2e3e3;}.cls-46{fill:#e1e3e4;}.cls-47{fill:#dddfe1;}.cls-48{fill:#e9ebef;}.cls-49{fill:#dddfe4;}.cls-50{fill:#d6d8da;}.cls-51{fill:#d7d9e2;}.cls-52{fill:#a5a9a5;}.cls-53{fill:#d3d3d3;}.cls-54{fill:#cacccc;}.cls-55{fill:#b1b2af;}.cls-56{fill:#969995;}.cls-57{fill:#878787;}.cls-58{fill:#e6ecf3;}.cls-59{fill:#bfbfbf;}.cls-60{fill:#c8caca;}.cls-61{fill:#bcbfbc;}.cls-62{fill:#e8eaec;}.cls-63{fill:#dcdedd;}.cls-64{fill:#9e9e9e;}.cls-65{fill:#e5e5e5;}.cls-66{fill:#d1d1d1;}.cls-67{fill:#999;}.cls-68{fill:#7c7c7c;}.cls-69{fill:#a8a8a8;}.cls-70{fill:#adadad;}.cls-71{fill:#757575;}.cls-72{fill:#606060;}.cls-73{fill:#545454;}.cls-74{fill:#6b6b6b;}.cls-75{fill:#7a7a7a;}.cls-76{fill:#969696;}.cls-77{fill:#5e5e5e;}.cls-78{fill:#5b5b5b;}.cls-79{fill:#4f4f4f;}.cls-80{fill:#727272;}.cls-81{fill:#a1a3a3;}.cls-82,.cls-83{opacity:0.8;}.cls-83{fill:#161616;}.cls-84{fill:#6c93ff;}.cls-85,.cls-94{fill:#97c6ff;}.cls-86{fill:#98bdf9;}.cls-86,.cls-87,.cls-88,.cls-89,.cls-90{stroke-linejoin:round;}.cls-87{fill:#6285b7;}.cls-88{fill:#48537c;}.cls-89{fill:#5d9ce8;}.cls-90{fill:#ff734d;}.cls-91{fill:#333;}.cls-92{fill:#e1f0ff;}.cls-93{fill:#5af;}.cls-95,.cls-96{fill:#cce6ff;}</style><linearGradient id="未命名的渐变_198" x1="500" y1="905" x2="500" y2="95" gradientUnits="userSpaceOnUse"><stop offset="0" stop-color="#3fe6ff"/><stop offset="1" stop-color="#ffcb55"/></linearGradient><clipPath id="clip-path"><circle class="cls-1" cx="500" cy="500" r="405"/></clipPath></defs><g id="图层_6" data-name="图层 6"><circle class="cls-2" cx="500" cy="500" r="405"/><rect class="cls-3" x="504.16" y="412" width="116.68" height="396" rx="8.4"/><rect class="cls-4" x="504.16" y="412" width="116.68" height="16.79" rx="7.38"/><path class="cls-5" d="M504.16,808s23.5-129.06,23.5-221.39-23.5-157.82-23.5-157.82Z"/><path class="cls-5" d="M620.84,808s-23.5-129.06-23.5-221.39,23.5-157.82,23.5-157.82Z"/><line class="cls-5" x1="524.31" y1="448.94" x2="599.44" y2="448.94"/><line class="cls-5" x1="537.33" y1="472.44" x2="586.42" y2="472.44"/><g class="cls-6"><polygon class="cls-7" points="158.92 633.36 217.5 607.41 202 565 154 625 158.92 633.36"/><polygon class="cls-8" points="147.64 654 158.92 633.36 154 625 115 648 147.64 654"/><polygon class="cls-9" points="200.29 654 147.64 654 158.92 633.36 217.5 607.41 258.35 625 200.29 654"/><polygon class="cls-10" points="158.92 682.35 147.64 654 115 648 158.5 754.46 158.92 682.35"/><polygon class="cls-11" points="227 688.08 158.92 682.35 147.64 654 200.29 654 227 688.08"/><polygon class="cls-12" points="327 689 262.31 711.1 227 688.08 200.29 654 258.35 625 327 689"/><polygon class="cls-13" points="227 754.46 262.31 711.1 227 688.08 158.92 682.35 158.5 754.46 197 786 227 754.46"/><polygon class="cls-14" points="307 756 262.31 711.1 227 754.46 197 786 258 788 277 764 307 756"/><polygon class="cls-12" points="364 777 327 689 262.31 711.1 307 756 364 777"/><polygon class="cls-15" points="446.7 733 355.38 756.49 327 689 412 669 446.7 733"/><polygon class="cls-16" points="493 775 446.7 733 355.38 756.49 364 777 455 787 493 775"/><polygon class="cls-17" points="497.57 682.35 457 671.04 446.7 733 493 775 524 747 497.57 682.35"/><polygon class="cls-18" points="481.5 619.5 469 616 412 669 446.7 733 457 671.04 481.5 619.5"/><polygon class="cls-19" points="500 598.18 481.5 619.5 469 616 480 550 500 598.18"/><polygon class="cls-20" points="515.27 668.05 536.28 619 481.5 619.5 515.27 668.05"/><polygon class="cls-21" points="500 598.18 536.28 619 481.5 619.5 500 598.18"/><polygon class="cls-22" points="524 747 515.27 668.05 481.5 619.5 457 671.04 497.57 682.35 524 747"/><polygon class="cls-23" points="563 677 536.28 619 515.27 668.05 563 677"/><polygon class="cls-24" points="562 773 563 677 515.27 668.05 524 747 562 773"/><polygon class="cls-25" points="629 700 588.71 654 549.64 648 563 677 629 700"/><polygon class="cls-26" points="536.28 619 588.71 654 549.64 648 536.28 619"/><polygon class="cls-27" points="587 628 588.71 654 536.28 619 587 628"/><polygon class="cls-28" points="629 700 665 670 587 628 588.71 654 629 700"/><polygon class="cls-29" points="688 748 629 700 665 670 695 721 688 748"/><polygon class="cls-29" points="637 770 629 700 688 748 637 770"/><polygon class="cls-14" points="563 677 629 700 637 770 562 773 563 677"/><polygon class="cls-30" points="202 565 154 625 115 648 158.5 754.46 197 786 258 788 277 764 307 756 364 777 455 787 493 775 524 747 562 773 637 770 688 748 695 721 678 695 665 670 587 628 536.28 619 500 598.18 480 550 202 565"/></g><polygon class="cls-31" points="417 342 438 324 415 325 401 336 417 342"/><polygon class="cls-32" points="399.46 378.97 417 342 401 336 383 368 399.46 378.97"/><polygon class="cls-33" points="440.06 336 417 342 399.46 378.97 440 406 460.8 378.97 459 352 440.06 336"/><polygon class="cls-34" points="472 374 460.8 378.97 459 352 440.06 336 417 342 438 324 469 345 472 374"/><polygon class="cls-35" points="440 406 460.8 378.97 472 374 455 399 440 406"/><polygon class="cls-30" points="383 368 401 336 415 325 438 324 469 345 472 374 455 399 440 406 383 368"/><polygon class="cls-36" points="194.76 433.5 169.1 429 145 411 163.57 394 193 394 194.76 433.5"/><polygon class="cls-37" points="222 449 193 394 194.76 433.5 203 458 222 449"/><polygon class="cls-38" points="158.92 445.5 194.76 433.5 169.1 429 145 411 140 434 158.92 445.5"/><polygon class="cls-38" points="173 463 158.92 445.5 140 434 147 456 170 477 173 463"/><polygon class="cls-39" points="225.5 452.5 242 421 193 394 222 449 225.5 452.5"/><polygon class="cls-40" points="207.2 478.5 186 471.11 173 463 158.92 445.5 194.76 433.5 203 458 222 449 225.5 452.5 207.2 478.5"/><polygon class="cls-41" points="196 497 207.2 478.5 186 471.11 173 463 170 477 178 479 196 497"/><polygon class="cls-30" points="242 421 193 394 163.57 394 145 411 140 434 147 456 170 477 178 479 196 497 242 421"/><polygon class="cls-42" points="212 616 327 689 412 669 469 616 506 506 457 394 384 364 320 361 239 407 191 460 186 519 212 616"/><polygon class="cls-43" points="320 361 332 387 273 420 239 407 320 361"/><polygon class="cls-44" points="383 394 332 387 320 361 384 364 429.73 382.79 383 394"/><polygon class="cls-45" points="273 420 239 407 191 460 228.6 438 273 420"/><polygon class="cls-46" points="357 427 383 394 332 387 273 420 357 427"/><polygon class="cls-47" points="301 454 357 427 273 420 273 438 301 454"/><polygon class="cls-45" points="273 420 228.6 438 273 438 273 420"/><polygon class="cls-48" points="383 394 457 394 429.73 382.79 383 394"/><polygon class="cls-49" points="396 432 437.56 419.35 457 394 383 394 357 427 396 432"/><polygon class="cls-50" points="328 478 390.52 445.5 396 432 357 427 301 454 328 478"/><polygon class="cls-51" points="469.89 475.42 491.88 473.73 457 394 437.56 419.35 469.89 475.42"/><polygon class="cls-52" points="275 514 328 478 301 454 244 480 275 514"/><polygon class="cls-53" points="273 438 228.6 438 191 460 186 519 208.69 500.51 244 480 273 438"/><polygon class="cls-54" points="273 438 301 454 244 480 273 438"/><polygon class="cls-55" points="212 616 227 594 244 480 208.69 500.51 186 519 212 616"/><polygon class="cls-56" points="266 563 275 514 244 480 227 594 266 563"/><polygon class="cls-57" points="292 556 266 563 227 594 212 616 252 641.39 271 606 295 585 292 556"/><polygon class="cls-58" points="427.5 468.78 469.89 475.42 437.56 419.35 396 432 390.52 445.5 427.5 468.78"/><polygon class="cls-59" points="457 516.34 491.87 548 506 506 491.88 473.73 469.89 475.42 457 516.34"/><polygon class="cls-60" points="296 528 328 478 275 514 296 528"/><polygon class="cls-61" points="345 533 296 528 292 556 306.01 566.33 327 570 345 533"/><polygon class="cls-62" points="398.92 510.87 367 519 328 478 390.52 445.5 398.92 510.87"/><polygon class="cls-63" points="328 478 367 519 345 533 296 528 328 478"/><polygon class="cls-64" points="275 514 296 528 292 556 266 563 275 514"/><polygon class="cls-65" points="419.77 526.2 427.5 468.78 390.52 445.5 398.92 510.87 419.77 526.2"/><polygon class="cls-66" points="437.56 528 457 516.34 469.89 475.42 427.5 468.78 419.77 526.2 437.56 528"/><polygon class="cls-66" points="342.56 550.74 383 559.7 416 544 419.77 526.2 398.92 510.87 367 519 345 533 342.56 550.74"/><polygon class="cls-67" points="425.46 570 383 559.7 342.56 550.74 345 533 327 570 363.46 588.89 396 575.29 425.46 570"/><polygon class="cls-68" points="322 604 358 591 363.46 588.89 327 570 306.01 566.33 295 585 322 604"/><polygon class="cls-67" points="292 556 306.01 566.33 295 585 292 556"/><polygon class="cls-69" points="436.52 570.5 425.46 570 383 559.7 416 544 419.77 526.2 437.56 528 436.52 570.5"/><polygon class="cls-70" points="452.45 570 443.6 548 436.52 570.5 437.56 528 457 516.34 491.87 548 452.45 570"/><polygon class="cls-71" points="302 654 322 604 295 585 271 606 258.35 629.56 302 654"/><polygon class="cls-72" points="302 654 327 689 252 641.39 258.35 629.56 302 654"/><polygon class="cls-73" points="363.46 624.73 322 604 342.73 596.45 373 608 407.55 596.45 432 599 398.92 628.04 363.46 624.73"/><polygon class="cls-74" points="408 578 436.52 570.5 425.46 570 396 575.29 400 579 408 578"/><polygon class="cls-75" points="396 575.29 363.46 588.89 358 591 342.73 596.45 373 608 400 579 396 575.29"/><polygon class="cls-76" points="432 599 436.52 570.5 408 578 400 579 373 608 407.55 596.45 432 599"/><polygon class="cls-77" points="345 651.11 398.92 628.04 363.46 624.73 322 604 302 654 345 651.11"/><polygon class="cls-78" points="450.33 633.36 389 650 345 651.11 302 654 327 689 412 669 450.33 633.36"/><polygon class="cls-79" points="450.33 610.46 469 616 450.33 633.36 389 650 345 651.11 398.92 628.04 450.33 610.46"/><polygon class="cls-80" points="433.94 586.77 450.33 610.46 398.92 628.04 432 599 433.94 586.77"/><polygon class="cls-69" points="452.45 570 450.33 610.46 433.94 586.77 436.52 570.5 443.6 548 452.45 570"/><polygon class="cls-81" points="491.87 548 452.45 570 450.33 610.46 469 616 491.87 548"/><path class="cls-30" d="M216.32,618.74l106,67.3a13.13,13.13,0,0,0,10,1.69l76.23-17.93a13.26,13.26,0,0,0,5.94-3.17l52-48.36a13.09,13.09,0,0,0,3.5-5.43l34.32-102a13.09,13.09,0,0,0-.41-9.44l-44.84-102.5a13.16,13.16,0,0,0-7-6.88l-66-27.12a13.14,13.14,0,0,0-4.37-1l-57.94-2.71a13,13,0,0,0-7.09,1.7L240.83,406a13.14,13.14,0,0,0-3.24,2.6L194,456.71a13.14,13.14,0,0,0-3.35,7.71l-4.44,52.29a13.43,13.43,0,0,0,.4,4.51l24.09,89.84A13.08,13.08,0,0,0,216.32,618.74Z"/><path class="cls-82" d="M238,472c4-8,14-25,30-29s27,5,32,13,11,25-1,39-22,15-24,25-3,31-11,38-28,1-34-8-16-30-9-47S233,482,238,472Z"/><path class="cls-83" d="M433,417c-8-2-20-12-30-13s-32,7-33,17-1,24,18,34,32,9,39.5,17,11.36,26,17.43,28S461,498,465,490s7-17,3-26S445,420,433,417Z"/><path class="cls-82" d="M343,538s-1,9.59,0,12.29S361,558,372,558s31.87-4,36.43-10a136.08,136.08,0,0,0,11.35-18.28C421,527,418,518,410,517s-28-1-34,1-22,8-25,12A54,54,0,0,1,343,538Z"/><rect x="266.49" y="471.49" width="12.02" height="12.02" transform="translate(-273.4 412.3) rotate(-53.48)"/><rect class="cls-39" x="393.08" y="429.08" width="14.85" height="14.85" transform="translate(-186.87 513.51) rotate(-54.93)"/><g class="cls-6"><path class="cls-84" d="M745.65,398V859H860V471.86a10,10,0,0,0-3.83-7.86l-94.39-73.87A10,10,0,0,0,745.65,398Z"/><rect class="cls-85" x="770" y="506" width="18" height="353"/><rect class="cls-85" x="817" y="563" width="18" height="296"/><line class="cls-85" x1="745.65" y1="404.35" x2="860" y2="494"/><rect class="cls-86" x="173" y="750" width="252" height="42"/><rect class="cls-87" x="140" y="786" width="329" height="47"/><rect class="cls-88" x="319" y="838" width="363" height="67"/><path class="cls-89" d="M625,739s-11,1-18,1-5-9-5-21c-28,8-65,7-92,7s-64,1-92-7c0,12,2,21-5,21s-18-1-18-1-1,19,22,19H603C626,758,625,739,625,739Z"/><rect class="cls-90" x="417" y="758" width="189" height="18"/><path class="cls-89" d="M606.5,776H417a51.56,51.56,0,0,1-48,3s21,17.19,32,17.19H622.5c11,0,32-17.19,32-17.19A51.56,51.56,0,0,1,606.5,776Z"/><polygon class="cls-90" points="656 824 366 824 386 796 636 796 656 824"/><polygon class="cls-89" points="734 853 715.5 834.5 672 834.5 656 818.98 490 818.98 353 818.98 337 834.5 293.5 834.5 275 853 246 853 246 870.18 284.98 870.18 298.5 856.66 347.86 856.66 359 845.52 490 845.52 650 845.52 661.14 856.66 710.5 856.66 724.02 870.18 763 870.18 763 853 734 853"/></g><path class="cls-91" d="M500,107a391.71,391.71,0,1,1-153,30.88A390.51,390.51,0,0,1,500,107m0-12C276.32,95,95,276.32,95,500S276.32,905,500,905,905,723.68,905,500,723.68,95,500,95Z"/><path class="cls-85" d="M625.59,202H739.48a7.76,7.76,0,0,1,7.58,6.12L750,221.61a7.75,7.75,0,0,1-7.58,9.39H621.11a7.76,7.76,0,0,1-7.36-10.2l4.49-13.49A7.74,7.74,0,0,1,625.59,202Z"/><rect class="cls-85" x="647.41" y="181" width="67.54" height="21" rx="6.77"/><rect class="cls-92" x="669.68" y="158" width="23" height="23"/><rect class="cls-85" x="658.68" y="141" width="45" height="17" rx="5.83"/><rect class="cls-92" x="673.68" y="100" width="15" height="41"/><rect class="cls-85" x="665.18" y="85" width="32" height="15" rx="4.49"/><path class="cls-85" d="M680.1,28.89,675.73,85h10.9l-4.36-56.11A1.09,1.09,0,0,0,680.1,28.89Z"/><polygon class="cls-93" points="620.21 231 658.68 321.35 703.68 321.35 744.52 231 620.21 231"/><line class="cls-85" x1="649.52" y1="231" x2="675.4" y2="321.35"/><line class="cls-85" x1="682.37" y1="231" x2="682.37" y2="321.35"/><line class="cls-85" x1="718" y1="231" x2="692.82" y2="321.35"/><path class="cls-94" d="M657.43,327.35h47.49l20.45,501.94q-1.85,1.28-3.74,2.54l-.27.18c-4.26,2.84-8.64,5.65-13,8.33l-.35.22c-2.11,1.29-4.27,2.58-6.46,3.87l-.62.36c-4.26,2.49-8.64,4.94-13,7.28l-.91.49q-3.15,1.66-6.33,3.29l-1,.5c-2.4,1.21-4.55,2.27-6.56,3.25a400.91,400.91,0,0,1-39.5,16.47Z"/><path class="cls-91" d="M699.16,333.35,719.24,826.2l-1,.64-.17.11-.1.07c-4.19,2.8-8.5,5.56-12.82,8.22l-.18.1-.18.12c-2.05,1.25-4.19,2.53-6.34,3.79l-.35.21-.26.15c-4.19,2.44-8.5,4.86-12.82,7.17l-.36.19-.53.29c-2.06,1.09-4.16,2.18-6.24,3.24l-.59.3-.39.2c-2.38,1.2-4.5,2.24-6.46,3.19-9.93,4.79-20.14,9.19-30.5,13.14l23.17-534h36m11.52-12h-59L627.23,884.6A401,401,0,0,0,675.71,865h0q3.35-1.62,6.66-3.29l1-.51c2.15-1.1,4.3-2.21,6.43-3.35l.92-.49q6.67-3.57,13.21-7.39l.63-.37c2.19-1.28,4.37-2.59,6.54-3.91l.37-.23q6.69-4.11,13.21-8.46l.27-.18q3.3-2.21,6.54-4.47h0l-20.82-511Z"/><rect class="cls-95" x="673" y="324" width="15" height="118"/><rect class="cls-95" x="673" y="442" width="15" height="25"/><path class="cls-96" d="M673,473h15V852c-4.94,2.64-10,5.19-15,7.62Z"/><path class="cls-91" d="M682,479V848.4L679,850V479h3m12-12H667V869.07q13.79-6.24,27-13.48V467Z"/></g></svg>