<svg id="svg5529" xmlns="http://www.w3.org/2000/svg" viewBox="0 0 132.38 132.38"><defs><style>.cls-1{fill:#864a99;fill-rule:evenodd;}</style></defs><g id="layer1"><path id="path3627" class="cls-1" d="M35.68,17.05A10.09,10.09,0,0,0,25.76,27.3V67.14c0,.29,0,.57,0,.85v39.77a10.09,10.09,0,0,0,20.17.58,5.61,5.61,0,0,0,0-.58V77.61H86.29v30.15a10.09,10.09,0,0,0,20.17.58V69.41a10.29,10.29,0,0,0,0-3.67V27.3a10.09,10.09,0,0,0-9.93-10.25H96.2A10.08,10.08,0,0,0,86.29,27.3V57.44H45.93V27.3A10.09,10.09,0,0,0,36,17.05Z"/></g></svg>