<svg xmlns="http://www.w3.org/2000/svg" xmlns:xlink="http://www.w3.org/1999/xlink" viewBox="0 0 1000 1000"><defs><style>.cls-1,.cls-2,.cls-5,.cls-9{fill:#ccc;}.cls-1,.cls-5,.cls-8,.cls-9{stroke:#999;}.cls-1,.cls-5,.cls-8{stroke-miterlimit:10;}.cls-3{fill:#999;}.cls-4{clip-path:url(#clip-path);}.cls-5,.cls-9{stroke-width:10px;}.cls-6{clip-path:url(#clip-path-2);}.cls-7{fill:#aaa;}.cls-8{fill:none;}.cls-9{stroke-linecap:round;stroke-linejoin:round;}</style><clipPath id="clip-path"><circle class="cls-1" cx="500" cy="500" r="405"/></clipPath><clipPath id="clip-path-2"><polygon class="cls-1" points="793.61 512.85 721.41 512.85 721 512.85 648.8 512.85 596 849 721 849 721.41 849 846.41 849 793.61 512.85"/></clipPath></defs><g id="图层_2" data-name="图层 2"><path class="cls-2" d="M500,899a397.73,397.73,0,1,1,155.31-31.35A396.59,396.59,0,0,1,500,899Z"/><path class="cls-3" d="M500,107a391.71,391.71,0,1,1-153,30.88A390.51,390.51,0,0,1,500,107m0-12C276.32,95,95,276.32,95,500S276.32,905,500,905,905,723.68,905,500,723.68,95,500,95Z"/><circle class="cls-2" cx="500" cy="500" r="405"/><g class="cls-4"><path class="cls-5" d="M934.55,528.36a19.06,19.06,0,0,0-18.72-15.51H526.58a19.06,19.06,0,0,0-18.72,15.51L447,849H995.41Z"/><polygon class="cls-5" points="799.61 512.85 721.41 512.85 721 512.85 642.8 512.85 590 849 721 849 721.41 849 852.41 849 799.61 512.85"/><polygon class="cls-2" points="793.61 512.85 721.41 512.85 721 512.85 648.8 512.85 596 849 721 849 721.41 849 846.41 849 793.61 512.85"/><g class="cls-6"><rect class="cls-7" x="632.7" y="550" width="177" height="31"/><rect class="cls-7" x="614.7" y="608.25" width="213" height="31"/><rect class="cls-7" x="595.7" y="666.5" width="251" height="31"/><rect class="cls-7" x="582.7" y="724.75" width="277" height="31"/><rect class="cls-1" x="571.7" y="783" width="299" height="31"/></g><polygon class="cls-8" points="793.61 512.85 721.41 512.85 721 512.85 648.8 512.85 596 849 721 849 721.41 849 846.41 849 793.61 512.85"/><polygon class="cls-5" points="832.6 389 609.6 389 587.6 347 854.6 347 832.6 389"/><polygon class="cls-5" points="733 419 721.2 419 601 419 601 513 721.2 513 733 513 841.2 513 841.2 419 733 419"/><rect class="cls-5" x="670" y="419" width="17" height="94"/><rect class="cls-5" x="601" y="419" width="17" height="94"/><path class="cls-5" d="M644,463h0a13,13,0,0,1,13,13v30a0,0,0,0,1,0,0H631a0,0,0,0,1,0,0V476A13,13,0,0,1,644,463Z"/><polygon class="cls-9" points="818.78 389 721.2 389 721 389 623.43 389 590 418.67 721 418.67 721.2 418.67 852.2 418.67 818.78 389"/><rect class="cls-5" x="755.2" y="419" width="17" height="94" transform="translate(1527.41 932) rotate(-180)"/><rect class="cls-5" x="824.2" y="419" width="17" height="94" transform="translate(1665.41 932) rotate(-180)"/><path class="cls-5" d="M785.2,463h26a0,0,0,0,1,0,0v30a13,13,0,0,1-13,13h0a13,13,0,0,1-13-13V463A0,0,0,0,1,785.2,463Z" transform="translate(1596.41 969) rotate(-180)"/><path class="cls-5" d="M721,457h0a16.21,16.21,0,0,0-16,16.2V506h32.2V473.2A16.38,16.38,0,0,0,721,457Z"/><rect class="cls-5" x="537" y="389" width="64" height="124"/><rect class="cls-5" x="524" y="374" width="90" height="15" rx="5.46"/><rect class="cls-5" x="841" y="389" width="64" height="124"/><rect class="cls-5" x="828" y="374" width="90" height="15" rx="5.46"/><path class="cls-5" d="M403,143h25.06a5.94,5.94,0,0,1,5.94,5.94V222a0,0,0,0,1,0,0H403a0,0,0,0,1,0,0V143A0,0,0,0,1,403,143Z"/><path class="cls-5" d="M446,463V216.94a5.94,5.94,0,0,0-5.94-5.94H383V519h85V463Z"/><line class="cls-5" x1="440" y1="228" x2="386" y2="228"/><line class="cls-5" x1="434" y1="162" x2="403" y2="162"/><line class="cls-5" x1="434" y1="179" x2="403" y2="179"/><line class="cls-5" x1="441.5" y1="245.5" x2="387.5" y2="245.5"/><line class="cls-5" x1="440" y1="337" x2="386" y2="337"/><line class="cls-5" x1="440" y1="360" x2="386" y2="360"/><line class="cls-5" x1="440" y1="383" x2="386" y2="383"/><line class="cls-5" x1="440" y1="406" x2="386" y2="406"/><line class="cls-5" x1="440" y1="429" x2="386" y2="429"/><line class="cls-5" x1="440" y1="452" x2="386" y2="452"/><line class="cls-5" x1="440" y1="475" x2="386" y2="475"/><path class="cls-5" d="M368,198.94V316.12a5.88,5.88,0,0,0,5.88,5.88h34.61a6,6,0,0,1,6,6V478a6,6,0,0,0,6,6H469a6,6,0,0,0,6-6V433a6,6,0,0,0-6-6H465a6,6,0,0,1-6-6V268.94a5.94,5.94,0,0,0-5.94-5.94H421.5V198.94a5.94,5.94,0,0,0-5.94-5.94H373.94A5.94,5.94,0,0,0,368,198.94Z"/><path class="cls-5" d="M374,343H390a6,6,0,0,1,6,6V497a6,6,0,0,0,6,6H469a6,6,0,0,1,6,6V780H368V349A6,6,0,0,1,374,343Z"/><rect class="cls-5" x="284" y="432" width="102" height="32" rx="8.58"/><rect class="cls-5" x="293" y="484" width="82" height="286" rx="8.94"/><rect class="cls-5" x="304" y="464" width="62" height="20"/><line class="cls-5" x1="293" y1="506" x2="375" y2="506"/><line class="cls-5" x1="293" y1="531" x2="375" y2="531"/><line class="cls-5" x1="293" y1="556" x2="375" y2="556"/><line class="cls-5" x1="293" y1="581" x2="375" y2="581"/><line class="cls-5" x1="293" y1="606" x2="375" y2="606"/><line class="cls-5" x1="293" y1="631" x2="375" y2="631"/><line class="cls-5" x1="293" y1="656" x2="375" y2="656"/><line class="cls-5" x1="293" y1="681" x2="375" y2="681"/><line class="cls-5" x1="293" y1="706" x2="375" y2="706"/><rect class="cls-5" x="77" y="658" width="380" height="129"/><path class="cls-5" d="M353.13,635.11v-7.22a4.89,4.89,0,0,0-4.89-4.89H323.11a4.89,4.89,0,0,1-4.89-4.89v-4.22a4.89,4.89,0,0,0-4.89-4.89H220.45a4.89,4.89,0,0,0-4.89,4.89v4.22a4.89,4.89,0,0,1-4.89,4.89H185.54a4.89,4.89,0,0,0-4.89,4.89v7.22a4.89,4.89,0,0,1-4.89,4.89H81.67a4.89,4.89,0,0,0-4.89,4.89V653a4.89,4.89,0,0,0,4.89,4.89H452.11A4.89,4.89,0,0,0,457,653v-8.13a4.89,4.89,0,0,0-4.89-4.89H358A4.89,4.89,0,0,1,353.13,635.11Z"/><path class="cls-3" d="M167.18,696h0A16.82,16.82,0,0,1,184,712.82V783a0,0,0,0,1,0,0H150.36a0,0,0,0,1,0,0V712.82A16.82,16.82,0,0,1,167.18,696Z"/><path class="cls-3" d="M267.18,685h0a23.18,23.18,0,0,1,23.18,23.18V783a0,0,0,0,1,0,0H244a0,0,0,0,1,0,0V708.18A23.18,23.18,0,0,1,267.18,685Z"/><rect class="cls-5" x="98" y="658" width="49" height="17" rx="5.39"/><rect class="cls-5" x="98" y="770" width="49" height="17" rx="4.73"/><rect class="cls-5" x="103.44" y="675" width="19.06" height="95"/><rect class="cls-5" x="122.5" y="675" width="19.06" height="95"/><rect class="cls-5" x="186" y="658" width="49" height="17" rx="5.39"/><rect class="cls-5" x="186" y="770" width="49" height="17" rx="4.73"/><rect class="cls-5" x="191.44" y="675" width="19.06" height="95"/><rect class="cls-5" x="210.5" y="675" width="19.06" height="95"/><path class="cls-3" d="M350.36,696H384a0,0,0,0,1,0,0v70.18A16.82,16.82,0,0,1,367.18,783h0a16.82,16.82,0,0,1-16.82-16.82V696A0,0,0,0,1,350.36,696Z" transform="translate(734.36 1479) rotate(-180)"/><rect class="cls-5" x="387.36" y="658" width="49" height="17" rx="5.39" transform="translate(823.72 1333) rotate(-180)"/><rect class="cls-5" x="387.36" y="770" width="49" height="17" rx="4.73" transform="translate(823.72 1557) rotate(-180)"/><rect class="cls-5" x="411.86" y="675" width="19.06" height="95" transform="translate(842.77 1445) rotate(-180)"/><rect class="cls-5" x="392.8" y="675" width="19.06" height="95" transform="translate(804.66 1445) rotate(-180)"/><rect class="cls-5" x="299.36" y="658" width="49" height="17" rx="5.39" transform="translate(647.72 1333) rotate(-180)"/><rect class="cls-5" x="299.36" y="770" width="49" height="17" rx="4.73" transform="translate(647.72 1557) rotate(-180)"/><rect class="cls-5" x="323.86" y="675" width="19.06" height="95" transform="translate(666.77 1445) rotate(-180)"/><rect class="cls-5" x="304.8" y="675" width="19.06" height="95" transform="translate(628.66 1445) rotate(-180)"/><path class="cls-5" d="M239.28,592H294.5a8.39,8.39,0,0,1,8.39,8.39V609a0,0,0,0,1,0,0h-72a0,0,0,0,1,0,0v-8.61A8.39,8.39,0,0,1,239.28,592Z"/><rect class="cls-3" x="260.89" y="508" width="12" height="84" rx="6"/><polygon class="cls-9" points="297.15 523.39 267.75 512.85 267.75 537.39 297.15 546.46 297.15 523.39"/><rect class="cls-5" x="77" y="787" width="380" height="33"/><rect class="cls-5" x="276.8" y="859.63" width="723.45" height="45.76"/><rect class="cls-5" x="543.73" y="656.04" width="189.59" height="97.13"/><path class="cls-5" d="M989.69,726.08H971.61a3.25,3.25,0,0,0-3.4,3.07v12.54a3.25,3.25,0,0,1-3.39,3.07H940.61a3.25,3.25,0,0,1-3.4-3.07V729.15a3.25,3.25,0,0,0-3.4-3.07H907.53a3.25,3.25,0,0,0-3.39,3.07v12.54a3.25,3.25,0,0,1-3.4,3.07H872.15a3.26,3.26,0,0,1-3.4-3.07V729.15a3.25,3.25,0,0,0-3.39-3.07h-31.2a3.25,3.25,0,0,0-3.4,3.07v11.6a3.25,3.25,0,0,1-3.4,3.08H802.12a3.25,3.25,0,0,1-3.4-3.08v-11.6a3.25,3.25,0,0,0-3.4-3.07H763.88a3.25,3.25,0,0,0-3.4,3.07v11.6a3.25,3.25,0,0,1-3.4,3.08H733.64a3.25,3.25,0,0,1-3.4-3.08v-11.6a3.25,3.25,0,0,0-3.4-3.07H695.67a3.25,3.25,0,0,0-3.4,3.07v10.67a3.24,3.24,0,0,1-3.4,3.07H663.22a3.24,3.24,0,0,1-3.4-3.07V729.15a3.25,3.25,0,0,0-3.4-3.07H620.63a3.26,3.26,0,0,0-3.4,3.07v10.67a3.24,3.24,0,0,1-3.39,3.07H588.18a3.24,3.24,0,0,1-3.39-3.07V729.15a3.26,3.26,0,0,0-3.4-3.07H550.21a3.26,3.26,0,0,0-3.4,3.07v11.6a3.25,3.25,0,0,1-3.39,3.08H520a3.25,3.25,0,0,1-3.39-3.08v-11.6a3.26,3.26,0,0,0-3.4-3.07H481.73a3.25,3.25,0,0,0-3.39,3.07v11.6a3.26,3.26,0,0,1-3.4,3.08H449.7a3.25,3.25,0,0,1-3.4-3.08v-11.6a3.25,3.25,0,0,0-3.4-3.07H411.7a3.25,3.25,0,0,0-3.4,3.07v12.54a3.25,3.25,0,0,1-3.4,3.07H376.32a3.25,3.25,0,0,1-3.4-3.07V729.15a3.25,3.25,0,0,0-3.4-3.07H343.25a3.25,3.25,0,0,0-3.4,3.07v12.54a3.25,3.25,0,0,1-3.4,3.07H312.24a3.25,3.25,0,0,1-3.4-3.07V729.15a3.25,3.25,0,0,0-3.4-3.07H287.36a3.26,3.26,0,0,0-3.39,3L283,769h711l-1-39.95A3.26,3.26,0,0,0,989.69,726.08Z"/><polygon class="cls-5" points="994.05 769.04 638.53 769.04 283 769.04 277.13 842.82 638.53 842.82 999.92 842.82 994.05 769.04"/><polygon class="cls-5" points="638.53 842.82 276.8 842.82 276.8 868.04 638.53 868.04 1000.25 868.04 1000.25 842.82 638.53 842.82"/><polygon class="cls-5" points="748.73 753.16 528.32 753.16 522.72 847.49 520.85 871.77 638.53 871.77 756.2 871.77 754.34 847.49 748.73 753.16"/><path class="cls-5" d="M742.72,717.68H727.88a4.36,4.36,0,0,0-4.36,4.36v5.28a4.37,4.37,0,0,1-4.37,4.36H706.4a4.36,4.36,0,0,1-4.36-4.36V722a4.37,4.37,0,0,0-4.37-4.36H681.19a4.36,4.36,0,0,0-4.37,4.36v4.34a4.37,4.37,0,0,1-4.37,4.37H656.91a4.36,4.36,0,0,1-4.37-4.37V722a4.37,4.37,0,0,0-4.37-4.36H628.89a4.36,4.36,0,0,0-4.37,4.36v4.34a4.37,4.37,0,0,1-4.37,4.37H604.6a4.36,4.36,0,0,1-4.36-4.37V722a4.37,4.37,0,0,0-4.37-4.36H579.39A4.37,4.37,0,0,0,575,722v5.28a4.37,4.37,0,0,1-4.37,4.36H557.91a4.37,4.37,0,0,1-4.37-4.36V722a4.37,4.37,0,0,0-4.37-4.36H534.34a4.37,4.37,0,0,0-4.37,4.13l-1.65,31.36H748.73l-1.65-31.36A4.36,4.36,0,0,0,742.72,717.68Z"/><polygon class="cls-5" points="754.34 847.49 638.53 847.49 522.72 847.49 520.85 871.77 638.53 871.77 756.2 871.77 754.34 847.49"/><path class="cls-5" d="M638.53,787.72h0a32.7,32.7,0,0,0-32.69,32.69v51.36h65.38V820.41A32.7,32.7,0,0,0,638.53,787.72Z"/><rect class="cls-5" x="625.45" y="672.85" width="27.08" height="28.02" rx="4.37"/><rect class="cls-5" x="676.82" y="672.85" width="27.08" height="28.02" rx="4.37"/><rect class="cls-5" x="574.09" y="672.85" width="27.08" height="28.02" rx="4.37"/><path class="cls-9" d="M721,633.62a23.83,23.83,0,0,1-1.87-12.14H558a23.83,23.83,0,0,1-1.87,12.14c-3.33,7.77-32.69,7.47-40.16-2.8,2.8,17.74,16.81,25.22,27.55,25.22H733.56c10.74,0,24.74-7.48,27.55-25.22C753.64,641.09,724.28,641.39,721,633.62Z"/><path class="cls-9" d="M702.27,608.39H574.09c-13.08,0-19.62-1.85-24.29-3.72,0,6.54,5.61,16.81,8.18,16.81h160.4c2.57,0,8.17-10.27,8.17-16.81C721.88,606.54,715.34,608.39,702.27,608.39Z"/></g><circle class="cls-8" cx="500" cy="500" r="405"/><path class="cls-3" d="M500,107a391.71,391.71,0,1,1-153,30.88A390.51,390.51,0,0,1,500,107m0-12C276.32,95,95,276.32,95,500S276.32,905,500,905,905,723.68,905,500,723.68,95,500,95Z"/><path class="cls-5" d="M410,39h0a7,7,0,0,1,7,7v97a0,0,0,0,1,0,0H403a0,0,0,0,1,0,0V46a7,7,0,0,1,7-7Z"/><path class="cls-9" d="M869.41,317c-7,10-18,15-33,11s-16-24-17-42c-1,4-9,12.73-17,12.73H639.79c-8,0-16-8.73-17-12.73-1,18-2,38-17,42s-26-1-33-11c-5,11,0,30,15,30H854.41C869.41,347,874.41,328,869.41,317Z"/><rect class="cls-5" x="703.1" y="338" width="36" height="60" rx="7.31"/></g></svg>