<svg xmlns="http://www.w3.org/2000/svg" xmlns:xlink="http://www.w3.org/1999/xlink" viewBox="0 0 999 999"><defs><style>.cls-1,.cls-22,.cls-24,.cls-6,.cls-7{fill:none;}.cls-2{fill:url(#未命名的渐变_129);}.cls-3{fill:#323333;}.cls-4{clip-path:url(#clip-path);}.cls-5{fill:#e9f5f8;}.cls-10,.cls-11,.cls-12,.cls-13,.cls-14,.cls-15,.cls-16,.cls-17,.cls-18,.cls-19,.cls-20,.cls-21,.cls-22,.cls-24,.cls-6,.cls-7,.cls-8,.cls-9{stroke:#323333;}.cls-10,.cls-11,.cls-14,.cls-15,.cls-16,.cls-17,.cls-18,.cls-19,.cls-20,.cls-21,.cls-22,.cls-24,.cls-6,.cls-7,.cls-8,.cls-9{stroke-linecap:round;}.cls-10,.cls-11,.cls-14,.cls-15,.cls-16,.cls-17,.cls-18,.cls-19,.cls-20,.cls-21,.cls-22,.cls-6,.cls-8,.cls-9{stroke-linejoin:round;}.cls-6,.cls-7{stroke-width:8px;}.cls-12,.cls-13,.cls-24,.cls-7{stroke-miterlimit:10;}.cls-8{fill:#8e97a9;}.cls-10,.cls-11,.cls-12,.cls-13,.cls-14,.cls-15,.cls-16,.cls-17,.cls-18,.cls-19,.cls-20,.cls-21,.cls-22,.cls-24,.cls-8,.cls-9{stroke-width:10px;}.cls-9{fill:#3f4163;}.cls-10{fill:#fff000;}.cls-11{fill:#449dd7;}.cls-12{fill:#f29929;}.cls-13{fill:#f4e136;}.cls-14{fill:#50587b;}.cls-15{fill:#f4e848;}.cls-16{fill:#009844;}.cls-17{fill:#de3b1e;}.cls-18{fill:#626363;}.cls-19{fill:#a7b1b5;}.cls-20{fill:#c7d7da;}.cls-21{fill:#ecf6fb;}.cls-23{fill:#353085;}</style><linearGradient id="未命名的渐变_129" x1="499.5" y1="104.51" x2="499.5" y2="894.51" gradientUnits="userSpaceOnUse"><stop offset="0" stop-color="#70b3e3"/><stop offset="1" stop-color="#e7f4f9"/></linearGradient><clipPath id="clip-path"><circle class="cls-1" cx="499.5" cy="499.51" r="400"/></clipPath></defs><g id="图层_3" data-name="图层 3"><path class="cls-2" d="M499.5,894.51a393.74,393.74,0,1,1,153.75-31A392.6,392.6,0,0,1,499.5,894.51Z"/><path class="cls-3" d="M499.5,109.51a388.75,388.75,0,1,1-151.8,30.64,387.6,387.6,0,0,1,151.8-30.64m0-10c-220.91,0-400,179.08-400,400s179.09,400,400,400,400-179.09,400-400-179.09-400-400-400Z"/><g class="cls-4"><path class="cls-5" d="M733.7,397.77s-14.44-6.66-21.67,9.68c-11.06-.3-29.71,5.76-17.79,35.42-1.71,8.11,10,29,28.64,19.87,8.44,2.16,16.68.89,18.69-9.12,6.64,4.11,13.87,3.05,16.89-5.06,5,6.22,14.32.78,14.37-.53,1.91,13.7,11.55,22.72,28,14.71,7.44,10.17,20.7,13.54,27.54-2.9,15.88,7,27.81-9.07,14.51-22.14,11.42-11.59-1.59-30.57-21.14-23-1.21-7.57-12.87-9.91-16.49-7-1.2-8.85-10.65-11.93-13.87-11.23,2.42-14.48-11.28-18.35-14.68-18.74s-15.07.88-21.7,12.69C744.59,379.09,734.87,392,733.7,397.77Z"/><path class="cls-6" d="M723.48,434s13.87-13.6-1.5-15.18c-13.74-1.41-16.89,17.71-6.94,23.72s23.82,3.16,26.53-8.85c10.25-3.8,13.57-19.61,0-26.25-3.31-9.8-20.5-18.66-29.54,0-15.68-5.11-31.36,15.49-17.79,35.42-.91,17.07,17.79,26.46,28.64,19.87,0,0,15.38,5.11,18.69-9.12,10.25,6.95,16-1.27,16.89-5.06,4.82,6.95,11.15,2.21,12.81-.32"/><path class="cls-6" d="M776.82,436.44s-9,10.75,0,23,24,3.33,24,3.33,4.42,9.75,15.28,8.69,12.26-11.59,12.26-11.59,15.2,4.29,19.26-5.87-4.75-16.27-4.75-16.27,9.07-11.38,0-20-21.14-2.95-21.14-2.95-4.63-10.12-16.49-7"/><path class="cls-7" d="M794,431.8s22.18-17.75,32.56,1.9c6,11.41-4.82,22.34-13.35,21.42-7.82-.84-13.59-7.09-11.58-14.05s13.27-6.11,13.67.43"/><path class="cls-6" d="M764.69,420.62s5.23,7.38,11.86,2.53,2.21-14.29-5.93-16-18.19,4.2-18.8,15.58,15.49,16.45,21,11c3.72,5.63,15.18,9.49,23.42,3.69s7.23-15.29,4-19.08c6.43-3,5.83-9.7,3.62-13.29s-8-8.34-12.47-8.49a15.6,15.6,0,0,0-12.81-17.86c-7.89-1.47-19.55,3.8-23.57,11.81-5.83-6.75-14.45-2.42-16.86-.26a11,11,0,0,0-3.74,8.72"/><ellipse class="cls-8" cx="497.99" cy="327.55" rx="174.25" ry="41.74"/><ellipse class="cls-9" cx="498.47" cy="331.71" rx="170.51" ry="24.9"/><path class="cls-10" d="M619.15,389.82c-31.23-11.05-217-11.1-248.33,0V344.51a447.75,447.75,0,0,1,248.33,1.21Z"/><polygon class="cls-11" points="400.54 386.53 371.21 395.42 371.21 342.61 400.54 332.73 400.54 386.53"/><polygon class="cls-11" points="454.46 379.67 414.77 383.02 414.77 333.76 454.46 327.55 454.46 379.67"/><polygon class="cls-11" points="583.21 383.02 541.33 379.18 541.33 330.21 583.21 332.73 583.21 383.02"/><polygon class="cls-11" points="623.88 394.91 595.73 386.05 595.73 333.25 623.49 341.8 623.88 394.91"/><rect class="cls-12" x="487.39" y="172.43" width="20.09" height="27.82"/><circle class="cls-13" cx="497.99" cy="149.54" r="19.22"/><path class="cls-14" d="M498,285.81c46.85,0,89.37,4.43,120.68,11.63a2.59,2.59,0,0,0,.48-1.27c.42-5.52-19.7-8.73-65.69-38.35C537,247.21,515,231.5,516.37,215.32c.48-5.64,3.55-9.35,1.16-13.91-4-7.67-18.09-7.42-22.41-7.34-5.66.1-14.91.26-18.93,6.18-3.1,4.56-1,9.42-.78,14.68.61,14.53-13.71,27.82-31.68,41-41.66,30.45-65,34.25-64.53,40.28a2.66,2.66,0,0,0,.22.8C410.52,290.05,452.19,285.81,498,285.81Z"/><path class="cls-14" d="M317.4,429.55c9.35-.58,58.23-25.21,65-32,9.28-9.32,24.79-10.71,41.2-11.9,30.71-2.23,113.91-.17,135-.84,24.48-.77,46.39,3.47,55.61,12.11,8.63,8.08,55.28,30.2,62.65,31"/><ellipse class="cls-8" cx="501.07" cy="456.81" rx="238.63" ry="42.7"/><ellipse class="cls-9" cx="502.46" cy="458.86" rx="231" ry="23.19"/><rect class="cls-15" x="466.72" y="296.17" width="63.5" height="86.85"/><path class="cls-16" d="M664.63,521.11a656.64,656.64,0,0,0-334.07,0V475.8A803.41,803.41,0,0,1,664.63,477Z"/><polygon class="cls-11" points="361.79 512.08 332.46 519.72 332.46 474.38 361.79 465.89 361.79 512.08"/><polygon class="cls-11" points="448.17 501.56 385.88 505.51 385.88 460.52 450.29 456.81 448.17 501.56"/><polygon class="cls-11" points="530.22 505.51 466.72 505.37 466.72 456.81 530.22 456.81 530.22 505.51"/><polygon class="cls-11" points="609.71 509.16 547.31 501.07 547.31 458.85 609.71 465.36 609.71 509.16"/><polygon class="cls-11" points="663.34 515.23 629.75 508.88 629.75 466.65 664.63 475.48 663.34 515.23"/><path class="cls-14" d="M270.59,560.71c12.78-2.27,56.25-25.35,58.11-28.22,18.74-28.92,89-27.35,173.76-27,72.17.31,144-1.23,166.52,24.58,2,2.3,44.88,26.32,54,29"/><path class="cls-8" d="M497.25,543.69c-152.54,0-276.2,22.12-276.2,49.42,0,10.06,16.84,19.42,45.72,27.23v-6.46c73.12-9.59,160.74-17.26,256-16.93,87.63.3,159,7.35,213.06,15.34,0,1.2,0,3.16.08,5.71,23.87-7.31,37.57-15.81,37.57-24.89C773.44,565.81,649.78,543.69,497.25,543.69Z"/><path class="cls-9" d="M498.85,568.64c-147.66,0-267.36,12-267.36,26.84,0,6,19.88,11.61,53.43,16.1,69.29-8.49,150.34-14.93,237.81-14.63,80.25.28,146.89,6.22,199,13.35,28.07-4.25,44.44-9.34,44.44-14.82C766.22,580.66,646.51,568.64,498.85,568.64Z"/><path class="cls-17" d="M738.15,729.64c-50.92-6.91-404.84-6.31-471.38,4.29v-120c73.12-9.59,160.74-17.26,256-16.93,87.63.3,159,7.35,213.06,15.34C735.87,624.7,738.07,717.2,738.15,729.64Z"/><rect class="cls-18" x="347.12" y="649.93" width="45.27" height="84.01"/><rect class="cls-18" x="466.72" y="632.86" width="63.5" height="101.07"/><rect class="cls-18" x="611.16" y="648.68" width="45.26" height="91.41"/><rect class="cls-19" x="140.29" y="725.26" width="717.41" height="174.51"/><polygon class="cls-20" points="496.8 910.24 639.77 910.24 578.22 725.26 499.5 725.26 418.08 725.26 356.53 910.24 499.5 910.24 496.8 910.24"/><rect class="cls-21" x="90.28" y="695.87" width="323.58" height="42"/><rect class="cls-21" x="23.03" y="754.42" width="369.36" height="42"/><rect class="cls-21" x="-17.57" y="813.39" width="391.38" height="42"/><rect class="cls-21" x="583.86" y="695.87" width="323.58" height="42" transform="translate(1491.29 1433.74) rotate(180)"/><rect class="cls-21" x="601.93" y="754.42" width="369.36" height="42" transform="translate(1573.22 1550.84) rotate(180)"/><rect class="cls-21" x="624.56" y="813.39" width="391.38" height="42" transform="translate(1640.5 1668.79) rotate(180)"/><line class="cls-22" x1="432.83" y1="754.42" x2="564.6" y2="754.42"/><line class="cls-22" x1="418.5" y1="793.95" x2="578.93" y2="793.95"/><line class="cls-22" x1="406.53" y1="833.49" x2="590.91" y2="833.49"/><line class="cls-22" x1="391.7" y1="873.02" x2="605.74" y2="873.02"/><rect class="cls-23" x="477.04" y="306.81" width="42.42" height="65.88"/></g><path class="cls-3" d="M499.5,109.51a388.75,388.75,0,1,1-151.8,30.64,387.6,387.6,0,0,1,151.8-30.64m0-10c-220.91,0-400,179.08-400,400s179.09,400,400,400,400-179.09,400-400-179.09-400-400-400Z"/><path class="cls-5" d="M230.86,178.54s-18.64-8.6-28,12.5c-14.28-.39-38.35,7.44-23,45.72-2.2,10.48,12.85,37.43,37,25.66,10.9,2.78,21.54,1.15,24.14-11.78,8.56,5.31,17.9,4,21.8-6.53,6.48,8,18.49,1,18.55-.68,2.47,17.69,14.91,29.33,36.2,19,9.6,13.13,26.73,17.48,35.55-3.75,20.51,9,35.91-11.7,18.73-28.58,14.75-15-2-39.47-27.29-29.66-1.56-9.78-16.61-12.8-21.28-9-1.56-11.43-13.75-15.4-17.91-14.5,3.12-18.7-14.56-23.7-19-24.19s-19.44,1.13-28,16.38C244.92,154.43,232.37,171.08,230.86,178.54Z"/><path class="cls-22" d="M217.67,225.33s17.91-17.56-1.95-19.6c-17.73-1.82-21.8,22.87-8.95,30.62s30.75,4.09,34.26-11.43c13.23-4.9,17.51-25.31,0-33.88-4.29-12.66-26.47-24.09-38.15,0-20.24-6.6-40.49,20-23,45.72-1.17,22.05,23,34.16,37,25.66,0,0,19.85,6.59,24.14-11.78,13.23,9,20.63-1.63,21.8-6.53,6.22,9,14.39,2.86,16.54-.41"/><path class="cls-22" d="M286.53,228.46s-11.58,13.88,0,29.67,31.05,4.29,31.05,4.29,5.71,12.58,19.72,11.22,15.83-15,15.83-15,19.63,5.55,24.87-7.57-6.14-21-6.14-21,11.73-14.69,0-25.85-27.29-3.81-27.29-3.81-6-13.07-21.28-9"/><path class="cls-24" d="M308.76,222.47s28.64-22.91,42,2.45c7.78,14.74-6.23,28.85-17.23,27.67-10.1-1.09-17.55-9.16-14.95-18.14s17.13-7.89,17.65.54"/><path class="cls-22" d="M270.87,208.05s6.75,9.52,15.31,3.26,2.86-18.45-7.65-20.66-23.49,5.42-24.27,20.12,20,21.23,27.12,14.15c4.8,7.28,19.59,12.26,30.23,4.77S321,210,316.8,205.05c8.31-3.81,7.53-12.52,4.67-17.14s-10.38-10.78-16.09-11c1.82-11.9-6.34-21.15-16.53-23.06s-25.25,4.9-30.44,15.25c-7.52-8.71-18.65-3.12-21.76-.33a14.15,14.15,0,0,0-4.84,11.25"/></g></svg>