<svg xmlns="http://www.w3.org/2000/svg" viewBox="0 0 1000 1000"><defs><style>.cls-1{fill:#1c1c1c;opacity:0;}.cls-10,.cls-2,.cls-3,.cls-5,.cls-6,.cls-7,.cls-8,.cls-9{fill:#ccc;}.cls-10,.cls-2,.cls-5,.cls-6,.cls-7,.cls-8,.cls-9{stroke:#999;}.cls-2,.cls-5,.cls-7,.cls-9{stroke-miterlimit:10;}.cls-4{fill:#999;}.cls-5,.cls-6{stroke-width:8px;}.cls-10,.cls-6,.cls-8{stroke-linecap:round;stroke-linejoin:round;}.cls-7,.cls-8{stroke-width:10px;}.cls-10,.cls-9{stroke-width:12px;}</style></defs><g id="图层_2" data-name="图层 2"><rect class="cls-1" x="0.5" width="999" height="999"/><circle class="cls-2" cx="500" cy="500" r="405"/><path class="cls-3" d="M500,899a397.73,397.73,0,1,1,155.31-31.35A396.59,396.59,0,0,1,500,899Z"/><path class="cls-4" d="M500,107a391.71,391.71,0,1,1-153,30.88A390.51,390.51,0,0,1,500,107m0-12C276.32,95,95,276.32,95,500S276.32,905,500,905,905,723.68,905,500,723.68,95,500,95Z"/><path class="cls-5" d="M843.14,322.71h-48A61.26,61.26,0,0,0,760,363.58a19.17,19.17,0,0,1-1,26.27,61.06,61.06,0,0,0,22.73,37.36c5,2,19.53,6.07,37.37,6.07s32.36-4.12,37.35-6.07a61.1,61.1,0,0,0-13.34-104.5Z"/><circle class="cls-5" cx="807.09" cy="376.21" r="19.17"/><path class="cls-5" d="M853,376.21a19.18,19.18,0,0,0,25.2,18.2,61.42,61.42,0,0,0-1.86-36.91A19.17,19.17,0,0,0,853,376.21Z"/><path class="cls-5" d="M883.7,315.58c-3.56,0-13.37-5.8-16.94-9.36s-6.24-4.82-11.59-4.82H783.91c-5.35,0-8,1.25-11.6,4.82s-13.37,9.36-16.94,9.36a3.57,3.57,0,1,0,0,7.13H883.7A3.57,3.57,0,1,0,883.7,315.58Z"/><path class="cls-5" d="M869.24,276.88c-2.76,0-10.36-4.54-13.12-7.34s-4.84-3.77-9-3.77h-55.2c-4.15,0-6.22,1-9,3.77s-10.36,7.34-13.12,7.34a2.8,2.8,0,1,0,0,5.59h99.4A2.8,2.8,0,1,0,869.24,276.88Z"/><rect class="cls-5" x="792.82" y="282.59" width="53.5" height="18.72"/><path class="cls-6" d="M830.23,235.13a15.59,15.59,0,0,0-3.53-25.27V196.55H812.44v13.31a15.6,15.6,0,0,0-3.52,25.27c-9,2.81-15.21,9-15.21,16.25,0,5.84,4.07,11,10.35,14.27h31c6.28-3.26,10.34-8.43,10.34-14.27C845.43,244.15,839.19,237.94,830.23,235.13Z"/><path class="cls-5" d="M819.13,433.28c-17.84,0-32.38-4.12-37.37-6.07v10.55c8.83,3.54,26.67,6.22,37.37,6.22s28.53-2.68,37.36-6.22V427.21C851.5,429.16,837,433.28,819.13,433.28Z"/><path class="cls-5" d="M880.2,459.58c-5.79-8.47-23.71-21.82-23.71-21.82-8.83,3.54-26.66,6.22-37.36,6.22s-28.54-2.68-37.37-6.22c0,0-17.92,13.35-23.71,21.82s32.54,14.71,61.08,14.71S886,468.05,880.2,459.58Z"/><path class="cls-5" d="M889.57,463.59c-.66-5.44-7.22-8.85-13.18-8.61a39.23,39.23,0,0,1,3.81,4.6c5.8,8.47-32.54,14.71-61.07,14.71s-66.88-6.24-61.08-14.71a39.23,39.23,0,0,1,3.81-4.6c-6-.24-12.52,3.17-13.17,8.61-1.34,11.15,15.65,22.3,70.44,22.3S890.9,474.74,889.57,463.59Z"/><path class="cls-3" d="M500,899A398.65,398.65,0,0,1,101,500a405.29,405.29,0,0,1,2.08-41c20-1.86,40.56-2.77,62.83-2.77,92.87,0,195.85,16.43,304.88,33.82,24.47,3.9,49.77,7.93,75.3,11.84a660.18,660.18,0,0,0,99.39,7.84c90.86,0,172.73-20.75,249.94-63.37A403.15,403.15,0,0,1,899,500,398.65,398.65,0,0,1,500,899Z"/><path class="cls-4" d="M890.54,455.88A396.45,396.45,0,0,1,893,500a393,393,0,1,1-786,0c0-11.81.53-23.68,1.58-35.43,18.23-1.54,37.08-2.3,57.33-2.3,92.39,0,195.15,16.39,303.94,33.74,24.47,3.91,49.78,7.94,75.34,11.85a665.38,665.38,0,0,0,100.29,7.91c53.32,0,104.63-7.28,152.5-21.63a502.83,502.83,0,0,0,92.56-38.26m9.56-19c-57.32,32.85-139.32,66.89-254.62,66.89A649.76,649.76,0,0,1,547,496c-139.88-21.4-266.92-45.73-381.09-45.73a677.79,677.79,0,0,0-68.27,3.27A407.38,407.38,0,0,0,95,500c0,223.68,181.32,405,405,405S905,723.68,905,500a407.92,407.92,0,0,0-4.9-63.12Z"/><path class="cls-3" d="M500,899A399,399,0,0,1,103,539.84c44.39.14,93.86,4.87,147.08,14.07,67.08,11.59,140.45,30.36,218.08,55.79,108.5,35.55,201.38,53.57,276,53.57,51.29,0,94.05-8.16,130.17-24.91A399.18,399.18,0,0,1,500,899Z"/><path class="cls-4" d="M109.66,545.9c42.32.57,89.15,5.24,139.37,13.92,66.79,11.54,139.88,30.24,217.23,55.58,57.39,18.81,110.84,32.86,158.88,41.77,43.28,8,83.34,12.1,119,12.1,46.05,0,85.41-6.5,119.39-19.79A393.08,393.08,0,0,1,109.66,545.9m-8.72-12.06H96.4C113.6,741.69,287.73,905,500,905c179.57,0,331.84-116.87,384.91-278.69-30.57,16.79-74.34,31-140.73,31-66,0-154.25-14-274.18-53.27-170.31-55.8-290.47-70.16-369.06-70.16Z"/><path class="cls-7" d="M248.27,494.81H182.21A84.2,84.2,0,0,0,133.89,551a26.34,26.34,0,0,1-1.31,36.13,84,84,0,0,0,31.26,51.38c6.87,2.68,26.87,8.35,51.4,8.35s44.51-5.66,51.38-8.35a84,84,0,0,0-18.35-143.73Z"/><circle class="cls-7" cx="198.68" cy="568.4" r="26.37"/><path class="cls-7" d="M261.84,568.4a26.37,26.37,0,0,0,34.67,25A84.41,84.41,0,0,0,294,542.66a26.38,26.38,0,0,0-32.11,25.74Z"/><path class="cls-7" d="M304.06,485c-4.9,0-18.39-8-23.3-12.88s-8.58-6.62-15.94-6.62h-98c-7.35,0-11,1.72-15.94,6.62S132.45,485,127.55,485c-6.75,0-6.75,9.81,0,9.81H304.06C310.81,494.81,310.81,485,304.06,485Z"/><path class="cls-7" d="M284.17,431.77c-3.8,0-14.25-6.25-18.05-10.09s-6.65-5.19-12.35-5.19H177.84c-5.7,0-8.55,1.34-12.35,5.19s-14.25,10.09-18.05,10.09c-5.22,0-5.22,7.69,0,7.69H284.17C289.39,439.46,289.39,431.77,284.17,431.77Z"/><rect class="cls-7" x="179.06" y="439.62" width="73.58" height="25.75"/><path class="cls-8" d="M230.51,374.35a21.46,21.46,0,0,0-4.85-34.76V321.28H206v18.31a21.46,21.46,0,0,0-4.85,34.76c-12.32,3.85-20.91,12.41-20.91,22.35,0,8,5.59,15.15,14.23,19.62h42.68c8.64-4.47,14.23-11.6,14.23-19.62C251.42,386.76,242.84,378.2,230.51,374.35Z"/><path class="cls-7" d="M215.24,646.89c-24.53,0-44.54-5.67-51.4-8.35v14.51c12.15,4.88,36.68,8.56,51.4,8.56s39.24-3.68,51.39-8.56V638.54C259.77,641.22,239.77,646.89,215.24,646.89Z"/><path class="cls-7" d="M299.25,683.07c-8-11.65-32.62-30-32.62-30-12.15,4.88-36.68,8.56-51.39,8.56s-39.25-3.68-51.4-8.56c0,0-24.64,18.37-32.61,30s44.76,20.23,84,20.23S307.22,694.72,299.25,683.07Z"/><path class="cls-7" d="M312.12,688.59c-.9-7.5-9.92-12.18-18.11-11.85a55.55,55.55,0,0,1,5.24,6.33c8,11.65-44.77,20.23-84,20.23s-92-8.58-84-20.23a54.51,54.51,0,0,1,5.24-6.33c-8.2-.33-17.22,4.35-18.12,11.85-1.84,15.33,21.53,30.66,96.89,30.66S314,703.92,312.12,688.59Z"/><path class="cls-3" d="M500,899A399.06,399.06,0,0,1,173.62,729.57C210,708.6,267.35,685.2,342,685.2a372.92,372.92,0,0,1,52.19,3.74c36.1,5.13,73.54,11.93,109.74,18.52,75.83,13.78,154.23,28,226.26,28,37.28,0,70.17-3.74,100-11.39A398.65,398.65,0,0,1,500,899Z"/><path class="cls-4" d="M342,691.2a366.74,366.74,0,0,1,51.34,3.68c36,5.11,73.37,11.91,109.52,18.48,76.09,13.83,154.76,28.14,227.33,28.14,31.45,0,59.85-2.63,86-8A395.71,395.71,0,0,1,693.66,842.05a392.84,392.84,0,0,1-380.33,3.87A396.2,396.2,0,0,1,182.41,731.51C218.3,711.83,272.5,691.2,342,691.2m0-12c-80.07,0-140.55,26.5-177,48.48C237.9,834.71,360.74,905,500,905c145.13,0,272.43-76.34,343.94-191-35.58,11.18-73.84,15.55-113.78,15.55C624.33,729.5,506.59,698.85,395,683a376.72,376.72,0,0,0-53-3.8Z"/><path class="cls-3" d="M500,899A397.7,397.7,0,0,1,219.7,784c39.17-18.12,101.81-38,188-38,39.87,0,81.62,4.35,124.08,12.94l.11,0c102.66,18.87,181.93,29.25,241.58,31.62A397.66,397.66,0,0,1,500,899Z"/><path class="cls-4" d="M407.73,751.94c39.47,0,80.82,4.31,122.89,12.82l.11,0,.1,0c94.85,17.43,169.85,27.64,227.94,31a392.64,392.64,0,0,1-528.52-10c38.9-16.8,98-33.87,177.48-33.87m0-12c-94.74,0-161.32,24-198.24,42.24a405,405,0,0,0,578.31,2.76c-56.6-1.07-135.58-10-254.8-31.94-46.08-9.32-87.87-13.06-125.27-13.06Z"/><path class="cls-3" d="M500,899a397.22,397.22,0,0,1-210.34-59.89c39.95-16,83.67-23.72,133.25-23.72,47.27,0,100.65,7.21,158.66,21.44A351.5,351.5,0,0,0,665.17,847a314.41,314.41,0,0,0,35.37-2A396.8,396.8,0,0,1,500,899Z"/><path class="cls-4" d="M422.91,821.39c46.79,0,99.69,7.15,157.23,21.26a357.27,357.27,0,0,0,85,10.33c2.69,0,5.38,0,8.05-.1a393.73,393.73,0,0,1-369.83-12.52c36.11-12.75,75.45-19,119.52-19m0-12c-65.85,0-112,13.55-146.09,28.62a405.21,405.21,0,0,0,452.38-4.07c-18.05,4.4-39.94,7-64,7A347.41,347.41,0,0,1,583,831c-63.58-15.6-116.21-21.61-160.09-21.61Z"/><path class="cls-9" d="M646.28,518.91H542.88a131.82,131.82,0,0,0-75.64,88,41.26,41.26,0,0,1-2.05,56.56,131.48,131.48,0,0,0,48.94,80.43c10.74,4.2,42.06,13.07,80.45,13.07s69.68-8.86,80.43-13.07a131.53,131.53,0,0,0-28.73-225Z"/><circle class="cls-9" cx="568.66" cy="634.1" r="41.28"/><path class="cls-9" d="M667.53,634.1a41.27,41.27,0,0,0,54.27,39.18,132,132,0,0,0-4-79.46,41.27,41.27,0,0,0-50.26,40.28Z"/><path class="cls-9" d="M733.63,503.55c-7.68,0-28.8-12.47-36.48-20.15S683.71,473,672.19,473H518.75c-11.52,0-17.28,2.69-25,10.37s-28.8,20.15-36.48,20.15c-10.56,0-10.56,15.36,0,15.36H733.63C744.19,518.91,744.19,503.55,733.63,503.55Z"/><path class="cls-9" d="M702.49,420.23c-6,0-22.31-9.78-28.26-15.8s-10.41-8.13-19.33-8.13H536c-8.92,0-13.38,2.11-19.33,8.13s-22.31,15.8-28.26,15.8c-8.18,0-8.18,12,0,12h214C710.67,432.26,710.67,420.23,702.49,420.23Z"/><rect class="cls-9" x="537.95" y="432.52" width="115.19" height="40.32"/><path class="cls-10" d="M618.48,330.34a33.57,33.57,0,0,0-7.58-54.4V247.26H580.18v28.68a33.57,33.57,0,0,0-7.58,54.4c-19.3,6-32.73,19.42-32.73,35,0,12.56,8.74,23.71,22.27,30.71H629c13.52-7,22.27-18.15,22.27-30.71C651.22,349.76,637.78,336.37,618.48,330.34Z"/><path class="cls-9" d="M594.58,757c-38.4,0-69.71-8.87-80.45-13.07v22.71c19,7.64,57.41,13.4,80.45,13.4S656,774.25,675,766.61V743.9C664.29,748.1,633,757,594.58,757Z"/><path class="cls-9" d="M726.09,813.61c-12.48-18.24-51.06-47-51.06-47-19,7.64-57.41,13.4-80.45,13.4s-61.43-5.76-80.45-13.4c0,0-38.58,28.76-51.06,47s70.08,31.67,131.51,31.67S738.57,831.84,726.09,813.61Z"/><path class="cls-9" d="M746.25,822.24c-1.41-11.73-15.53-19-28.36-18.54a86.14,86.14,0,0,1,8.2,9.91c12.48,18.23-70.07,31.67-131.51,31.67s-144-13.44-131.51-31.67a85.28,85.28,0,0,1,8.21-9.91c-12.83-.51-27,6.81-28.36,18.54-2.88,24,33.69,48,151.66,48S749.13,846.24,746.25,822.24Z"/><path class="cls-2" d="M373.5,265A117.54,117.54,0,0,0,478.91,95.54,402.94,402.94,0,0,0,259.1,174.41,117.55,117.55,0,0,0,373.5,265Z"/><path class="cls-3" d="M373.5,260a111.29,111.29,0,0,1-70.37-24.72,113.1,113.1,0,0,1-38.37-58.83,397.71,397.71,0,0,1,211.08-75.73A111.45,111.45,0,0,1,486,147.5,112.63,112.63,0,0,1,373.5,260Z"/><path class="cls-4" d="M472.67,105.93A107.52,107.52,0,0,1,306.26,231.38a108.14,108.14,0,0,1-35.73-52.92,392.61,392.61,0,0,1,202.14-72.53m6.24-10.39A402.94,402.94,0,0,0,259.1,174.41,117.52,117.52,0,1,0,478.91,95.54Z"/></g></svg>