<svg xmlns="http://www.w3.org/2000/svg" xmlns:xlink="http://www.w3.org/1999/xlink" viewBox="0 0 1000 1000"><defs><style>.cls-1,.cls-11,.cls-7{fill:none;}.cls-19,.cls-2{fill:#b3d6ff;}.cls-10,.cls-11,.cls-12,.cls-13,.cls-14,.cls-15,.cls-16,.cls-17,.cls-18,.cls-2,.cls-23,.cls-24,.cls-26,.cls-5,.cls-6,.cls-7,.cls-8,.cls-9{stroke:#333;stroke-width:12px;}.cls-16,.cls-17,.cls-18,.cls-2,.cls-24,.cls-26,.cls-6,.cls-7,.cls-8,.cls-9{stroke-linecap:round;stroke-linejoin:round;}.cls-3{fill:url(#未命名的渐变_123);}.cls-4{clip-path:url(#clip-path);}.cls-5{fill:#368fe8;}.cls-10,.cls-11,.cls-12,.cls-13,.cls-14,.cls-15,.cls-23,.cls-5{stroke-miterlimit:10;}.cls-6{fill:#87bdf4;}.cls-8{fill:#c0e0ff;}.cls-9{fill:#4182b7;}.cls-10{fill:#61f0ff;}.cls-12{fill:#e2942d;}.cls-13{fill:#ffef27;}.cls-14{fill:#ff4881;}.cls-15{fill:#ff8dbb;}.cls-16{fill:#1e66d8;}.cls-17{fill:#fff;}.cls-18{fill:#cd94ff;}.cls-20{clip-path:url(#clip-path-2);}.cls-21{fill:#e9f3ff;}.cls-22{font-size:16.44px;font-family:AdobeSongStd-Light-GBpc-EUC-H, Adobe Song Std;}.cls-23{fill:#6b52ff;}.cls-24{fill:#556c87;}.cls-25{fill:#333;}.cls-26{fill:#cffaff;}</style><linearGradient id="未命名的渐变_123" x1="500" y1="907.69" x2="500" y2="92.31" gradientUnits="userSpaceOnUse"><stop offset="0" stop-color="#0082ff"/><stop offset="1" stop-color="#bffaff"/></linearGradient><clipPath id="clip-path"><circle class="cls-1" cx="500" cy="500" r="407.69"/></clipPath><clipPath id="clip-path-2"><path class="cls-2" d="M488.1,263.33c11.65,72.26,20.37,153.5,19.64,251.73a1543.91,1543.91,0,0,1-32.85,305.39h95.75a1756.16,1756.16,0,0,1-28.21-289.31c-1.39-96.23,5.27-176.82,15-250.39Z"/></clipPath></defs><g id="图层_3" data-name="图层 3"><circle class="cls-3" cx="500" cy="500" r="407.69"/><g class="cls-4"><path class="cls-5" d="M823.72,787.44H699.94A648.29,648.29,0,0,1,725.5,432.6h53.7a715.67,715.67,0,0,1,43.46,166.08A726.53,726.53,0,0,1,823.72,787.44Z"/><path class="cls-6" d="M730.61,543.45,708.8,491.06q10.26-23.65,20.54-47.32,11.46,23.65,22.93,47.32Z"/><path class="cls-6" d="M753.78,596.69,732,544.3,752.5,497Q764,520.64,775.43,544.3,764.6,570.49,753.78,596.69Z"/><path class="cls-7" d="M753.78,689.09Q742.86,662.9,732,636.71,742.23,613,752.5,589.38,764,613,775.43,636.71,764.6,662.9,753.78,689.09Z"/><path class="cls-7" d="M753.72,787.44,731.9,735.05q10.27-23.65,20.54-47.33,11.46,23.67,22.93,47.33Q764.54,761.24,753.72,787.44Z"/><path class="cls-8" d="M778.25,542.08l-21.82-52.39Q766.71,466,777,442.37,788.45,466,799.9,489.69,789.09,515.9,778.25,542.08Z"/><path class="cls-8" d="M730,639.92q-10.9-26.19-21.82-52.39,10.27-23.65,20.54-47.32l22.93,47.32Q740.78,613.74,730,639.92Z"/><path class="cls-9" d="M777.6,638.55q-10.92-26.19-21.82-52.39,10.26-23.65,20.54-47.32,11.46,23.65,22.93,47.32Q788.42,612.37,777.6,638.55Z"/><path class="cls-9" d="M731.33,739.63l-21.82-52.38,20.54-47.33q11.46,23.67,22.93,47.33Z"/><path class="cls-9" d="M779,738.27l-21.82-52.39q10.26-23.67,20.54-47.33,11.46,23.67,22.93,47.33Q789.79,712.07,779,738.27Z"/><rect class="cls-10" x="373.89" y="449.39" width="103.32" height="370.68"/><rect class="cls-10" x="386.34" y="409.55" width="76.59" height="39.83"/><rect class="cls-10" x="401.77" y="387.35" width="43.29" height="22.2"/><rect class="cls-10" x="413.17" y="349.76" width="21.65" height="37.6"/><path class="cls-11" d="M425.55,344.06h-2.13l-.49-47.88c0-.59,2.12-.59,2.12,0Z"/><rect class="cls-12" x="781.26" y="575.75" width="107" height="208"/><path class="cls-13" d="M871.36,799.6c-23.46-.36-46.92.35-70.38,0a509.81,509.81,0,0,1,11.73-193.07h48.42A840.86,840.86,0,0,1,873,726,705,705,0,0,1,871.36,799.6Z"/><line class="cls-11" x1="812.71" y1="606.53" x2="781.26" y2="575.75"/><line class="cls-11" x1="888.26" y1="575.75" x2="861.13" y2="606.53"/><rect class="cls-14" x="587.72" y="469.98" width="69.44" height="310.43"/><rect class="cls-15" x="607.45" y="540.52" width="28.12" height="246.92"/><line class="cls-11" x1="600.04" y1="375.53" x2="600.04" y2="463.94"/><line class="cls-11" x1="642.97" y1="375.51" x2="642.97" y2="470"/><rect class="cls-11" x="600.04" y="438.34" width="42.93" height="31.65"/><path class="cls-16" d="M264,807.23H195.2V413L264,450.85Z"/><path class="cls-17" d="M243.69,509.35l-31.58-7.21V474l31-12.05C243.27,479.51,243.57,491.77,243.69,509.35Z"/><path class="cls-18" d="M294,820.06H212.11V502.14L296.17,529Z"/><path class="cls-17" d="M208.11,820.06H187.57V581.45L208.11,570Z"/><path class="cls-7" d="M279.83,816.16H261.88V517.62c3.35,1.18,14.6,5,17.95,6.14Z"/><path class="cls-19" d="M488.1,263.33c11.65,72.26,20.37,153.5,19.64,251.73a1543.91,1543.91,0,0,1-32.85,305.39h95.75a1756.16,1756.16,0,0,1-28.21-289.31c-1.39-96.23,5.27-176.82,15-250.39Z"/><g class="cls-20"><polygon class="cls-21" points="488.1 263.33 540.82 276.58 506.1 432.6 488.1 263.33"/><path class="cls-21" d="M542.86,460.27s-27.21,229.2-53,278c-12.62,50.34-21.2,78.49-21.2,78.49h37.12s31.66-137.22,38.92-235S542.86,460.27,542.86,460.27Z"/></g><path class="cls-7" d="M488.1,263.33c11.65,72.26,20.37,153.5,19.64,251.73a1543.91,1543.91,0,0,1-32.85,305.39h95.75a1756.16,1756.16,0,0,1-28.21-289.31c-1.39-96.23,5.27-176.82,15-250.39Z"/><text class="cls-22" transform="translate(856.21 93.85)">底部做裁剪</text><polygon class="cls-23" points="543.36 808.89 582.07 755.81 642.89 731.48 712.56 731.48 766.74 764.66 898.34 770.19 866.27 840.96 562.16 840.96 543.36 808.89"/><path class="cls-7" d="M132.27,820.06a662.4,662.4,0,0,0,126.28-42.31,663.24,663.24,0,0,0,139.84-85.41"/><rect class="cls-24" x="132.27" y="820.06" width="202.51" height="26.41"/><path class="cls-17" d="M344.67,912.56c-29.49-35.24-28.67-127.75-.88-216.5,11.07-35.33,31.14-88.21,58.42-88.43,25.12-.21,43.25,44.8,57.54,80.3,32.89,81.66,34.68,168.12,7.85,217.52-2,3.67-7.47,13.26-11.05,12-9.53-3.39,16.28-76.43-2.9-153.28-7.44-29.79-27.08-82-51.67-81.92-23.73.07-43.75,48.79-51.21,82.94-16.67,76.32,14.42,148.51,3.49,153.48C353.12,919.18,350.44,919.46,344.67,912.56Z"/><path class="cls-7" d="M790.74,820.06A705.39,705.39,0,0,1,549.41,769.7,701.21,701.21,0,0,1,402,688.59"/><path class="cls-24" d="M352.7,846.47l438-1.85V820.06H346.53Z"/></g><path class="cls-25" d="M500,104.31A394.35,394.35,0,1,1,346,135.4a393.25,393.25,0,0,1,154-31.09m0-12C274.84,92.31,92.31,274.84,92.31,500S274.84,907.69,500,907.69,907.69,725.16,907.69,500,725.16,92.31,500,92.31Z"/><rect class="cls-26" x="511.14" y="201.79" width="32.22" height="22.34"/><rect class="cls-26" x="518.31" y="144.81" width="17.08" height="55.19"/><path class="cls-26" d="M535.39,274.34l-17.08-7.72v-36h17.08Z"/><line class="cls-7" x1="526.72" y1="139.43" x2="526.72" y2="65.53"/></g></svg>