<svg xmlns="http://www.w3.org/2000/svg" viewBox="0 0 1000 1000"><defs><style>.cls-1{fill:#fff;}</style></defs><g id="图层_19" data-name="图层 19"><path class="cls-1" d="M779.86,535.19l-81.44-47V395.74a18.49,18.49,0,0,0-9.26-16L509,275.69a18.52,18.52,0,0,0-18.5,0l-180.16,104a18.49,18.49,0,0,0-9.26,16v96.9l-49.35,28.5a12.33,12.33,0,0,0-6.17,10.68v71.6a12.35,12.35,0,0,0,6.17,10.69l62,35.8a12.36,12.36,0,0,0,12.34,0l18.21-10.52L490.5,723.81h0c.25.15.51.28.76.41l.32.17.72.33.39.17.74.28.4.15.74.22.42.13.83.19.34.08.86.14.33,0c.39,0,.78.09,1.16.11h0c.4,0,.8,0,1.2,0s.8,0,1.2,0l.45,0,.75-.07.35-.06.83-.13.44-.1.74-.18.5-.14.66-.21.58-.21.56-.21.64-.29.47-.22c.23-.11.46-.23.68-.36l.4-.21h0l.16-.09L590,677.05l81,46.76a18.51,18.51,0,0,0,18.51,0l90.39-52.19a18.52,18.52,0,0,0,9.25-16V551.22A18.53,18.53,0,0,0,779.86,535.19ZM608.34,583.28l53.37,30.81v61.63l-53.37-30.81ZM680.22,582l-53.37-30.81,53.37-30.81,53.36,30.81ZM499.75,313.1l143.14,82.64L506.5,474.48l-6.75,3.9L356.61,395.74ZM332.24,617.85v-43.1l37.33-21.55v43.1ZM319.9,553.37l-37.33-21.55,37.33-21.55,37.33,21.55Zm-49.66-.17,37.32,21.55v43.1L270.24,596.3Zm117.84,60.91a12.35,12.35,0,0,0,6.17-10.69v-71.6a12.33,12.33,0,0,0-6.17-10.68l-50-28.86V427.79l143.14,82.65V675.72L381.3,618Zm310.64,61.61V614.09l53.37-30.81v61.63Z"/></g></svg>