<svg xmlns="http://www.w3.org/2000/svg" viewBox="0 0 100 100"><defs><style>.cls-1,.cls-2{fill:#fff;}.cls-2{opacity:0.6;}</style></defs><g id="图层_21" data-name="图层 21"><path class="cls-1" d="M85.86,20.32,57.12,3.73a14.26,14.26,0,0,0-14.24,0L14.14,20.32A14.29,14.29,0,0,0,7,32.65V65.84a14.27,14.27,0,0,0,7.12,12.33l28.74,16.6a14.29,14.29,0,0,0,14.24,0l28.74-16.6A14.27,14.27,0,0,0,93,65.84V32.65A14.29,14.29,0,0,0,85.86,20.32Zm-38.48-8.8a5.25,5.25,0,0,1,5.24,0L79.48,27,50,44.05,20.52,27ZM18.64,70.38A5.25,5.25,0,0,1,16,65.84v-31l29.48,17v34Zm62.72,0L54.5,85.89v-34L84,34.82v31A5.25,5.25,0,0,1,81.36,70.38Z"/><path class="cls-2" d="M18.64,70.38A5.25,5.25,0,0,1,16,65.84v-31l29.48,17v34Z"/></g></svg>