<?xml version="1.0" encoding="utf-8"?>
<!-- Generator: Adobe Illustrator 26.0.1, SVG Export Plug-In . SVG Version: 6.00 Build 0)  -->
<svg version="1.1" id="图层_1" xmlns="http://www.w3.org/2000/svg" xmlns:xlink="http://www.w3.org/1999/xlink" x="0px" y="0px"
	 viewBox="0 0 100 100" style="enable-background:new 0 0 100 100;" xml:space="preserve">
<style type="text/css">
	.st0{fill:#FFFFFF;}
</style>
<g id="图层_18">
	<path class="st0" d="M97.7,62.3c0-0.2,0-0.4-0.1-0.5c0-0.1,0-0.1,0-0.2c-0.1-0.2-0.2-0.5-0.3-0.7l0,0c-0.1-0.2-0.3-0.4-0.4-0.6
		l-0.1-0.1c-0.1-0.1-0.3-0.2-0.4-0.3l-0.1-0.1l-7-4V29.7c0-1.4-0.8-2.7-2-3.5L52,5.9c-1.2-0.7-2.8-0.7-4,0L12.8,26.2
		c-1.2,0.7-2,2-2,3.5v18l-9,5.2l-0.1,0.1c-0.2,0.1-0.3,0.2-0.4,0.3c-0.1,0-0.1,0.1-0.1,0.1C1,53.6,0.8,53.8,0.7,54l0,0
		c-0.1,0.2-0.2,0.4-0.3,0.7c0,0.1,0,0.1-0.1,0.2c0,0.2-0.1,0.4-0.1,0.5c0,0,0,0.1,0,0.1V70c0,1.1,0.6,2.1,1.5,2.6l12.6,7.2h0.1
		c0.2,0.1,0.3,0.2,0.5,0.2h0.2c0.5,0.1,0.9,0.1,1.4,0c0.1,0,0.1,0,0.2-0.1c0.2,0,0.3-0.1,0.5-0.2h0.1l2.9-1.7l27.7,16
		c1.2,0.7,2.8,0.7,4,0l10.3-5.9l13.2,7.6h0.1c0.2,0.1,0.3,0.2,0.5,0.2l0.2,0.1c0.2,0.1,0.5,0.1,0.7,0.1c0.2,0,0.5,0,0.7-0.1l0.2-0.1
		c0.2-0.1,0.3-0.1,0.5-0.2h0.1l17.8-10.2c0.9-0.5,1.5-1.5,1.5-2.6V62.4C97.7,62.4,97.7,62.4,97.7,62.3z M62.2,67.6l11.8,6.8V88
		l-11.8-6.8V67.6z M76.9,69.2l-11.8-6.8l11.8-6.8l11.8,6.8L76.9,69.2z M50,14l27.2,15.7L50,45.4L22.8,29.7L50,14z M18.9,72v-7.6
		l6.6-3.8v7.6L18.9,72z M15.9,59.2l-6.5-3.8l6.6-3.8l6.6,3.8L15.9,59.2z M6.3,60.6l6.6,3.8V72l-6.6-3.8V60.6z M29.9,72.5
		c0.9-0.5,1.5-1.5,1.5-2.6V55.4c0,0,0-0.1,0-0.1c0-0.2,0-0.4-0.1-0.5c0-0.1,0-0.1,0-0.2c-0.1-0.2-0.2-0.5-0.3-0.7l0,0
		c-0.1-0.2-0.3-0.4-0.4-0.6l-0.1-0.1c-0.1-0.1-0.3-0.2-0.4-0.3c0,0-0.1-0.1-0.1-0.1l-11.2-6.4v-9.8L46,52.3v31.4L28.3,73.5
		L29.9,72.5z M79.9,88V74.4l11.8-6.8v13.6L79.9,88z"/>
</g>
</svg>
