<svg xmlns="http://www.w3.org/2000/svg" xmlns:xlink="http://www.w3.org/1999/xlink" viewBox="0 0 1000 1000"><defs><style>.cls-1,.cls-11{fill:#ffe1f4;}.cls-1,.cls-14,.cls-15,.cls-17,.cls-2,.cls-3,.cls-4,.cls-5,.cls-6,.cls-7,.cls-8{stroke:#e06c99;stroke-linecap:round;stroke-linejoin:round;stroke-width:8px;}.cls-2{fill:#ff859f;}.cls-3{fill:#ff80ae;}.cls-4{fill:#ea5c8f;}.cls-5{fill:#ffa4c5;}.cls-6{fill:#ffc0e4;}.cls-7{fill:#f970a8;}.cls-8{fill:#ffc5ec;}.cls-9{fill:#ffc0e1;}.cls-10{fill:#fff;}.cls-12{clip-path:url(#clip-path);}.cls-13{fill:#ffc2eb;}.cls-14{fill:none;}.cls-15{fill:#ea75a5;}.cls-16{clip-path:url(#clip-path-2);}.cls-17{fill:#d36c9b;}</style><clipPath id="clip-path"><path class="cls-1" d="M743.66,779.52c0-16,13-36.49,29-45.73,8.59-5,16.31-5.67,21.62-2.8l.05-.07,19.22,11c-5.25-2.21-12.5-1.27-20.5,3.35-16,9.24-29,29.72-29,45.73,0,7.16,2.6,12.2,6.89,14.78l0,.06-20.37-11.48,0-.05C746.26,791.73,743.66,786.68,743.66,779.52Z"/></clipPath><clipPath id="clip-path-2"><path class="cls-1" d="M748.35,803.79c0-25.13,20.37-57.27,45.5-71.77,13.48-7.79,25.59-8.91,33.92-4.4l.08-.1L858,744.77c-8.23-3.48-19.6-2-32.16,5.25-25.13,14.5-45.5,46.64-45.5,71.77,0,11.23,4.07,19.15,10.82,23.19l-.07.09-32-18,0-.07C752.43,823,748.35,815,748.35,803.79Z"/></clipPath></defs><g id="图层_5" data-name="图层 5"><path class="cls-2" d="M538.77,680.26V427L388.56,340.27V196.68L818.2,444.74V588.33L668.33,501.8V755.06Z"/><path class="cls-2" d="M538.77,680.26s21.35-59.92,81.45-87.78c78.43-36.34,148.25-32.48,198-147.74,0,59.26-35.16,157.72-97.55,192.7-63.13,35.38-52.5,105.29-52.32,117.62Z"/><polygon class="cls-3" points="557.31 565.54 668.47 501.8 668.47 755.06 557.31 818.81 557.31 565.54"/><path class="cls-4" d="M557.31,818.81l111-63.75s-14.63-79.37,52.32-117.62c13.39-7.66,42.08-27.74,61.09-70.07l-111,63.74s-25.7,47.12-65.87,71S557.31,779.61,557.31,818.81Z"/><path class="cls-5" d="M427.75,744V490.74L277.53,404V260.43L707.17,508.48V652.07L557.31,565.55V818.81Z"/><path class="cls-6" d="M427.75,744s21.35-59.93,81.45-87.78c78.42-36.34,148.24-32.48,198-147.75,0,59.26-36.62,153-102.33,193.66-52.6,32.52-47.53,116.67-47.53,116.67Z"/><polygon class="cls-1" points="277.53 260.43 388.7 196.68 818.35 444.73 707.17 508.48 277.53 260.43"/><polygon class="cls-1" points="324.37 260.28 386.9 224.42 628.56 363.95 566.03 399.81 324.37 260.28"/><polygon class="cls-7" points="350.16 275.18 566.03 399.81 602.76 378.74 386.9 254.11 350.16 275.18"/><polygon class="cls-3" points="817.96 588.33 707.17 652.07 707.17 508.48 817.96 444.74 817.96 588.33"/><polygon class="cls-5" points="386.9 224.42 386.9 254.11 602.76 378.74 628.56 363.95 386.9 224.42"/><polygon class="cls-3" points="386.9 224.42 324.37 260.28 350.16 275.18 386.9 254.11 386.9 224.42"/><polygon class="cls-5" points="470.55 748.64 406.03 711.39 406.03 689.61 470.55 726.86 470.55 748.64"/><polygon class="cls-5" points="448.99 783.01 384.47 745.76 384.47 723.98 448.99 761.23 448.99 783.01"/><polygon class="cls-1" points="448.99 761.22 470.55 748.64 406.03 711.39 384.47 723.98 448.99 761.22"/><polygon class="cls-1" points="470.55 726.86 492.11 714.28 427.59 677.03 406.03 689.61 470.55 726.86"/><polygon class="cls-5" points="427.43 817.37 362.91 780.12 362.91 758.34 427.43 795.59 427.43 817.37"/><polygon class="cls-1" points="427.43 795.59 448.99 783 384.47 745.76 362.91 758.34 427.43 795.59"/><polygon class="cls-3" points="427.43 795.59 427.43 817.37 491.89 779.57 492.11 714.28 470.55 726.86 470.55 748.64 448.99 761.22 448.99 783 427.43 795.59 427.43 795.59"/><path class="cls-1" d="M266.09,553.41l-.33-.49-.38-.54-.45-.61-.29-.4-.51-.65-.26-.33c-.17-.22-.35-.43-.53-.65l-.26-.32-.53-.61-.3-.34-.51-.55-.35-.37c-.15-.17-.31-.32-.46-.48l-.42-.42-.42-.41-.47-.46-.37-.33-.54-.49-.33-.28-.59-.5-.31-.25-.61-.49-.32-.24-.61-.45c-.12-.09-.24-.18-.37-.26l-.56-.4-.49-.32-.45-.29-.94-.56,0,0h0c-.31-.18-.62-.35-.94-.51l-.45-.23-.49-.25-.56-.26-.37-.16-.61-.25-.32-.13-.61-.22-.31-.1-.58-.18-.34-.1-.54-.14-.37-.09-.47-.09-.42-.08-.42-.06-.46-.06-.35,0-.51,0h-.82l-.27,0a4.58,4.58,0,0,0-.53,0l-.26,0-.51.07-.29.06c-.15,0-.3,0-.45.09l-.38.11-.33.09-.7.26-47.11,19.92c-7.55,3.19-7.55,15.44,0,27.35s19.8,19,27.36,15.79l14.09-6v37.6c0,10.68,8.66,24.34,19.34,30.51h0c10.68,6.17,19.34,2.51,19.34-8.17V618.11l14.1,22.23c7.55,11.92,19.8,19,27.35,15.8s7.55-15.44,0-27.36l-47.11-74.31C266.56,554.11,266.33,553.76,266.09,553.41Z"/><path class="cls-3" d="M272.45,618.11l-58,33v37.61c0,5.12-2.23,8.47-3.78,9.3,16.91-9.35,55.85-31.68,57.15-32.43s4.63-3,4.63-9.87Z"/><path class="cls-5" d="M208.09,586.41l-.33-.49-.38-.54-.45-.61-.29-.4-.51-.65-.26-.33c-.17-.22-.35-.43-.53-.65l-.26-.32-.53-.61-.3-.34-.51-.55-.35-.37c-.15-.17-.31-.32-.46-.48l-.42-.42-.42-.41-.47-.46-.37-.33-.54-.49-.33-.28-.59-.5-.31-.25-.61-.49-.32-.24-.61-.45c-.12-.09-.24-.18-.37-.26l-.56-.4-.49-.32-.45-.29-.94-.56,0,0h0c-.31-.18-.62-.35-.94-.51l-.45-.23-.49-.25-.56-.26-.37-.16-.61-.25-.32-.13-.61-.22-.31-.1-.58-.18-.34-.1-.54-.14-.37-.09-.47-.09-.42-.08-.42-.06-.46-.06-.35,0-.51,0h-.82l-.27,0a4.58,4.58,0,0,0-.53,0l-.26,0-.51.07-.29.06c-.15,0-.3,0-.45.09l-.38.11-.33.09-.7.26-47.11,19.92c-7.55,3.19-7.55,15.44,0,27.35s19.8,19,27.36,15.79l14.09-6v37.6c0,10.68,8.66,24.34,19.34,30.51h0c10.68,6.17,19.34,2.51,19.34-8.17V651.11l14.1,22.23c7.55,11.92,19.8,19,27.35,15.8s7.55-15.44,0-27.36l-47.11-74.31C208.56,587.11,208.33,586.76,208.09,586.41Z"/><path class="cls-1" d="M181.43,571.67c-7.3,3.17-48.36,20.57-48.36,20.57l59.25-33.65c10.62-4.49,39.42-17.09,47.11-19.92s19.63,3,28.16,17.07c0,0-51.17,29.47-57.81,33.28C201.13,574.84,188.74,568.5,181.43,571.67Z"/><path class="cls-8" d="M267.59,555.74s37.08,59,46.31,73,6.23,24.06,1.26,26.7c-6.1,3.23-48.49,27.95-59.26,33.66,12.46-7.59,1.13-25.22.68-26.26S209.78,589,209.78,589Z"/><path class="cls-1" d="M827.49,203.82a51.89,51.89,0,1,0-90.28,34.91,2.79,2.79,0,0,0,.28.34c3.1,3.21,14.46,14.35,14.46,22v1.61c0,3.75,3,5.26,6.78,6.78a48.18,48.18,0,0,0,33.74,0c3.73-1.52,6.78-3,6.78-6.78v-1.61c0-7.63,11.37-18.77,14.46-22a2.79,2.79,0,0,0,.28-.34A51.7,51.7,0,0,0,827.49,203.82Z"/><path class="cls-5" d="M793.91,289.28s-9.92,3.05-18.18,3.05c-7.76,0-18.44-3.05-18.44-3.05-3-.76-5.34-2.39-5.34-5.34h0c0-2.95,2.29-6.1,5.34-5.34,0,0,11.28,3,18.23,3s18.39-3,18.39-3c3.06-.76,5.34,2.39,5.34,5.34h0C799.25,286.89,797,288.52,793.91,289.28Z"/><path class="cls-5" d="M793.91,279.36s-9.92,3.05-18.18,3.05c-7.76,0-18.44-3.05-18.44-3.05C753.47,278.6,752,277,752,274h0c0-2.95,2.29-6.1,5.34-5.34,0,0,11.28,3.05,18.23,3.05s18.39-3.05,18.39-3.05c3.06-.76,5.34,2.39,5.34,5.34h0C799.25,277,797.73,278.6,793.91,279.36Z"/><path class="cls-3" d="M755,288.52c0,5.9,4.78,12.21,10.68,12.21h2.44a7.64,7.64,0,0,0,15,0h2.44c5.9,0,10.68-6.31,10.68-12.21,0,0-11,3.81-20.6,3.81S755,288.52,755,288.52Z"/><path class="cls-9" d="M801.66,163.88c12,13,20.71,33.82,8,55-9,15-17,20-20,27s-1,11-6,14-25,1-29-4c1,5,0,7,2,9,1,1,15,5,25,3s14-3,14-6,1-9,8-17,17-18,19-32S823.66,178.88,801.66,163.88Z"/><path class="cls-10" d="M741.66,192.87a4.18,4.18,0,0,1-.92-.1,4,4,0,0,1-3-4.79,36.58,36.58,0,0,1,19.1-22.67,4,4,0,1,1,3.58,7.15,28.53,28.53,0,0,0-14.89,17.34A4,4,0,0,1,741.66,192.87Z"/><path class="cls-5" d="M743.66,779.52c0,16,13,21.5,29,12.25s29-29.71,29-45.73-13-21.49-29-12.25S743.66,763.51,743.66,779.52Zm15.61-9c0-7.39,6-16.84,13.38-21.11S786,747.67,786,755.06s-6,16.84-13.38,21.1S759.27,777.9,759.27,770.51Z"/><path class="cls-3" d="M764.05,791c0,16,13,21.5,29,12.25s29-29.72,29-45.73-13-21.49-29-12.25S764.05,775,764.05,791Zm15.61-9c0-7.39,6-16.84,13.38-21.11s13.38-1.73,13.38,5.66-6,16.84-13.38,21.1S779.66,789.37,779.66,782Z"/><path class="cls-11" d="M743.66,779.52c0-16,13-36.49,29-45.73,8.59-5,16.31-5.67,21.62-2.8l.05-.07,19.22,11c-5.25-2.21-12.5-1.27-20.5,3.35-16,9.24-29,29.72-29,45.73,0,7.16,2.6,12.2,6.89,14.78l0,.06-20.37-11.48,0-.05C746.26,791.73,743.66,786.68,743.66,779.52Z"/><g class="cls-12"><polygon class="cls-13" points="764.05 790.99 743.66 779.52 743.66 800.38 764.37 811.85 764.05 790.99"/><polygon class="cls-13" points="793.04 745.26 772.65 733.79 790.49 724.55 813.43 737.29 793.04 745.26"/></g><path class="cls-14" d="M743.66,779.52c0-16,13-36.49,29-45.73,8.59-5,16.31-5.67,21.62-2.8l.05-.07,19.22,11c-5.25-2.21-12.5-1.27-20.5,3.35-16,9.24-29,29.72-29,45.73,0,7.16,2.6,12.2,6.89,14.78l0,.06-20.37-11.48,0-.05C746.26,791.73,743.66,786.68,743.66,779.52Z"/><ellipse class="cls-15" cx="793.04" cy="774.25" rx="17.79" ry="10.06" transform="translate(-302.42 942.62) rotate(-53.05)"/><path class="cls-5" d="M748.35,803.79c0,25.13,20.37,33.73,45.5,19.23s45.5-46.64,45.5-71.77S819,717.51,793.85,732,748.35,778.66,748.35,803.79Zm24.5-14.15c0-11.6,9.4-26.43,21-33.12s21-2.73,21,8.87-9.41,26.43-21,33.13S772.85,801.24,772.85,789.64Z"/><path class="cls-3" d="M780.35,821.79c0,25.13,20.37,33.73,45.5,19.23s45.5-46.64,45.5-71.77S851,735.51,825.85,750,780.35,796.66,780.35,821.79Zm24.5-14.15c0-11.6,9.4-26.43,21-33.12s21-2.73,21,8.87-9.41,26.43-21,33.13S804.85,819.24,804.85,807.64Z"/><path class="cls-11" d="M748.35,803.79c0-25.13,20.37-57.27,45.5-71.77,13.48-7.79,25.59-8.91,33.92-4.4l.08-.1L858,744.77c-8.23-3.48-19.6-2-32.16,5.25-25.13,14.5-45.5,46.64-45.5,71.77,0,11.23,4.07,19.15,10.82,23.19l-.07.09-32-18,0-.07C752.43,823,748.35,815,748.35,803.79Z"/><g class="cls-16"><polygon class="cls-13" points="780.35 821.79 748.35 803.79 748.35 836.52 780.85 854.52 780.35 821.79"/><polygon class="cls-13" points="825.85 750.02 793.85 732.02 821.85 717.52 857.85 737.52 825.85 750.02"/></g><path class="cls-14" d="M748.35,803.79c0-25.13,20.37-57.27,45.5-71.77,13.48-7.79,25.59-8.91,33.92-4.4l.08-.1L858,744.77c-8.23-3.48-19.6-2-32.16,5.25-25.13,14.5-45.5,46.64-45.5,71.77,0,11.23,4.07,19.15,10.82,23.19l-.07.09-32-18,0-.07C752.43,823,748.35,815,748.35,803.79Z"/><ellipse class="cls-15" cx="825.85" cy="795.52" rx="27.92" ry="15.8" transform="translate(-306.33 977.32) rotate(-53.05)"/><path class="cls-17" d="M804.85,807.64c0,.42,0,.82,0,1.21,2.84.31,6.27-.53,10-2.67,9.75-5.63,17.66-18.11,17.66-27.86a12.31,12.31,0,0,0-1.44-6.16,26.63,26.63,0,0,0-5.22,2.36C814.25,781.21,804.85,796,804.85,807.64Z"/></g></svg>