<svg id="图层_1" data-name="图层 1" xmlns="http://www.w3.org/2000/svg" viewBox="0 0 1000 1000"><defs><style>.cls-1,.cls-10,.cls-11{fill:#ccc;}.cls-2{fill:#999;}.cls-3{fill:#eee;}.cls-4{fill:#d1d1d1;}.cls-5{fill:#c1c1c1;}.cls-6{fill:#b7b7b7;}.cls-7{fill:#afafaf;}.cls-8{fill:#a8a8a8;}.cls-9{fill:#9e9e9e;}.cls-10,.cls-11{stroke:#999;stroke-miterlimit:10;}.cls-10{stroke-width:7px;}.cls-11{stroke-width:6px;}</style></defs><ellipse class="cls-1" cx="500" cy="500" rx="404.5" ry="404.56"/><path class="cls-2" d="M500,107.44A392.67,392.67,0,0,1,652.77,861.71,392.65,392.65,0,0,1,347.23,138.29,389.91,389.91,0,0,1,500,107.44m0-12C276.6,95.44,95.5,276.57,95.5,500S276.6,904.56,500,904.56,904.5,723.43,904.5,500,723.4,95.44,500,95.44Z"/><ellipse class="cls-1" cx="500" cy="500" rx="278.96" ry="279"/><path class="cls-3" d="M491.88,246.64S510,323,470,329c-41,6.15-69-22.78-83-56l-25,15a98.77,98.77,0,0,0,15.81,26.32A10.58,10.58,0,0,1,371,331.55c-35.78,4.8-73.12,31.23-97.95,96.45-30.33,85,13,159-2,182,5.34,9.16,23,37,23,37s21.54-36.38,28-45c12-16,23-5,54-16s45-28,52-22,13,27.2,37,56c5,6,5,12-5,30s-24.34,53.1-22.67,95.55C445.67,748.45,468,752,468,752s-5-36,2-65c5.67-23.49,10-32,15-38s10.62-12.74,28-11c18.68,1.87,28.64,9,62.47-15.37a8.77,8.77,0,0,1,13,3.17C595.92,641,595.5,658.15,593,669c-3,13-1,37.24,19,58,11-6,25.1-13.91,25.1-13.91S615,689,615,667c0-19.44,0-44.35-9-64.38a13.33,13.33,0,0,1,2.47-14.51c4.13-4.45,9.3-10.13,12.5-14.11,6-7.5,26.25-20.5,35-23s33.68-5,51,4,27,13,27,13,8.78-26.5,10-31c-20-5-43.73-9.36-40-33,6-25,.86-45.49-4-62-5-17-27.56-6.22-26,4,4,12,11,39.84,7,56-4,16-19,23-26,23-8,0-24-7-30-31s-8.78-34.84-24-64c-12-23-15-44-12-58s18-21,32-14,20,24,50,29,49.73-11.42,49.73-11.42S710.13,358,705,351c-9,8-30.52,15.17-44,4-18-17-34-28-66-34-31.73-5.95-63.4-5-69-5-15,0-12.83-9.45-10-25,2-11,0-33-5-44C504,246,491.88,246.64,491.88,246.64Z"/><path class="cls-3" d="M300,616c5,7,54.42,81.62,145,84,38,1,59,14,94,16a88.73,88.73,0,0,0,79-39c24-36,42-54,70-75,23.26-17.44,44-64,43-103s-21.15-91.24-60-117h23c12,10,54.45,53,55.22,118S715.65,599.11,697,617c-31,24-47,49-65,74s-59.7,46-94,42c-52-6-69.58-15.69-100-13-44-1-107.35-37.58-146-91Z"/><path class="cls-1" d="M327,383c20.38-23.51,55-42.09,102-26s51,70,47,85-17,68-45,90.5S369,571,342,567c-20-3-52-32-54-62S288,428,327,383Z"/><path class="cls-1" d="M284.69,551c3.38,13.66,7,30,8.29,41.46a4.55,4.55,0,0,0,8.09,2.31c3.35-4.23,6.81-8.58,9.67-12.16a8.29,8.29,0,0,0-1.13-11.49,139.5,139.5,0,0,1-20.49-22.18A2.49,2.49,0,0,0,284.69,551Z"/><path class="cls-1" d="M557,340c-13-7-29-5-43-2-13,2.78-39,16-31,36,8.11,20.28,25,44,16,87s-34.64,49.94-41,86c-6,34,22,62,37,67s40,8,73-19c32.66-26.72,39-43,41-73,1.93-28.94-16-59-24-80s-19-43-16-63C571.56,361.93,569.82,346.9,557,340Z"/><circle class="cls-1" cx="383" cy="478" r="53"/><path class="cls-2" d="M383,430a48,48,0,1,1-48,48,48.05,48.05,0,0,1,48-48m0-10a58,58,0,1,0,58,58,58,58,0,0,0-58-58Z"/><path class="cls-2" d="M564.5,522a3.5,3.5,0,0,1,0,7h-4a3.5,3.5,0,0,1,0,7h-3a3.5,3.5,0,0,1,0,7h-2a3.5,3.5,0,0,1,0,7h-4a3.5,3.5,0,0,1,0,7h-3a3.5,3.5,0,0,1,0,7h-21a3.5,3.5,0,0,1,0-7h-3a3.5,3.5,0,0,1,0-7h-4a3.5,3.5,0,0,1,0-7h-2a3.5,3.5,0,0,1,0-7h-3a3.5,3.5,0,0,1,0-7h-4a3.5,3.5,0,0,1,0-7h53m0-7h-53a10.49,10.49,0,0,0-6.42,18.8,10.46,10.46,0,0,0,2.93,6.05,10.44,10.44,0,0,0,2,5.85c0,.26,0,.53,0,.8a10.49,10.49,0,0,0,4.08,8.3,10.46,10.46,0,0,0,2.93,6.05A10.51,10.51,0,0,0,527.5,571h21A10.51,10.51,0,0,0,559,560.85a10.46,10.46,0,0,0,2.93-6.05,10.49,10.49,0,0,0,4.08-8.3c0-.27,0-.54,0-.8a10.44,10.44,0,0,0,2-5.85,10.46,10.46,0,0,0,2.93-6.05A10.49,10.49,0,0,0,564.5,515Z"/><rect class="cls-4" x="508" y="522" width="60" height="7" rx="3.5"/><rect class="cls-5" x="512" y="529" width="52" height="7" rx="3.5"/><rect class="cls-6" x="515" y="536" width="46" height="7" rx="3.5"/><rect class="cls-7" x="517" y="543" width="42" height="7" rx="3.5"/><rect class="cls-8" x="521" y="550" width="34" height="7" rx="3.5"/><rect class="cls-9" x="524" y="557" width="28" height="7" rx="3.5"/><path class="cls-10" d="M430,557.2l-3.75,4.38a3.16,3.16,0,0,1-4.56.24l-5.08-4.77a3.16,3.16,0,0,0-4.36,0l-22.47,21.84a3.18,3.18,0,0,0-.92,1.82l-3.55,24.82a3.13,3.13,0,0,0,.72,2.49l11.16,13.2a3.15,3.15,0,0,0,4.64.19l4.47-4.46a3.17,3.17,0,0,1,4.44,0l4.84,4.73a3.16,3.16,0,0,0,4.45,0l20.05-20.23a3.15,3.15,0,0,0,0-4.46l-5.21-5.17a3.16,3.16,0,0,1,.11-4.59l4.79-4.29a3.16,3.16,0,0,0,.08-4.64l-3.32-3.17a3.15,3.15,0,0,1-.36-4.15l4.27-5.82a3.15,3.15,0,0,0-.68-4.42l-5.48-4A3.16,3.16,0,0,0,430,557.2Z"/><path class="cls-10" d="M625.59,491.53l35.64,3.74a2.6,2.6,0,0,1,2.33,2.58v8.26a2.59,2.59,0,0,0,2.4,2.59l5.37.39a2.59,2.59,0,0,1,2.36,3l-2.35,14.12a2.6,2.6,0,0,1-2.56,2.17h-3.15a2.59,2.59,0,0,0-2.58,2.82l.23,2.57a2.59,2.59,0,0,1-2.82,2.81l-29.3-2.66a2.6,2.6,0,0,1-2.34-2.84l.56-5.67a2.59,2.59,0,0,0-2.07-2.8l-5.91-1.18a2.6,2.6,0,0,1-2.06-2.89l3.41-24.79A2.59,2.59,0,0,1,625.59,491.53Z"/><path class="cls-10" d="M681.94,448.74c2.45,10.24,8.6,39.72,5.51,65.88a3.48,3.48,0,0,0,3,3.85c3.17.42,6.38.81,8.77,1.09a3.48,3.48,0,0,0,3.89-3.38c.24-11.68.38-47.55-6.22-70.32a3.48,3.48,0,0,0-3.81-2.47l-8.21,1.09A3.49,3.49,0,0,0,681.94,448.74Z"/><path class="cls-11" d="M472.15,280.37l8.62-1.72a3.26,3.26,0,0,1,3.84,2.59l1.8,9.6a3.26,3.26,0,0,1-2.56,3.79l-8.62,1.72a3.26,3.26,0,0,1-3.84-2.59l-1.8-9.6A3.26,3.26,0,0,1,472.15,280.37Z"/><path class="cls-11" d="M604.15,289.71l-2.08-.94a3.27,3.27,0,0,0-4.24,1.48l-2.05,4a3.25,3.25,0,0,0,1.26,4.3l15.31,8.91a3.26,3.26,0,0,0,4.35-1l2.21-3.31a3.26,3.26,0,0,0-1.32-4.75h0a3.25,3.25,0,0,1-1.55-4.34l1.79-3.79a3.25,3.25,0,0,0-1.36-4.24l-2.5-1.38a3.27,3.27,0,0,0-4.49,1.39l-1.08,2.17A3.25,3.25,0,0,1,604.15,289.71Z"/><path class="cls-11" d="M626.22,312.21l-4,8.29a3.25,3.25,0,0,0,1,4.05l6,4.41a3.26,3.26,0,0,0,4.66-.87l5.32-8.28a3.25,3.25,0,0,0-1.05-4.54l-7.31-4.42A3.26,3.26,0,0,0,626.22,312.21Z"/><path class="cls-11" d="M519,294.25v9.22a3.25,3.25,0,0,0,3.25,3.25h6.24a3.27,3.27,0,0,0,1.82-.55l3.11-2.1a3.25,3.25,0,0,0,1.42-3l-.59-7.12a3.25,3.25,0,0,0-3.24-3h-8.76A3.26,3.26,0,0,0,519,294.25Z"/><path class="cls-1" d="M500,847A347,347,0,1,1,745.33,745.37,344.65,344.65,0,0,1,500,847Zm0-605.36a258.34,258.34,0,1,0,182.67,75.67A256.64,256.64,0,0,0,500,241.64Z"/><path class="cls-2" d="M500,158a340.77,340.77,0,1,1-133.1,26.87A339.76,339.76,0,0,1,500,158m0,605.36a262.55,262.55,0,1,0-102.5-20.7A261.59,261.59,0,0,0,500,763.36M500,148c-194.38,0-351.95,157.6-351.95,352S305.62,852,500,852,852,694.4,852,500,694.38,148,500,148Zm0,605.36c-139.91,0-253.33-113.43-253.33-253.36S360.09,246.64,500,246.64,753.33,360.07,753.33,500,639.91,753.36,500,753.36Z"/><path class="cls-2" d="M654.32,205.64A330.32,330.32,0,0,0,521,168.34v59.91a270.8,270.8,0,0,1,103.41,29.2Z"/><path class="cls-2" d="M683.57,223l-30,51.88a274,274,0,0,1,76.21,78.63L782,324.15A334.16,334.16,0,0,0,683.57,223Z"/><path class="cls-2" d="M384.61,253A271,271,0,0,1,487,227.77V167.94A330.6,330.6,0,0,0,355.23,200.8Z"/><path class="cls-2" d="M757.73,588.72A273.26,273.26,0,0,1,651.08,726.84l29.38,52.24A333.21,333.21,0,0,0,815.39,604.86Z"/><path class="cls-2" d="M243,409.24A273.33,273.33,0,0,1,354.78,269.37L325.45,217.2A333.25,333.25,0,0,0,185.3,393.09Z"/><path class="cls-2" d="M746.29,383.24a273.5,273.5,0,0,1,20.46,172.69l57.68,16.16a333.55,333.55,0,0,0-25.91-218.23Z"/><path class="cls-2" d="M621.68,743.91a273.13,273.13,0,0,1-174.9,23.42l-16.16,57.73A333.26,333.26,0,0,0,651,796.1Z"/><path class="cls-2" d="M413.91,758.65A273.24,273.24,0,0,1,272.33,649.8l-52.24,29.38a333.13,333.13,0,0,0,177.67,137.1Z"/><path class="cls-2" d="M255.43,620.3A273.42,273.42,0,0,1,233.7,442L176,425.8a333.47,333.47,0,0,0,27.2,223.85Z"/><path class="cls-3" d="M500,201a298,298,0,1,1-116.36,23.49A296.93,296.93,0,0,1,500,201m0-16c-173.95,0-315,141-315,315s141,315,315,315S815,674,815,500,674,185,500,185Z"/></svg>