<svg xmlns="http://www.w3.org/2000/svg" xmlns:xlink="http://www.w3.org/1999/xlink" viewBox="0 0 1000 1000"><defs><style>.cls-1,.cls-8{fill:#ffe3a6;}.cls-1,.cls-3,.cls-4,.cls-5,.cls-6,.cls-7{stroke:#d6b56b;}.cls-1,.cls-2,.cls-3,.cls-4,.cls-5,.cls-6,.cls-7{stroke-linecap:round;stroke-linejoin:round;stroke-width:8px;}.cls-2{fill:#bbdcff;stroke:#6a94d8;}.cls-3{fill:#ffc77d;}.cls-4{fill:#fffce9;}.cls-5{fill:#f4cb82;}.cls-10,.cls-6{fill:#fff9bd;}.cls-7{fill:none;}.cls-9{clip-path:url(#clip-path);}.cls-11{clip-path:url(#clip-path-2);}</style><clipPath id="clip-path"><circle class="cls-1" cx="201.23" cy="678.52" r="43.5"/></clipPath><clipPath id="clip-path-2"><circle class="cls-1" cx="737.01" cy="331.73" r="22.49"/></clipPath></defs><g id="图层_2" data-name="图层 2"><path class="cls-2" d="M558.9,674c-54.79-31.63-100.59-77.2-136.13-135.44-35.18-57.64-53-118.92-53-182.13,0-66.47,17.91-109,53.21-126.46,35.71-17.65,83-9.77,140.44,23.41A367.46,367.46,0,0,1,687.87,371.1c19.51,29.6,34.19,64.19,43.6,102.72l6.42,26.3-118-40-5.06-25.08a109.24,109.24,0,0,0-19.19-43.42,113.81,113.81,0,0,0-36-32.29c-20.45-11.81-36.47-14.05-49-6.85-13.15,7.56-19.82,30.56-19.82,68.36,0,40,6.79,73,19.61,95.56,12.42,21.83,27.58,37.4,47.7,49,14.08,8.13,25.77,10.6,35.75,7.56,10.47-3.2,18.34-14.48,23.39-33.54l5.47-20.63,115.5,103.31-5.74,17.56c-12.27,37.53-33.41,59.27-62.85,64.61S603,699.47,558.9,674Z"/><path class="cls-3" d="M508.26,354l-105,60s-21.75,11.71-16.87,85.85,32.06,100.93,58,120,59.89,31.77,73.4-41.06l105-60s-6.81,81-64.61,46.61S493.26,476,491.71,444.76C489.64,403,491.26,368,508.26,354Z"/><polygon class="cls-4" points="738.26 622.02 633.26 682.02 517.75 578.85 622.75 518.85 738.26 622.02"/><path class="cls-5" d="M633.26,682.16s-11,53.86-44,72.86l105-60c21-12,35-38,44-72.86C722.26,631,633.26,682.16,633.26,682.16Z"/><path class="cls-1" d="M453.9,734c-54.79-31.63-100.59-77.2-136.13-135.44-35.18-57.64-53-118.92-53-182.13,0-66.47,17.91-109,53.21-126.46,35.71-17.65,83-9.77,140.44,23.41A367.46,367.46,0,0,1,582.87,431.1c19.51,29.6,34.19,64.19,43.6,102.72l6.42,26.3-118-40-5.06-25.08a109.24,109.24,0,0,0-19.19-43.42,113.81,113.81,0,0,0-36-32.29c-20.45-11.81-36.47-14.05-49-6.85-13.15,7.56-19.82,30.56-19.82,68.36,0,40,6.79,73,19.61,95.56,12.42,21.83,27.58,37.4,47.7,49,14.08,8.13,25.77,10.6,35.75,7.56,10.47-3.2,18.34-14.48,23.39-33.54l5.47-20.63,115.5,103.31-5.74,17.56c-12.27,37.53-33.41,59.27-62.85,64.61S498,759.47,453.9,734Z"/><path class="cls-6" d="M514.85,520.16l118,40S602.26,398,469.26,331,226.87,363.48,280.91,518.85C312.26,609,366,670.4,399.13,695.21,316.26,622,296.06,452.77,396.26,411,432.26,396,504.26,426,514.85,520.16Z"/><path class="cls-4" d="M632.89,560.12l105-60S725.34,398.88,651.3,324,488.52,198.22,420.89,231.12l-105,60c54.37-31.1,154,13.1,229.19,91.5S632.89,560.12,632.89,560.12Z"/><path class="cls-7" d="M649.43,322.06c105.47-1.68,184.14,26.78,200.22,81,25.1,84.57-111.79,199.79-305.74,257.34S172.37,696,147.28,611.45C131.45,558.1,180.06,492.56,266.8,437"/><circle class="cls-8" cx="201.23" cy="678.52" r="43.5"/><g class="cls-9"><circle class="cls-10" cx="191.73" cy="669.02" r="35"/></g><circle class="cls-7" cx="201.23" cy="678.52" r="43.5"/><circle class="cls-8" cx="737.01" cy="331.73" r="22.49"/><g class="cls-11"><circle class="cls-10" cx="732.1" cy="326.82" r="18.1"/></g><circle class="cls-7" cx="737.01" cy="331.73" r="22.49"/><polygon class="cls-6" points="193.07 321.15 201.85 344.01 221.48 358.2 207.27 363.84 210.63 385.33 193.07 365.96 175.51 365.06 178.86 347.44 164.65 325.39 184.29 333.87 193.07 321.15"/><polygon class="cls-6" points="175.2 381.8 178.56 403.29 210.63 385.33 207.27 363.84 175.2 381.8"/><polygon class="cls-4" points="189.41 376.16 221.48 358.2 201.85 344.01 169.78 361.97 189.41 376.16"/><polygon class="cls-4" points="184.29 333.87 164.65 325.39 132.58 343.35 152.22 351.83 184.29 333.87"/><polygon class="cls-6" points="193.07 321.15 201.85 344.01 169.78 361.97 161 339.11 193.07 321.15"/><polygon class="cls-1" points="161 339.11 169.78 361.97 189.41 376.16 175.2 381.8 178.56 403.29 161 383.92 143.44 383.02 146.79 365.4 132.58 343.35 152.22 351.83 161 339.11"/><polygon class="cls-6" points="787.97 671.27 776.44 701.3 750.65 719.94 769.31 727.35 764.9 755.58 787.97 730.14 811.04 728.95 806.63 705.8 825.29 676.84 799.5 687.98 787.97 671.27"/><polygon class="cls-1" points="811.43 750.94 807.03 779.17 764.9 755.58 769.31 727.35 811.43 750.94"/><polygon class="cls-4" points="792.77 743.53 750.65 719.94 776.44 701.3 818.56 724.89 792.77 743.53"/><polygon class="cls-4" points="799.5 687.98 825.29 676.84 867.42 700.43 841.63 711.57 799.5 687.98"/><polygon class="cls-1" points="787.97 671.27 776.44 701.3 818.56 724.89 830.1 694.86 787.97 671.27"/><polygon class="cls-6" points="830.1 694.86 818.56 724.89 792.77 743.53 811.43 750.94 807.03 779.17 830.1 753.73 853.16 752.53 848.76 729.39 867.42 700.43 841.63 711.57 830.1 694.86"/></g></svg>