<svg xmlns="http://www.w3.org/2000/svg" viewBox="0 0 1000 1000"><defs><style>.cls-1{fill:none;stroke:#999;stroke-linecap:round;stroke-linejoin:round;stroke-width:10px;}</style></defs><g id="图层_7" data-name="图层 7"><path class="cls-1" d="M699.6,286.21l-78.49,16.05a3.77,3.77,0,0,0-1.6,6.63l36.9,29.49-43.18,98.21a150.06,150.06,0,0,0,96.18,45.91q9.83-44.16,19.63-88.33l37.3,2c11.59-2.41,19.1-13.1,17.67-23.55-1.18-8.64-8.31-15.91-17.67-17.67L733,360.8q2.94-30.42,5.89-60.85a62.36,62.36,0,0,1-15.7-2A63.34,63.34,0,0,1,699.6,286.21Z"/><path class="cls-1" d="M456.19,616,428.71,641.5l9.65,206.85A15.12,15.12,0,0,0,453.66,861l285-7.36a11,11,0,0,0,9.25-5.54A326.49,326.49,0,0,0,784,618a152.65,152.65,0,0,0-72.63-108q-1-13.75-2-27.49a150.06,150.06,0,0,1-96.18-45.91l-85.86,91.9"/><path class="cls-1" d="M290.87,481.92l-62.11,20.22a13.47,13.47,0,0,0-8.87,16.19L269,707.85a27.5,27.5,0,0,0,11.44,16L434.71,826l-6-184.48L306.62,487.85A13.45,13.45,0,0,0,290.87,481.92Z"/><path class="cls-1" d="M231.09,501.38l59.27-19.3,2.37-28.49a5.76,5.76,0,0,0-5.9-6.24L230.9,449a5.76,5.76,0,0,0-5.55,6.47Z"/><path class="cls-1" d="M214.75,345.1c-.12-.91-2-21.6-3.93-29.45s.19-13.82,3.93-17.66c5.42-5.59,13.27-3.94,13.74-3.83-1.42-1.38-9.65-9-7.85-19.73,2-11.78,16.74-5.87,17.66-5.89-.69-1.31-11.77-9.81-7.85-19.63,3.93-7.85,15.29-4.12,15.71-3.92-.44-3.58-7.86-11.78-3.93-21.6,2.8-7,7.85-9.81,11.78-11.77.84-.43,1.72-.85,2.64-1.27"/><path class="cls-1" d="M316.82,307.8a12,12,0,0,1,5.72,12.37l-20.88,88-14.28,39-56.93,2c-3.52-24.78-7.82-55.05-11.78-82.44"/><path class="cls-1" d="M250.08,380.43l-18-4.42c-5.79-1.24-10.15-4.95-13.42-9.32a24.52,24.52,0,0,1-3.92-21.59h0l51.06-161.61A23.46,23.46,0,0,1,297.55,169l38,16.57a23.46,23.46,0,0,1,12.84,29.06l-31.6,93.14"/><path class="cls-1" d="M250.08,392.21a22.08,22.08,0,0,1,0-11.78c3.37-12.27,14.77-25,23.56-23.56,3.92-7.85,13.74-23.55,13.74-23.55s8.94-15.17,14.28-22.31,13.2-5.17,15.16-3.21"/><path class="cls-1" d="M436.56,519.8l-1.77-37.23a3.53,3.53,0,0,1,3.73-3.69c11.19.69,43.39,1.28,57.85-12.94a3.55,3.55,0,0,1,5.94,2.29c2.6,26.76,1,30,1,30S483.67,525.69,436.56,519.8Z"/><path class="cls-1" d="M683.9,578.69l-127.6,7.85L513,500a9.38,9.38,0,0,0-9.3-5.1,10.94,10.94,0,0,1-.43,3.36s-19.31,27-65.56,21.71l-8,3.11a9.41,9.41,0,0,0-5.94,10l73.66,185,210,39.26"/><path class="cls-1" d="M497.42,464.84s-5.89-21.6,2-39.26,13.74-51,7.85-60.85-17.67-21.6-47.11-35.34-70.67-39.26-74.59-45.15-17.67-5.88-19.63,7.86,11.77,31.4,53,53"/><path class="cls-1" d="M460.12,347.06c.14.69-76.39-18.8-62.82,33.37"/><path class="cls-1" d="M444.17,363.31s-66.5,1.42-48.83,46.56"/><path class="cls-1" d="M422.82,447.17s-19.63,2-27.17-15.08c-12.15-27.46,19.32-39.88,25.21-41.85s19.63-2,16.81,3.16"/><path class="cls-1" d="M396.39,378.25s-36.38,14-3.21,45.62"/><path class="cls-1" d="M428.71,423.61s-12.77,14.47-3.92,25.52c7.85,9.82,21.59,3.93,21.59,3.93"/><path class="cls-1" d="M442.53,479.07s-5-18.62-4.48-24.28"/><path class="cls-1" d="M709.41,272.47a18,18,0,0,1-13.74-5.89c-2-2-5.88,0-3.92,5.89s2,7.85,7.85,13.74,23.56,15.7,39.26,13.74c-2,21.59-5.89,60.85-5.89,60.85l33.37-5.89a35.2,35.2,0,0,0,5.89-19.63c0-11.78,0-35.33-17.67-41.22,0-15.7-14.27-22.23-22.84-22.89S715.3,272.47,709.41,272.47Z"/><line class="cls-1" x1="685.86" y1="319.58" x2="679.97" y2="331.36"/><line class="cls-1" x1="702.83" y1="325.47" x2="698.71" y2="335.09"/><path class="cls-1" d="M678,358.84s10,5.89,20.7,2"/><path class="cls-1" d="M748.67,376.5s5.89-5.88,15.71-2"/><path class="cls-1" d="M589.67,470.73s-5.88,22.43,0,25.93,23.56-14.16,27.49-20.05,7.7-2.5,5.81,4.64-11.7,40.51,4,46.4S672.29,501,698.71,511.4"/></g></svg>