<svg xmlns="http://www.w3.org/2000/svg" xmlns:xlink="http://www.w3.org/1999/xlink" viewBox="0 0 1000 1000"><defs><style>.cls-1,.cls-11{fill:none;}.cls-2{fill:#a9ffb7;}.cls-10,.cls-11,.cls-2,.cls-3,.cls-4,.cls-5,.cls-6{stroke:#5dc9ad;stroke-linecap:round;stroke-linejoin:round;}.cls-10,.cls-2,.cls-3,.cls-4,.cls-5,.cls-6{stroke-width:8px;}.cls-3{fill:#6adbc8;}.cls-4{fill:#d7fff5;}.cls-5{fill:#83ffd9;}.cls-6,.cls-8{fill:#abffdf;}.cls-7{clip-path:url(#clip-path);}.cls-9{fill:#5dc9ad;}.cls-10{fill:#eefffa;}.cls-11{stroke-width:12px;}</style><clipPath id="clip-path"><path class="cls-1" d="M256.27,659.79c-54.45,0-98.58,28.54-98.58,63.74s44.13,63.74,98.58,63.74,98.58-28.53,98.58-63.74S310.72,659.79,256.27,659.79Z"/></clipPath></defs><g id="图层_4" data-name="图层 4"><path class="cls-2" d="M624.64,699.1,565.39,555.26c-7-17.33-13.22-29.54-18.44-36.34A86.94,86.94,0,0,0,527,500.21V642.74L399.69,569.22V196.6L594.42,309c34,19.61,60.39,37.85,78.53,54.21a198.86,198.86,0,0,1,45,59.51c11.45,23,17.26,46.73,17.26,70.43,0,21.71-5,38.31-14.78,49.33-10,11.26-23.77,17.19-40.87,17.65l-1.41,0a66.35,66.35,0,0,1-7.22-.42c2.16,2.45,4.06,4.76,5.74,7,4.3,5.58,10.23,15.29,18.12,29.67s13,24.69,15.73,31.72l62.27,156.53ZM568.28,436.4c3.06,1.77,10.28,5.14,27.25,11.12l.19.07a17,17,0,0,0,5.75,1.26,5.42,5.42,0,0,0,3.34-1c.76-.55,3.06-2.21,3.06-9.06,0-9.52-3-18.4-9.13-27.14-6.4-9.1-19.06-19.15-37.64-29.87L527,362.12v50.46Z"/><polygon class="cls-3" points="420.47 549.07 516.02 507.21 516.02 649.74 420.47 704.33 420.47 549.07"/><path class="cls-4" d="M564.38,621.36l106.54-61.6s22.36,24.34,42.08,74.6,59.78,150.27,59.78,150.27L666.24,846.22S620,728.71,604,689.69A308.54,308.54,0,0,0,564.38,621.36Z"/><polygon class="cls-3" points="420.47 423.72 516.02 369.12 516.02 419.58 420.47 477.82 420.47 423.72"/><path class="cls-4" d="M516.08,419.55l-95.61,58.27,70.13,40,99.87-62a102.34,102.34,0,0,1-33.19-12.45C539.74,433.2,516.08,419.55,516.08,419.55Z"/><path class="cls-4" d="M293.15,258.2l106.5-61.43s142.52,83.42,203.2,117.38,136.21,92.2,131.66,189.46c-1.62,34.64-20.93,45.6-28,50.34L600,615.38a54,54,0,0,0,26.8-39.32c9.27-62-17-134.67-129.91-200.18C384.07,310.47,293.15,258.2,293.15,258.2Z"/><path class="cls-5" d="M518.1,760.7,473.31,623.38c-7-17.33-27.68-45.16-32.9-52-6-7.59-12.67-17.51-19.94-22.35V704.33L293.63,630.82V258.2L487.88,370.63c34,19.61,60.39,37.85,78.53,54.2a199.08,199.08,0,0,1,45,59.51c11.46,23,17.27,46.74,17.27,70.43,0,21.72-5,38.32-14.79,49.34-10,11.25-23.77,17.19-40.87,17.65l-1.4,0a66.21,66.21,0,0,1-7.22-.42q3.23,3.67,5.73,6.94c4.3,5.59,10.24,15.3,18.13,29.67s13,24.69,15.73,31.72l62.27,156.53ZM461.73,501.64c3.07,1.77,19.7,10.06,24.32,10.72,6.37.91,9.1,0,12.22-2.9,2.1-1.95,3.25-3.89,3.25-10.74,0-9.52-3.18-16.71-9.33-25.46-6.39-9.09-19.06-19.14-37.64-29.87l-34.08-19.67v54.1Z"/><path class="cls-6" d="M453.29,605.18c26.39,51,47.32,99.18,57.33,152,12.74,7.28,155.62,89.08,155.62,89.08s-33.69-93.63-52.6-140.12S575.23,629.75,537,585.16c-44.59-52-187.38-157.2-289.54-177.62C336.65,437.57,426.9,554.22,453.29,605.18Z"/><path class="cls-4" d="M247.47,407.54C349.63,428,510.63,538,565.63,621h0c-78-140-272-218-272-218l-.48-21.71Z"/><g class="cls-7"><ellipse class="cls-8" cx="257.97" cy="760.08" rx="96.88" ry="84.99"/><ellipse class="cls-4" cx="257.97" cy="760.08" rx="78.19" ry="56.09"/><ellipse class="cls-6" cx="257.97" cy="760.08" rx="57.79" ry="37.88"/><ellipse class="cls-6" cx="257.97" cy="760.08" rx="37.39" ry="18.94"/><ellipse class="cls-9" cx="257.97" cy="763.48" rx="23.8" ry="11.9"/></g><path class="cls-4" d="M256.27,659.79c-54.45,0-98.58,28.54-98.58,63.74s44.13,63.74,98.58,63.74,98.58-28.53,98.58-63.74S310.72,659.79,256.27,659.79Zm0,107.09c-40.37,0-73.09-19.41-73.09-43.35s32.72-43.34,73.09-43.34,73.09,19.4,73.09,43.34S296.64,766.88,256.27,766.88Z"/><path class="cls-5" d="M842.31,274.17s-29.85,22.47-66.67,1.21S709,197.18,709,197.18s29.85-22.47,66.68-1.21S842.31,274.17,842.31,274.17Z"/><path class="cls-4" d="M842.31,274.17s-29.85-56.94-66.67-78.2S709,197.18,709,197.18L662.37,224l133.36,77,39.21-22.55A47.48,47.48,0,0,0,842.31,274.17Z"/><path class="cls-5" d="M795.73,301s-29.85,22.46-66.68,1.2S662.37,224,662.37,224s29.85-22.46,66.68-1.2S795.73,301,795.73,301Z"/><ellipse class="cls-10" cx="729.05" cy="262.46" rx="18.64" ry="32.96" transform="translate(-11.35 490.94) rotate(-36.95)"/><line class="cls-11" x1="642.56" y1="273.12" x2="659.17" y2="265.63"/><line class="cls-11" x1="752.34" y1="330.85" x2="756.56" y2="352.12"/><line class="cls-11" x1="699.93" y1="309.89" x2="687.56" y2="324.12"/><polygon class="cls-4" points="197.63 225.8 226.63 274.96 197.63 290.96 197.63 225.8"/><polygon class="cls-5" points="197.63 225.8 168.63 274.96 197.63 290.96 197.63 225.8"/><polygon class="cls-5" points="197.63 318.8 226.63 274.96 197.63 290.96 197.63 318.8"/><polygon class="cls-3" points="197.63 318.8 168.63 274.96 197.63 290.96 197.63 318.8"/><polygon class="cls-4" points="723.63 602.6 768.75 679.1 723.63 703.99 723.63 602.6"/><polygon class="cls-5" points="723.63 602.6 678.5 679.1 723.63 703.99 723.63 602.6"/><polygon class="cls-5" points="723.63 747.31 768.75 679.1 723.63 703.99 723.63 747.31"/><polygon class="cls-3" points="723.63 747.31 678.5 679.1 723.63 703.99 723.63 747.31"/></g></svg>