<svg id="图层_1" data-name="图层 1" xmlns="http://www.w3.org/2000/svg" viewBox="0 0 1000 1000"><defs><style>.cls-1{fill:#fff;stroke:#3e3a39;stroke-miterlimit:10;stroke-width:10px;}.cls-2{font-size:63.01px;letter-spacing:0.1em;}.cls-2,.cls-3,.cls-4{fill:#606060;font-family:HiraKakuStd-W8-83pv-RKSJ-H, Hiragino Kaku Gothic Std;}.cls-3,.cls-4{font-size:34.08px;}.cls-4{letter-spacing:-0.11em;}.cls-5{letter-spacing:-0.09em;}.cls-6{letter-spacing:-0.02em;}.cls-7{letter-spacing:-0.02em;}.cls-8{letter-spacing:-0.02em;}.cls-9{letter-spacing:0em;}.cls-10{letter-spacing:-0.07em;}.cls-11{letter-spacing:-0.05em;}</style></defs><path class="cls-1" d="M170.3,288.89c-11.36,13.7-32.25,19-32.25,14.95,0-20.31,9.85-43.93,42.75-51.12C182.63,252.35,184.62,271.67,170.3,288.89Z"/><path class="cls-1" d="M226.58,335.68a8.6,8.6,0,0,1-6.66-3.16c-4.93-6-17.26-18.5-34.67-18.75-18.18-.25-33.89,6.3-41.06,9.08-1.89.73-7.27.66-9.08-.21-6.16-2.94-20.91-9.36-31-8.82-13.07.71-43.48,7.75-54.7,48.58-12.6,45.71,24.1,96.07,24.1,96.07s13.28,22.58,29.54,25.06c10.34,1.57,34.2-16.95,34.17-9.38,0,11.15.38,136.14.63,205.47a45.67,45.67,0,0,0,45.82,45.51l537.76-1.66c3.61,0-2.66,3.18-3.87,4.86a6,6,0,0,0-.16,7.35q20.24,30.52,40.49,61c.34.51.81,1,1.13,1.49,1.3,2.34,3.1,3.41,5.68,2.34a5.53,5.53,0,0,0,2.42-1.61c9.36-13.54,18.8-27,27.91-40.74,5-7.48,9.34-15.36,14.05-23a3.31,3.31,0,0,0,.19-3.68c-2-3.41-4.18-6.67-6.09-10.1a28.61,28.61,0,0,1-3.25-7.56,7,7,0,0,1,5.56-8.2,7.91,7.91,0,0,1,1.09-.13C817.54,705,827,701.37,834.54,693a28.31,28.31,0,0,0,6.18-11.6c.79-2.81.25-4.36-2.5-5.23-3.4-1.06-7.14-1.13-10.66-1.85a11.84,11.84,0,0,0-2.38-.13c-2.57,0-3.41-1.38-3.41-3.41a7.16,7.16,0,0,1,6-7.39c5.39-.84,10.82-1.48,16.19-2.45,7.45-1.34,13.43-4.88,17.2-11.72,1.44-2.6,3.55-4.85,4.76-7.53,3.8-8.32,2.4-10.66-6.29-11.48-4.33-.4-8.72-.25-13-.78-1.95-.24-3.79-1.48-5.68-2.38-1-.51-1.14-1.38-.66-2.46a10.13,10.13,0,0,1,8.15-6.62,103.92,103.92,0,0,1,11.56-.67c4.7-.16,9.63.26,13.63-2.54,5.23-3.6,10.23-7.54,14.08-12.75,2.49-3.41,4.78-6.95,7-10.5a2.52,2.52,0,0,0,0-2.18,7,7,0,0,0-6.28-4c-8.85-.34-17.69-.91-26.54-1.4a3.05,3.05,0,0,1-3.21-2.89,3,3,0,0,1,.16-1.14c.89-3.41,1.94-6.82,5.8-8.11a7,7,0,0,1,2.69-.61c10.07.65,20.07.6,29.87-2.17,10.62-3,19.17-8.91,24.9-18.42,1.33-2.2,1.73-5,2.27-7.62.14-.67-.62-1.79-1.28-2.33-3-2.5-6.66-3.31-10.44-3.5-2.56-.12-5.12.13-7.67,0-8.5-.43-17-.95-25.47-1.44-1.74-.1-1.85-1.5-1.9-2.73a8.58,8.58,0,0,1,8.48-8.45c11.56.4,23.12.6,34.52-1.89,11.95-2.62,23.86-12.2,28.67-18.84,12.21-16.82-7.61-13.37-7.61-13.37-14.62.19-29.24.41-43.86.55-13.75.15-27.52.23-41.29.38-3.94,0-7.88.07-11.82.36a43.77,43.77,0,0,0-22,7.47,4.63,4.63,0,0,1-7.25-3.75c-.64-55.8-.52-92.12-.1-115.76a43.3,43.3,0,0,0-42.54-44H772Z"/><text class="cls-2" transform="translate(227.34 445.03)">留言板</text><text class="cls-3" transform="translate(230.99 535.56)">MessageBoard</text><text class="cls-4" transform="translate(229.29 491.85)">メ<tspan class="cls-5" x="30.16" y="0">ッ</tspan><tspan class="cls-6" x="61.17" y="0">セ</tspan><tspan class="cls-7" x="94.61" y="0">ー</tspan><tspan class="cls-8" x="127.94" y="0">ジ</tspan><tspan class="cls-9" x="161.44" y="0">ボ</tspan><tspan class="cls-10" x="195.45" y="0">ー</tspan><tspan class="cls-11" x="227.18" y="0">ド</tspan></text></svg>