<svg id="图层_1" data-name="图层 1" xmlns="http://www.w3.org/2000/svg" viewBox="0 0 1000 1000"><defs><style>.cls-1{opacity:0.4;}.cls-2,.cls-3,.cls-4,.cls-5,.cls-6,.cls-7{fill:#fff;}.cls-3,.cls-4,.cls-5,.cls-6,.cls-7{isolation:isolate;}.cls-3{opacity:0.9;}.cls-4{opacity:0.7;}.cls-5{opacity:0.5;}.cls-6{opacity:0.3;}.cls-7{opacity:0.1;}</style></defs><g class="cls-1"><circle class="cls-2" cx="511.4" cy="487.57" r="405"/></g><g class="cls-1"><path class="cls-2" d="M511.4,102.57c212,.3,383.6,172.3,383.3,384.3s-172.3,383.6-384.3,383.3-383.6-172.3-383.3-384.3,172.3-383.6,384.3-383.3h0m0-20c-223.7,0-405,181.3-405,405s181.3,405,405,405,405-181.3,405-405-181.3-405-405-405Z"/></g><circle class="cls-3" cx="312.6" cy="173.57" r="52.9"/><path class="cls-4" d="M249.1,171.87c-.7,10.9,5.2,28.5,13.8,36.8,13.8,13.3,28.4,17.8,10.2,17.8a52.9,52.9,0,0,1,0-105.8c21.9,0-.7,5.6-11.1,17.8C254,148.07,250,158.37,249.1,171.87Z"/><path class="cls-5" d="M207.4,171.87c-.7,10.9,5.2,28.5,13.8,36.8,13.8,13.3,28.4,17.8,10.2,17.8a52.9,52.9,0,0,1,0-105.8c21.9,0-.7,5.6-11.1,17.8C212.2,148.07,208.3,158.37,207.4,171.87Z"/><path class="cls-6" d="M166.8,171.77c-1.2,10.9,4.1,28.6,12.4,37.3,13.3,13.9,27.7,18.9,9.5,18.2a52.94,52.94,0,0,1,3-105.84l1,0c21.8.8-1,5.6-11.8,17.4C172.5,148.17,168.2,158.27,166.8,171.77Z"/><path class="cls-7" d="M123.9,171.87c-.7,10.9,5.2,28.5,13.8,36.8,13.8,13.3,28.4,17.8,10.2,17.8a52.9,52.9,0,0,1,0-105.8c21.9,0-.7,5.6-11.1,17.8C128.7,148.07,124.8,158.37,123.9,171.87Z"/></svg>