<svg id="图层_1" data-name="图层 1" xmlns="http://www.w3.org/2000/svg" viewBox="0 0 91.68 91.68"><defs><style>.cls-1{fill:#fff;}.cls-2{fill:#d773ff;}</style></defs><path class="cls-1" d="M8.16-37.84A45.84,45.84,0,1,0,40.57-24.42,45.88,45.88,0,0,0,8.16-37.84Z" transform="translate(37.69 37.84)"/><path class="cls-2" d="M32,4.21c1,.7,1.93,1.4,1.93,3.86a4.19,4.19,0,0,1-2.71,4.15,4.24,4.24,0,0,1,.51,3.13,5.76,5.76,0,0,1-3.85,4A3,3,0,0,1,28,22.86c-1.06,1.69-2,2.33-6.06,2.33H5.29c-5.66,0-8.59-3.13-8.59-5.73V6.08c0-7,8.4-13,8.4-17.94L4.49-18a2.65,2.65,0,0,1,.34-1.55,5.44,5.44,0,0,1,3.64-1.14,6.45,6.45,0,0,1,3.06.7c3.32,1.59,4.19,5.61,4.19,8.84,0,1.55-2.37,6.21-2.69,7.82A57.52,57.52,0,0,1,23.79-4.43c6.08,0,10,1.08,10,4.82,0,1.5-1.26,3-1.81,3.82ZM-17.06,2.27h4.59a3.43,3.43,0,0,1,2.43,1A3.45,3.45,0,0,1-9,5.71V27.48a3.45,3.45,0,0,1-1,2.43,3.43,3.43,0,0,1-2.43,1h-4.59a3.43,3.43,0,0,1-2.43-1,3.45,3.45,0,0,1-1-2.43V5.71a3.45,3.45,0,0,1,1-2.43,3.43,3.43,0,0,1,2.43-1Z" transform="translate(37.69 37.84)"/></svg>