<svg xmlns="http://www.w3.org/2000/svg" viewBox="0 0 1000 1000"><defs><style>.cls-1{fill:#fff;}</style></defs><g id="图层_18" data-name="图层 18"><path class="cls-1" d="M779.86,535.19l-81.44-47V395.74a18.49,18.49,0,0,0-9.26-16L509,275.69a18.52,18.52,0,0,0-18.5,0l-180.16,104a18.49,18.49,0,0,0-9.26,16v96.9l-49.35,28.5a12.33,12.33,0,0,0-6.17,10.68v71.6a12.35,12.35,0,0,0,6.17,10.69l62,35.8a12.36,12.36,0,0,0,12.34,0l18.21-10.52L490.5,723.81a18.49,18.49,0,0,0,18.5,0l81-46.76,81,46.76a18.51,18.51,0,0,0,18.51,0l90.39-52.19a18.52,18.52,0,0,0,9.25-16V551.22A18.53,18.53,0,0,0,779.86,535.19Zm-46.28,16-35.16,20.31V530.92ZM580.73,639.65h0l-62.47,36.07V510.44L661.4,427.79V593.08ZM338.1,593.08V427.79l143.14,82.65V675.72Zm161.65-280,143.14,82.64L499.75,478.38,356.61,395.74ZM301.08,542.51l-18.51-10.69,18.51-10.68ZM270.24,553.2,301.08,571v32.75a18.52,18.52,0,0,0,6.48,14.06v0L270.24,596.3Zm391.47,82.44v40.08l-34.71-20Zm37,40.08V614.09l53.37-30.81v61.63Z"/></g></svg>