<svg xmlns="http://www.w3.org/2000/svg" viewBox="0 0 100 100"><defs><style>.cls-1{fill:#34c759;}</style></defs><g id="图层_21" data-name="图层 21"><path class="cls-1" d="M85.86,21.08,57.12,4.48a14.31,14.31,0,0,0-14.24,0L36.74,8a4.5,4.5,0,1,0,4.5,7.79l6.14-3.54a5.22,5.22,0,0,1,5.24,0l26.86,15.5L50,44.8l-9.08-5.24a4.5,4.5,0,1,0-4.5,7.79L45.5,52.6v10a4.5,4.5,0,0,0,9,0v-10L84,35.58v31a5.24,5.24,0,0,1-2.62,4.54l-4.85,2.8a4.5,4.5,0,0,0,2.26,8.4A4.44,4.44,0,0,0,81,81.72l4.85-2.8A14.26,14.26,0,0,0,93,66.59V33.41A14.27,14.27,0,0,0,85.86,21.08Z"/><path class="cls-1" d="M59.78,83.59l-5.28,3v-7a4.5,4.5,0,0,0-9,0v7L18.64,71.13A5.24,5.24,0,0,1,16,66.59v-5.4a4.5,4.5,0,0,0-9,0v5.4a14.26,14.26,0,0,0,7.12,12.33l28.74,16.6a14.29,14.29,0,0,0,14.24,0l7.17-4.14a4.5,4.5,0,1,0-4.51-7.79Z"/><path class="cls-1" d="M11.52,48.69a4.49,4.49,0,0,0,4.5-4.5V35.58l6.22,3.59a4.5,4.5,0,1,0,4.5-7.79l-6.22-3.6,6.22-3.59a4.5,4.5,0,1,0-4.5-7.79l-8.1,4.68A14.27,14.27,0,0,0,7,33.41V44.19A4.49,4.49,0,0,0,11.52,48.69Z"/></g></svg>