<?xml version="1.0" encoding="utf-8"?>
<!-- Generator: Adobe Illustrator 26.0.1, SVG Export Plug-In . SVG Version: 6.00 Build 0)  -->
<svg version="1.1" id="图层_1" xmlns="http://www.w3.org/2000/svg" xmlns:xlink="http://www.w3.org/1999/xlink" x="0px" y="0px"
	 viewBox="0 0 100 100" style="enable-background:new 0 0 100 100;" xml:space="preserve">
<style type="text/css">
	.st0{fill:#34C757;stroke:#34C757;stroke-miterlimit:10;}
	.st1{fill:none;stroke:#34C757;stroke-width:8;stroke-linecap:round;stroke-linejoin:round;}
</style>
<g id="图层_18">
	<path class="st0" d="M10.8,59.5L6.5,57v-8.1l4.3,2.5v-6.9l-1.4-0.8l1.4-0.8V36L2,41.1l-0.1,0.1c-0.2,0.1-0.3,0.2-0.4,0.3l-0.1,0.1
		C1.2,41.8,1,42,0.9,42.2l0,0c-0.1,0.2-0.2,0.4-0.3,0.7c0,0.1,0,0.1,0,0.2c0,0.2-0.1,0.4-0.1,0.5c0,0,0,0.1,0,0.1v15
		c0,1.1,0.5,2,1.4,2.6l8.9,5.1L10.8,59.5z"/>
	<path class="st0" d="M99.7,17.3c0-0.2,0-0.4-0.1-0.5c0-0.1,0-0.1,0-0.2c-0.1-0.2-0.2-0.5-0.3-0.7l0,0c-0.1-0.2-0.3-0.4-0.4-0.6
		l-0.1-0.1c-0.1-0.1-0.3-0.2-0.4-0.3l-0.1-0.1L80.4,4.6c-0.9-0.5-2.1-0.5-3,0l-13.8,8l6,3.5l9.3-5.4l11.8,6.8l-9.3,5.4l5.8,3.4
		l0.1,0.1l6.4-3.7v13.6l-4.5,2.6v6.9l9-5.2c0.9-0.5,1.5-1.5,1.5-2.6V17.4C99.7,17.4,99.7,17.4,99.7,17.3z"/>
	<polygon class="st1" points="14.8,29.7 14.8,70.3 50,90.6 85.2,70.3 85.2,29.7 50,9.4 	"/>
	<polyline class="st1" points="14.8,29.7 50,50 85.2,29.7 	"/>
	<line class="st1" x1="50" y1="90.6" x2="50" y2="50"/>
</g>
</svg>
