<svg id="图层_1" data-name="图层 1" xmlns="http://www.w3.org/2000/svg" xmlns:xlink="http://www.w3.org/1999/xlink" viewBox="0 0 400 400"><defs><style>.cls-1,.cls-11,.cls-3,.cls-5,.cls-6{fill:none;}.cls-2{clip-path:url(#clip-path);}.cls-3,.cls-8{stroke:#555;}.cls-11,.cls-3,.cls-4,.cls-5,.cls-6,.cls-7,.cls-8,.cls-9{stroke-miterlimit:10;}.cls-3,.cls-4,.cls-5{stroke-width:2px;}.cls-4{fill:#555;}.cls-4,.cls-5,.cls-6{stroke:#333;}.cls-7{fill:#bbb;stroke:#999;}.cls-8,.cls-9{fill:#222;}.cls-9{stroke:#2c2c2c;}.cls-10{clip-path:url(#clip-path-2);}.cls-11{stroke:#ccc;stroke-width:4px;}</style><clipPath id="clip-path"><rect class="cls-1" x="50" y="50" width="300" height="300"/></clipPath><clipPath id="clip-path-2"><rect class="cls-1" x="-466" y="50" width="300" height="300"/></clipPath></defs><g class="cls-2"><path class="cls-3" d="M60.94,406.28v-307a45.68,45.68,0,0,1,45.67-45.68H259a45.68,45.68,0,0,1,45.67,45.68"/><rect class="cls-4" x="75.65" y="66.52" width="113.22" height="116.52" rx="31.21"/><circle class="cls-5" cx="105.63" cy="96.47" r="23.17"/><circle class="cls-5" cx="105.63" cy="153.33" r="23.17"/><circle class="cls-5" cx="159.08" cy="124.78" r="23.17"/><circle class="cls-6" cx="159.08" cy="82.21" r="8.91"/><circle class="cls-7" cx="159.08" cy="167.36" r="8.91"/><circle class="cls-8" cx="159.24" cy="124.57" r="16.04"/><circle class="cls-8" cx="105.63" cy="96.47" r="16.04"/><circle class="cls-8" cx="105.63" cy="153.33" r="16.04"/><path class="cls-3" d="M31.34,218.12H84.92a3.22,3.22,0,0,1,3.22,3.22v.85a1,1,0,0,1-1,1H29.09a1,1,0,0,1-1-1v-.85a3.22,3.22,0,0,1,3.22-3.22Z" transform="translate(-162.5 278.76) rotate(-90)"/><rect class="cls-3" x="210.72" y="103.94" width="313.66" height="378.3" rx="48.64"/><rect class="cls-4" x="232.5" y="126.2" width="108.36" height="108.36" rx="26.66"/><circle class="cls-5" cx="260.38" cy="154.05" r="21.55"/><circle class="cls-5" cx="260.38" cy="206.92" r="21.55"/><circle class="cls-6" cx="318.36" cy="145.33" r="10.37"/><circle class="cls-9" cx="318.36" cy="216.41" r="5.43"/><circle class="cls-7" cx="318.36" cy="180.38" r="14.92"/><circle class="cls-8" cx="260.38" cy="154.05" r="14.92"/><circle class="cls-8" cx="260.38" cy="206.92" r="14.92"/><path class="cls-3" d="M265.88,98.9h44.59a3.74,3.74,0,0,1,3.74,3.74v1.29a0,0,0,0,1,0,0H262.14a0,0,0,0,1,0,0v-1.29A3.74,3.74,0,0,1,265.88,98.9Z"/><path class="cls-3" d="M188.39,254.58h38.16a3.22,3.22,0,0,1,3.22,3.22v.85a1,1,0,0,1-1,1H186.14a1,1,0,0,1-1-1v-.85a3.22,3.22,0,0,1,3.22-3.22Z" transform="translate(-49.62 464.56) rotate(-90)"/><path class="cls-3" d="M188.39,199.35h38.16a3.22,3.22,0,0,1,3.22,3.22v.85a1,1,0,0,1-1,1H186.14a1,1,0,0,1-1-1v-.85a3.22,3.22,0,0,1,3.22-3.22Z" transform="translate(5.6 409.34) rotate(-90)"/></g><g class="cls-10"><rect class="cls-11" x="-303.68" y="105.85" width="325.12" height="392.12" rx="48.64"/></g></svg>