<svg id="svg5529" xmlns="http://www.w3.org/2000/svg" viewBox="0 0 132.38 132.38"><defs><style>.cls-1{fill:#f29300;fill-rule:evenodd;}</style></defs><g id="layer1"><path id="path5455-7" class="cls-1" d="M51.79,18.88a9.47,9.47,0,0,0-5,1.56l-.09,0a9.25,9.25,0,0,0-1.37,1.13l-.09.11a5,5,0,0,0-.39.41l-.3.33-.27.41c-.1.12-.19.24-.28.37a4,4,0,0,0-.2.35,4.45,4.45,0,0,0-.26.48c-.07.13-.13.27-.19.4s-.14.3-.2.45l-.09.26a9.3,9.3,0,0,0-.52,3.91V65.27a9.65,9.65,0,0,0,0,1.7v36.26a9.85,9.85,0,0,0,.37,3.49,8.67,8.67,0,0,0,.31.9,8.32,8.32,0,0,0,.41.85c.15.28.31.55.48.82a6.55,6.55,0,0,0,.39.53c.1.13.2.25.31.37l0,0q.3.34.63.66a9.72,9.72,0,0,0,1.5,1.15,8,8,0,0,0,.81.46,9.47,9.47,0,0,0,1.77.67,9.1,9.1,0,0,0,1.87.29,9.84,9.84,0,0,0,1.33,0H70.76v0c.15,0,.28,0,.43,0a9.28,9.28,0,0,0,1.75-.18A28,28,0,0,0,91.52,66.19a28.08,28.08,0,0,0,7.54-19A28.36,28.36,0,0,0,72.82,19.09a9.59,9.59,0,0,0-1.69-.17c-.12,0-.24,0-.37,0v0h-18C52.43,18.89,52.11,18.88,51.79,18.88Zm9.57,18.89h9.5a9.43,9.43,0,0,1-.1,18.85v.15h-9.4Zm0,37.87h9.4v.12a9.43,9.43,0,0,1,.15,18.85H61.36Z"/></g></svg>