<svg id="图层_1" data-name="图层 1" xmlns="http://www.w3.org/2000/svg" xmlns:xlink="http://www.w3.org/1999/xlink" viewBox="0 0 400 400"><defs><style>.cls-1,.cls-3,.cls-4,.cls-5,.cls-6,.cls-7{fill:none;}.cls-2{clip-path:url(#clip-path);}.cls-3{stroke:#ccc;}.cls-3,.cls-4,.cls-5,.cls-6,.cls-7,.cls-8,.cls-9{stroke-miterlimit:10;stroke-width:4px;}.cls-4,.cls-5,.cls-6,.cls-7,.cls-8,.cls-9{stroke:#555;}.cls-4,.cls-5,.cls-6{stroke-linecap:round;}.cls-5{stroke-dasharray:12.08 14.1;}.cls-6{stroke-dasharray:12.57 14.66;}.cls-8{fill:#222;}.cls-9{fill:#666;}</style><clipPath id="clip-path"><rect class="cls-1" x="-468" y="-445" width="300" height="300"/></clipPath></defs><g class="cls-2"><rect class="cls-3" x="-305.68" y="-389.15" width="325.12" height="392.12" rx="48.64"/></g><path class="cls-4" d="M329.9,338.18h6c.2-2,.37-4,.48-6"/><path class="cls-5" d="M336.38,318.11c-3.84-68.56-63.42-123-136.37-123-75.43,0-136.57,58.23-136.57,130.07h0"/><path class="cls-4" d="M63.64,332.2q.16,3,.48,6h6"/><path class="cls-6" d="M84.78,338.18H322.57"/><path class="cls-7" d="M317.51,337.88q.17-3.11.17-6.25a117.68,117.68,0,0,0-235.36,0q0,3.15.17,6.25Z"/><path class="cls-8" d="M202.77,337.75q-1-61.2-2-122.41c21.07,7.8,32.88,19.44,39,26.76,21.43,25.75,25.31,62,28.22,89.07.3,2.83.51,5.16.63,6.71Z"/><path class="cls-8" d="M202.77,337.75q-.65-61.2-1.27-122.41c-21.07,7.8-32.89,19.44-39,26.76-21.44,25.75-25.32,62-28.22,89.07-.31,2.83-.51,5.16-.64,6.71Z"/><path class="cls-7" d="M106,263.21a222.5,222.5,0,0,0,193.44,5.57"/><path class="cls-9" d="M200,70.66A41.32,41.32,0,0,0,158.68,112c0,6.84,3.37,16.56,10.47,28.8q8.46,14.61,23.52,33.16a9.45,9.45,0,0,0,14.66,0q15.06-18.52,23.52-33.16c7.1-12.24,10.47-22,10.47-28.8A41.32,41.32,0,0,0,200,70.66Zm0,57.39A16.07,16.07,0,1,1,216.07,112,16.06,16.06,0,0,1,200,128.05Z"/></svg>