<svg id="图层_1" data-name="图层 1" xmlns="http://www.w3.org/2000/svg" xmlns:xlink="http://www.w3.org/1999/xlink" viewBox="0 0 400 400"><defs><style>.cls-1,.cls-3,.cls-4,.cls-5,.cls-6,.cls-9{fill:none;}.cls-2{clip-path:url(#clip-path);}.cls-10,.cls-3,.cls-7,.cls-8,.cls-9{stroke:#ccc;}.cls-10,.cls-3,.cls-4,.cls-5,.cls-6,.cls-7,.cls-9{stroke-miterlimit:10;}.cls-10,.cls-3,.cls-4,.cls-5,.cls-6,.cls-7,.cls-8,.cls-9{stroke-width:4px;}.cls-4,.cls-5,.cls-6{stroke:#ddd;}.cls-4,.cls-5,.cls-6,.cls-8,.cls-9{stroke-linecap:round;}.cls-5{stroke-dasharray:12.37 15.47;}.cls-6{stroke-dasharray:12.08 15.1;}.cls-7{fill:#f7f7f7;}.cls-8{fill:#fff;stroke-linejoin:round;}.cls-10{fill:#999;}</style><clipPath id="clip-path"><rect class="cls-1" x="50" y="-445" width="300" height="300"/></clipPath></defs><g class="cls-2"><rect class="cls-3" x="212.32" y="-389.15" width="325.12" height="392.12" rx="48.64"/></g><path class="cls-4" d="M330,348.18h6q.31-3,.48-6"/><path class="cls-5" d="M336.39,326.74c-4.55-67.91-63.83-121.66-136.29-121.66-75.19,0-136.19,57.87-136.57,129.39"/><path class="cls-4" d="M63.73,342.2q.17,3,.48,6h6"/><path class="cls-6" d="M85.31,348.18H322.44"/><path class="cls-7" d="M312.41,348q.16-3,.16-6a112.57,112.57,0,1,0-225.14,0q0,3,.16,6Z"/><path class="cls-8" d="M200.06,347.52c0-41-.06-78-.06-118.1,20.16,7.46,31.46,18.6,37.29,25.6,20.5,24.63,24.22,59.27,27,85.21.29,2.7.48,5.93.6,7.41Z"/><path class="cls-8" d="M199.94,347.52c0-41,.06-78,.06-118.1-20.16,7.46-31.46,18.6-37.29,25.6-20.5,24.63-24.22,59.27-27,85.21-.29,2.7-.48,5.93-.6,7.41Z"/><path class="cls-3" d="M110.11,276.53c17,8.82,44.83,23.51,90,23.92,40.54.37,78-10.95,95.09-18.58"/><line class="cls-9" x1="79.47" y1="347.97" x2="320.53" y2="347.97"/><path class="cls-10" d="M200,80.66A41.32,41.32,0,0,0,158.68,122c0,6.84,3.37,16.56,10.47,28.8q8.46,14.61,23.52,33.16a9.45,9.45,0,0,0,14.66,0q15.06-18.52,23.52-33.16c7.1-12.24,10.47-22,10.47-28.8A41.32,41.32,0,0,0,200,80.66Zm0,57.39A16.07,16.07,0,1,1,216.07,122,16.06,16.06,0,0,1,200,138.05Z"/></svg>