<svg id="svg5529" xmlns="http://www.w3.org/2000/svg" viewBox="0 0 132.38 132.38"><defs><style>.cls-1{fill:#e84030;fill-rule:evenodd;}</style></defs><g id="layer1"><path id="path5108" class="cls-1" d="M42.22,16.92a9.81,9.81,0,0,0-9.66,10h0v77.46a9.84,9.84,0,0,0,5.23,10c.29.15.59.29.89.42h0c.3.12.61.22.92.31l.58.13.56.12c.32,0,.65.09,1,.11a8.35,8.35,0,0,0,1.12,0H62.11a9.42,9.42,0,0,0,1.83-.15c26.22-1.63,47.45-22.81,47.45-49S90.3,19.1,64.19,17.36a10.42,10.42,0,0,0-1.93-.18H44.61A10.06,10.06,0,0,0,42.22,16.92Zm10,19.92h8.51c17.54,0,31,13.16,31,29.47s-13.48,29.5-31,29.5H52.21Z"/></g></svg>