<svg xmlns="http://www.w3.org/2000/svg" xmlns:xlink="http://www.w3.org/1999/xlink" viewBox="0 0 1000 1000"><defs><style>.cls-1,.cls-2,.cls-5,.cls-6,.cls-7,.cls-8{fill:#ccc;}.cls-1,.cls-5,.cls-6,.cls-7,.cls-8,.cls-9{stroke:#999;}.cls-1,.cls-5,.cls-7,.cls-9{stroke-miterlimit:10;}.cls-3{fill:#999;}.cls-4{clip-path:url(#clip-path);}.cls-5,.cls-8{stroke-width:12px;}.cls-6,.cls-7,.cls-8{stroke-linecap:round;}.cls-6,.cls-8{stroke-linejoin:round;}.cls-6{stroke-width:10px;}.cls-7{stroke-width:8px;}.cls-9{fill:none;}</style><clipPath id="clip-path"><circle class="cls-1" cx="500" cy="500" r="405"/></clipPath></defs><g id="图层_14" data-name="图层 14"><path class="cls-2" d="M500,899a397.73,397.73,0,1,1,155.31-31.35A396.59,396.59,0,0,1,500,899Z"/><path class="cls-3" d="M500,107a391.71,391.71,0,1,1-153,30.88A390.51,390.51,0,0,1,500,107m0-12C276.32,95,95,276.32,95,500S276.32,905,500,905,905,723.68,905,500,723.68,95,500,95Z"/><circle class="cls-2" cx="500" cy="500" r="405"/><g class="cls-4"><path class="cls-5" d="M410.09,204.7A6.21,6.21,0,0,0,403.9,199h-76a6.22,6.22,0,0,0-6.19,5.72l-8.16,101.12v460H418.25v-460Z"/><path class="cls-5" d="M386.24,199H403.9a6.21,6.21,0,0,1,6.19,5.72l8.16,101.12v172L386.24,199"/><path class="cls-5" d="M345.61,199H327.94a6.22,6.22,0,0,0-6.19,5.72l-8.16,101.12v172l32-278.85"/><polygon class="cls-5" points="332.05 316.91 332.05 765.83 313.6 765.83 313.6 477.83 332.05 316.91 332.05 316.91"/><polygon class="cls-5" points="399.78 316.91 399.78 316.91 418.25 477.83 418.25 765.83 399.78 765.83 399.78 316.91 399.78 316.91"/><path class="cls-5" d="M720.05,311.26H829.6a8.21,8.21,0,0,1,8.21,8.21V765.83a0,0,0,0,1,0,0h-126a0,0,0,0,1,0,0V319.47A8.21,8.21,0,0,1,720.05,311.26Z"/><path class="cls-5" d="M720.05,311.26h13.12a0,0,0,0,1,0,0V765.83a0,0,0,0,1,0,0H711.84a0,0,0,0,1,0,0V319.47A8.21,8.21,0,0,1,720.05,311.26Z"/><path class="cls-5" d="M816.48,311.26H829.6a8.21,8.21,0,0,1,8.21,8.21V765.83a0,0,0,0,1,0,0H816.48a0,0,0,0,1,0,0V311.26A0,0,0,0,1,816.48,311.26Z"/><line class="cls-6" x1="748.81" y1="335.27" x2="800.84" y2="335.27"/><line class="cls-6" x1="748.81" y1="365.27" x2="800.84" y2="365.27"/><line class="cls-6" x1="748.81" y1="395.27" x2="800.84" y2="395.27"/><line class="cls-6" x1="748.81" y1="425.27" x2="800.84" y2="425.27"/><line class="cls-6" x1="748.81" y1="455.27" x2="800.84" y2="455.27"/><line class="cls-6" x1="748.81" y1="485.27" x2="800.84" y2="485.27"/><line class="cls-6" x1="748.81" y1="515.27" x2="800.84" y2="515.27"/><line class="cls-6" x1="748.81" y1="545.27" x2="800.84" y2="545.27"/><line class="cls-6" x1="748.81" y1="575.27" x2="800.84" y2="575.27"/><line class="cls-6" x1="748.81" y1="605.27" x2="800.84" y2="605.27"/><line class="cls-6" x1="748.81" y1="635.27" x2="800.84" y2="635.27"/><line class="cls-6" x1="748.81" y1="665.27" x2="800.84" y2="665.27"/><line class="cls-6" x1="748.81" y1="695.27" x2="800.84" y2="695.27"/><rect class="cls-5" x="763.63" y="333.27" width="22.4" height="85.82" rx="6.19"/><path class="cls-5" d="M159.28,544.85h80.14a0,0,0,0,1,0,0v221a0,0,0,0,1,0,0H150.49a0,0,0,0,1,0,0V553.64A8.78,8.78,0,0,1,159.28,544.85Z"/><path class="cls-5" d="M239.42,544.85H365.06a0,0,0,0,1,0,0v221a0,0,0,0,1,0,0H248.2a8.78,8.78,0,0,1-8.78-8.78V544.85A0,0,0,0,1,239.42,544.85Z" transform="translate(604.48 1310.69) rotate(180)"/><path class="cls-5" d="M198.1,495.75H251a0,0,0,0,1,0,0v49.11a0,0,0,0,1,0,0H189.31a0,0,0,0,1,0,0V504.53A8.78,8.78,0,0,1,198.1,495.75Z"/><path class="cls-5" d="M251,495.75H352.37a0,0,0,0,1,0,0v49.11a0,0,0,0,1,0,0H259.81a8.78,8.78,0,0,1-8.78-8.78V495.75A0,0,0,0,1,251,495.75Z" transform="translate(603.4 1040.6) rotate(180)"/><line class="cls-7" x1="259.99" y1="564.1" x2="270.86" y2="564.1"/><line class="cls-7" x1="259.99" y1="564.1" x2="270.86" y2="564.1"/><line class="cls-7" x1="289.99" y1="564.1" x2="300.86" y2="564.1"/><line class="cls-7" x1="259.99" y1="584.1" x2="270.86" y2="584.1"/><line class="cls-7" x1="289.99" y1="584.1" x2="300.86" y2="584.1"/><line class="cls-7" x1="259.99" y1="604.1" x2="270.86" y2="604.1"/><line class="cls-7" x1="259.99" y1="624.1" x2="270.86" y2="624.1"/><line class="cls-7" x1="289.99" y1="604.1" x2="300.86" y2="604.1"/><line class="cls-7" x1="166.99" y1="564.1" x2="177.86" y2="564.1"/><line class="cls-7" x1="166.99" y1="564.1" x2="177.86" y2="564.1"/><line class="cls-7" x1="196.99" y1="564.1" x2="207.86" y2="564.1"/><line class="cls-7" x1="166.99" y1="584.1" x2="177.86" y2="584.1"/><line class="cls-7" x1="196.99" y1="584.1" x2="207.86" y2="584.1"/><line class="cls-7" x1="166.99" y1="604.1" x2="177.86" y2="604.1"/><line class="cls-7" x1="196.99" y1="604.1" x2="207.86" y2="604.1"/><line class="cls-7" x1="319.99" y1="564.1" x2="330.86" y2="564.1"/><rect class="cls-5" x="56.3" y="631.79" width="130.23" height="134.05" rx="12.42"/><path class="cls-5" d="M571.9,213.82a8.16,8.16,0,0,1,7.84,5.91c6.51,22.6,28.8,107.88,28.8,216.66V765.83H498.13V432.27c0-76.92,13.31-197.83,16.6-216.83a2,2,0,0,1,1.93-1.62Z"/><path class="cls-8" d="M513.67,223.85a2,2,0,0,1,3.84-.2c6.46,27.1,23.34,107.81,23.34,211.19v331H498.13V432.27C498.13,348.5,509.64,254.25,513.67,223.85Z"/><line class="cls-6" x1="581.33" y1="300.38" x2="548.82" y2="300.38"/><line class="cls-6" x1="590.29" y1="438.68" x2="557.78" y2="438.68"/><line class="cls-6" x1="525.26" y1="438.68" x2="512.52" y2="438.68"/><line class="cls-6" x1="525.26" y1="575.27" x2="512.52" y2="575.27"/><line class="cls-6" x1="525.26" y1="695.27" x2="512.52" y2="695.27"/><line class="cls-6" x1="590.29" y1="575.27" x2="557.78" y2="575.27"/><line class="cls-6" x1="590.29" y1="695.27" x2="557.78" y2="695.27"/><path class="cls-7" d="M441.25,517.31h78.47a0,0,0,0,1,0,0V760.86a5,5,0,0,1-5,5H446.22a5,5,0,0,1-5-5V517.31a0,0,0,0,1,0,0Z" transform="translate(960.97 1283.14) rotate(-180)"/><path class="cls-7" d="M441.25,517.31h33.2a0,0,0,0,1,0,0V760.86a5,5,0,0,1-5,5H441.25a0,0,0,0,1,0,0V517.31A0,0,0,0,1,441.25,517.31Z" transform="translate(915.7 1283.14) rotate(-180)"/><line class="cls-7" x1="503.08" y1="517.31" x2="503.08" y2="765.83"/><path class="cls-7" d="M518,515.13l-11.63-14.62a1.35,1.35,0,0,0-1.05-.51H456.76a1.35,1.35,0,0,0-1,.47l-12.58,14.62a1.34,1.34,0,0,0,1,2.22H517A1.34,1.34,0,0,0,518,515.13Z"/><polygon class="cls-6" points="244.84 632.45 121.41 765.83 244.84 765.83 368.27 765.83 244.84 632.45"/><polygon class="cls-6" points="272.05 733.98 244.84 733.98 217.63 733.98 191.15 765.83 244.84 765.83 298.53 765.83 272.05 733.98"/><polygon class="cls-5" points="311.54 748.08 268.21 748.08 178.15 748.08 163.39 765.83 268.21 765.83 326.29 765.83 311.54 748.08"/><path class="cls-5" d="M546.47,631.05l32.11,7a7.59,7.59,0,0,1,6,7.43V758.22a7.61,7.61,0,0,1-7.61,7.61H544.86a7.61,7.61,0,0,1-7.61-7.61V638.49A7.61,7.61,0,0,1,546.47,631.05Z"/><rect class="cls-5" x="523.55" y="722.48" width="70.34" height="43.35" rx="9.78"/><path class="cls-5" d="M670.28,631.05l-32.11,7a7.6,7.6,0,0,0-6,7.43V758.22a7.61,7.61,0,0,0,7.61,7.61h32.11a7.62,7.62,0,0,0,7.62-7.61V638.49A7.62,7.62,0,0,0,670.28,631.05Z"/><rect class="cls-5" x="622.86" y="722.48" width="70.34" height="43.35" rx="9.78" transform="translate(1316.06 1488.31) rotate(-180)"/><rect class="cls-5" x="412.86" y="689.3" width="120.16" height="76.53" rx="12.89"/><rect class="cls-5" x="683.74" y="689.3" width="120.16" height="76.53" rx="12.89" transform="translate(1487.63 1455.13) rotate(-180)"/><path class="cls-5" d="M770.5,670.72c-38,0-123.52-22.12-159.35-22.12s-121.31,22.12-159.36,22.12c-28.7,0-56.66-6.3-68.65-9.39a2.9,2.9,0,0,0-3.34,4.07l9.34,23.33a2.91,2.91,0,0,0,2.34,1.62c7.81.74,42.07,3.83,64.29,3.83,25.22,0,122.64-23.67,155.38-23.67s130.15,23.67,155.37,23.67c22.22,0,56.48-3.09,64.29-3.83a2.91,2.91,0,0,0,2.34-1.62l9.34-23.33a2.9,2.9,0,0,0-3.34-4.07C827.16,664.42,799.21,670.72,770.5,670.72Z"/><rect class="cls-5" x="356.68" y="720.26" width="87.59" height="45.57" rx="9.71"/><rect class="cls-5" x="777.58" y="708.32" width="48.22" height="57.51" rx="9.9"/><rect class="cls-5" x="137.41" y="765.83" width="700.4" height="25.22"/></g><circle class="cls-9" cx="500" cy="500" r="405"/><path class="cls-3" d="M500,107a391.71,391.71,0,1,1-153,30.88A390.51,390.51,0,0,1,500,107m0-12C276.32,95,95,276.32,95,500S276.32,905,500,905,905,723.68,905,500,723.68,95,500,95Z"/><rect class="cls-5" x="784.14" y="289.5" width="44.25" height="21.76" rx="4.1"/><rect class="cls-5" x="721.26" y="289.5" width="44.25" height="21.76" rx="4.1"/><path class="cls-5" d="M750.28,217.44a3.62,3.62,0,0,0-3.62-3.62h-6.55a3.62,3.62,0,0,0-3.62,3.62v46.15L725,289.5h36.71l-11.46-25.91Z"/><path class="cls-5" d="M813.16,263.59V217.44a3.62,3.62,0,0,0-3.62-3.62H803a3.62,3.62,0,0,0-3.62,3.62v46.15L787.91,289.5h36.71Z"/><path class="cls-5" d="M354.38,143.57l-28.51,49.11a4.19,4.19,0,0,0,3.63,6.3h72.42a4.2,4.2,0,0,0,3.53-6.47l-31.68-48.94Z"/><polygon class="cls-5" points="384.7 198.98 365.92 143.57 363.16 143.57 343.94 198.98 384.7 198.98"/><path class="cls-3" d="M351.23,137.56l11.91-86.28a1.15,1.15,0,0,1,2.3,0l11.15,86.27Z"/></g></svg>