<svg id="svg5529" xmlns="http://www.w3.org/2000/svg" viewBox="0 0 132.38 132.38"><defs><style>.cls-1{fill:#ed725e;fill-rule:evenodd;}</style></defs><g id="layer1"><path id="path7275" class="cls-1" d="M66.19,16.59C51.55,16.59,39.5,28.79,38.32,44a10.08,10.08,0,0,0-.23,2.26v59.58c0,5.49,4.19,9.94,9.36,9.94s9.37-4.45,9.37-9.94V74.33a26.06,26.06,0,0,0,9.37,1.84c15.4,0,28.1-13.44,28.1-29.78S81.59,16.59,66.19,16.59Zm0,19.87c5.28,0,9.37,4.33,9.37,9.93s-4.09,9.92-9.37,9.92S56.82,52,56.82,46.39,60.91,36.46,66.19,36.46Z"/></g></svg>