<svg id="svg5529" xmlns="http://www.w3.org/2000/svg" viewBox="0 0 132.38 132.38"><defs><style>.cls-1{fill:#23ace4;fill-rule:evenodd;}</style></defs><g id="layer1"><path id="path7279" class="cls-1" d="M35.74,17h-.23c-.25,0-.49.07-.73.12a5.41,5.41,0,0,0-.58.12,2.91,2.91,0,0,0-.39.12l-.19.09c-.31.1-.62.22-.92.35a9.85,9.85,0,0,0-5.89,10.16V65.15a10,10,0,0,0,0,2.19v37.22A9.93,9.93,0,0,0,28,110.29c.16.29.32.58.5.85s.38.52.58.77.33.39.5.58l.19.2c.14.13.28.26.43.38l.27.24.15.12c.21.17.43.34.66.5l.15.1a9.42,9.42,0,0,0,1.58.81h.23a10,10,0,0,0,4.12.61h58.3a9.86,9.86,0,1,0,.22-19.71H46.52V76h29.4a9.86,9.86,0,1,0,.31-19.71H46.52V36.63h49.1a9.86,9.86,0,0,0,.31-19.71H37.47c-.24,0-.49,0-.73,0h-.23c-.26,0-.51,0-.77,0Z"/></g></svg>