<svg xmlns="http://www.w3.org/2000/svg" xmlns:xlink="http://www.w3.org/1999/xlink" viewBox="0 0 1000 1000"><defs><style>.cls-1,.cls-10,.cls-12{fill:none;}.cls-2,.cls-4,.cls-6,.cls-8,.cls-9{fill:#ccc;}.cls-11,.cls-3,.cls-7{fill:#999;}.cls-10,.cls-12,.cls-4,.cls-6,.cls-8,.cls-9{stroke:#999;}.cls-4{stroke-linecap:round;}.cls-4,.cls-8{stroke-linejoin:round;}.cls-10,.cls-4,.cls-6,.cls-8{stroke-width:10px;}.cls-5{clip-path:url(#clip-path);}.cls-10,.cls-12,.cls-6,.cls-9{stroke-miterlimit:10;}.cls-7{opacity:0.4;}.cls-9{stroke-width:8px;}.cls-11{opacity:0.2;}.cls-12{stroke-width:12px;}</style><clipPath id="clip-path"><circle class="cls-1" cx="500" cy="500" r="405"/></clipPath></defs><g id="图层_16" data-name="图层 16"><path class="cls-2" d="M500,899a397.73,397.73,0,1,1,155.31-31.35A396.59,396.59,0,0,1,500,899Z"/><path class="cls-3" d="M500,107a391.71,391.71,0,1,1-153,30.88A390.51,390.51,0,0,1,500,107m0-12C276.32,95,95,276.32,95,500S276.32,905,500,905,905,723.68,905,500,723.68,95,500,95Z"/><path class="cls-3" d="M500,107a391.71,391.71,0,1,1-153,30.88A390.51,390.51,0,0,1,500,107m0-12C276.32,95,95,276.32,95,500S276.32,905,500,905,905,723.68,905,500,723.68,95,500,95Z"/><path class="cls-4" d="M952.62,225.81c-8.71,11.88-30,29.05-51.35,33.73-20.41,4.46-41.11,4.09-61.82,3.39-7.91-.26-15.45,7.15-15.17,15.13.08,2.19.28,4.69,3.39,4.87,15.2.9,30.4,1.82,45.6,2.59,4.57.23,9.18-.22,13.75,0,6.77.35,13.31,1.78,18.69,6.26,1.17,1,2.54,3,2.29,4.17-1,4.66-1.68,9.71-4.06,13.66-10.26,17-25.56,27.59-44.59,33-17.57,5-35.47,5.06-53.48,3.88a13.2,13.2,0,0,0-4.84,1.11c-6.9,2.34-8.78,8.39-10.38,14.51-1,4,1.31,7,5.47,7.23,15.84.88,31.67,1.9,47.52,2.52,5.41.21,8.86,2.75,11.25,7.13a4.58,4.58,0,0,1,0,3.91c-4,6.36-8.16,12.7-12.61,18.79-6.8,9.33-15.85,16.39-25.2,22.86-7.25,5-16.08,4.25-24.5,4.52-6.92.23-13.89.22-20.72,1.2s-11.81,5.28-14.58,11.87c-.82,1.94-.68,3.5,1.18,4.41,3.29,1.61,6.6,3.82,10.08,4.25,7.72,1,15.59.69,23.34,1.41,15.58,1.46,18.06,5.66,11.28,20.55-2.18,4.79-6,8.82-8.52,13.47-6.75,12.27-17.49,18.6-30.8,21-9.63,1.73-19.35,2.9-29,4.41a12.78,12.78,0,0,0-10.65,13.22c.12,3.35,1.38,5.75,5.11,6.08,2.83.25,5.68.4,8.49.82,5.35.79,10.85,1.17,16,2.78,4.93,1.54,5.88,4.32,4.48,9.36a51.06,51.06,0,0,1-11.08,20.77c-13.2,14.74-30.09,21.19-49.43,22.26-7.69.42-14.19,8.2-12.36,15.67,1.1,4.47,3.39,8.73,5.65,12.8,3.41,6.16,7.33,12,10.91,18.1,1.27,2.16,1.06,4.3-.35,6.58-8.43,13.72-16.26,27.82-25.16,41.22-16.31,24.55-33.21,48.71-50,73-.92,1.34-2.75,2.22-4.33,2.88-4.73,2-8,0-10.27-4.18-.53-1-1.39-1.75-2-2.68Q573.6,695.63,537.36,641a10.73,10.73,0,0,1,.28-13.17c2.17-3,4.58-5.85,6.94-8.71a23.05,23.05,0,0,0,.63-28.46,7.3,7.3,0,0,0-6.17-3.21C510.35,586,489.57,572,475.88,547c-1.38-2.51-1-4.19,1-6.11,4-3.8,9-5,14.12-6,4.75-.88,9.52-1.66,14.22-2.73,1.07-.24,2.65-1.45,2.73-2.32.62-7-1.15-14.83-9.92-17.34a50.63,50.63,0,0,0-9.49-1.54c-6.17-.53-12.44-.33-18.51-1.36-4-.68-8.4-2.17-11.42-4.72a236.89,236.89,0,0,1-22.29-21.26c-4.07-4.46-6.8-10.19-9.89-15.48-1.75-3-.24-5,2.61-6.53,6.18-3.28,12.87-4,19.7-4.71s13.44-1.9,20.12-3.11c3-.54,4-2.44,3.29-5.67-1.83-8-6.95-12.61-15.77-13.16-5.06-.32-10.15.08-15.23-.05-4.8-.13-9.69-.05-14.38-.91-17.54-3.24-31-13.17-42.09-26.67a67.23,67.23,0,0,1-12.54-22.72c1.33-.78,2.46-1.51,3.64-2.14,8.56-4.53,17.93-5.41,27.35-6.05,8.4-.58,16.82-1,25.21-1.71,3.77-.32,5.72-2.69,5.32-5.67-1.39-10.16-8.09-17.42-18.25-18-8.85-.51-17.78.36-26.68.7-7.57.28-15.21.8-22.29-2.54-10.89-5.14-21.33-11.05-30.61-18.82-7.64-6.4-13.79-13.87-17.25-23.32-1.86-5.09-.39-8.48,4.7-10.34a17.18,17.18,0,0,1,5.48-.54,359.21,359.21,0,0,0,62.76-6.34c4.55-.89,4.84-1.33,4.05-5.83a18.25,18.25,0,0,0-.41-1.81c-2.33-8.61-6.22-12.26-14.89-13.23-5.78-.64-11.61-.86-17.43-1.05-12-.38-24-.3-36-1-11.54-.69-22.59-3.66-31.81-11.05-6.72-5.39-12.86-11.51-19.48-17a53.11,53.11,0,0,0-9.79-6.45s-37.25-19.3,14-20.17c5.19-.22,10.4,0,15.6-.15,23.4-.66,46.81-1.12,70.19-2.15,33.56-1.48,67.09-2.13,100.68-1,18.68.63,33.83,7.52,45,22.09,8,10.38,14.67,21.71,21.87,32.67,3.75,5.72,7.34,11.54,11,17.32l1.4-.16c2.46-7.36,5-14.67,7.33-22.07,4.09-13.24,7.81-26.6,12-39.79,3.88-12.12,12.75-19.53,24.42-23.67a88.77,88.77,0,0,1,45.37-4c16.23,2.8,32.53,5.39,47.61,12.55a62,62,0,0,1,21.55,16.33c-4.66,5.54-10,9.4-16.62,11.33-2.85.82-5.66,1.79-8.48,2.72-7.54,2.48-15.13,4.91-21.35,10.1-.89.75-1.85,2.58-1.53,3.45,3.55,9.5,7.05,19,11.19,28.27,1.87,4.18,5.14,7.73,8.29,12.31,2.33-4.56,4-8,5.82-11.37,9-17.24,18.5-34.18,32-48.5,14.24-15.08,31.79-22.82,52.22-24.36,7-.52,14.1-.58,21.15-.65,24.66-.26,49.31-.39,74-.65q39.27-.44,78.54-1S974.47,195.68,952.62,225.81Z"/><polygon class="cls-4" points="500 545.22 138.64 529.78 240.56 581.26 500 581.26 759.43 581.26 861.36 529.78 500 545.22"/><path class="cls-4" d="M708.68,530.64C672.27,533.65,594.17,535,500,535s-172.27-1.34-208.68-4.35c0,0-75.46,15.36-201.06-30.71,47.35,48.44,120.45,63.07,136,63.07H773.72c15.57,0,88.67-14.63,136-63.07C784.14,546,708.68,530.64,708.68,530.64Z"/><polygon class="cls-4" points="500 598.68 104.67 581.26 164.7 626.55 500 626.55 835.3 626.55 895.33 581.26 500 598.68"/><path class="cls-4" d="M685.33,580.23C645.81,582.85,602.21,584,500,584s-145.81-1.17-185.33-3.79c0,0-123.09,13.38-259.42-26.77C106.66,595.67,186,604.93,202.9,604.93H797.1c16.9,0,96.24-9.26,147.65-51.47C808.42,593.61,685.33,580.23,685.33,580.23Z"/><g class="cls-5"><rect class="cls-6" x="160.78" y="612.14" width="678.44" height="91.63"/><rect class="cls-6" x="319.09" y="586.4" width="21.62" height="101.92"/><rect class="cls-6" x="374.65" y="586.4" width="21.62" height="101.92"/><rect class="cls-6" x="441.57" y="586.4" width="21.62" height="101.92"/><rect class="cls-6" x="537.31" y="586.4" width="21.62" height="101.92"/><rect class="cls-7" x="478.5" y="627" width="43" height="56"/><rect class="cls-7" x="409" y="627" width="20" height="56"/><rect class="cls-7" x="351" y="627" width="14" height="56"/><rect class="cls-6" x="659.57" y="586.4" width="21.62" height="101.92" transform="translate(1340.76 1274.73) rotate(-180)"/><rect class="cls-6" x="604.01" y="586.4" width="21.62" height="101.92" transform="translate(1229.63 1274.73) rotate(-180)"/><rect class="cls-7" x="571.28" y="627" width="20" height="56" transform="translate(1162.55 1310) rotate(-180)"/><rect class="cls-7" x="635.28" y="627" width="14" height="56" transform="translate(1284.55 1310) rotate(-180)"/><rect class="cls-6" x="313.2" y="586.4" width="373.59" height="23.68"/><polygon class="cls-4" points="501.34 558.61 287.2 558.61 318.09 586.4 501.34 586.4 684.59 586.4 715.48 558.61 501.34 558.61"/><path class="cls-4" d="M706.21,505.48c-29.85,4.11-127.66,5.95-204.87,5.95s-175-1.84-204.87-5.95c0,0-26.77,46.24-57.65,37,9.26,8.24,31.91,16.16,38.09,16.16H725.77c6.18,0,28.83-7.92,38.09-16.16C733,551.72,706.21,505.48,706.21,505.48Z"/><polygon class="cls-8" points="501.34 553 267.2 553 318.09 586.4 501.34 586.4 684.59 586.4 735.48 553 501.34 553"/><rect class="cls-9" x="456.04" y="566.84" width="89.57" height="27.8"/><path class="cls-3" d="M473.81,586.17a2.55,2.55,0,0,1-.39-.28.87.87,0,0,0-.49-.52h0l-.48-.54h0c0-.1,0-.23-.11-.3-.5-.61-1.17-1.15-.73-2.09.15-.33-.14-.28-.32-.32-.42-.34-.22-.8-.21-1.22,0-.22,0-.51-.28-.54s-.38.26-.38.53,0,.28,0,.42h0a2,2,0,0,0-1.54,1.19h0c-.45.25-.48-.2-.66-.4h0c.25-.57-.18-1.27.34-1.79.22.1.46.22.48-.19a9.93,9.93,0,0,0,1.87-.87c.29,0,.6.1.86-.13h0l0-.06s0,0,0,.06c.44-.21,1.24-.18.66-1h0l0-.35h0l.21,0h0l.49,0c.37,0,.71,0,.64-.51s-.26-.81-.82-.52h0l-.3-.05c-.06-.2.06-.54-.24-.54s-.39.34-.5.59h0l-.49.36h0c-.67,0-.47.48-.49.85h0c-.08.1-.21.17-.28.09a1.82,1.82,0,0,0-1.77-.38,1,1,0,0,1-.66-.22c-.2-.38.24-.84-.16-1.19a1.38,1.38,0,0,1-.18-1,.91.91,0,0,0-.81-1.11h0c-.39-.46-.76-.23-1.08.06a.9.9,0,0,0-.05,1.35,1.22,1.22,0,0,1,.29,1c0,.3-.11.61.12.88a1.13,1.13,0,0,0,.2.71c.36.8.16,1.17-.7,1.22a2.78,2.78,0,0,0-1.73.36.57.57,0,0,1-.85-.27c.1-.13.29-.26.17-.43s-.3-.09-.47,0h0c-.24.37-.88.12-1,.65h0c.08.44-.26.94.19,1.33.25.07.52,0,.71.3.31.44.58.26.81-.11h0c.19-.17.36,0,.52.06a1,1,0,0,0,1.15-.09c1.26-.41,1.37-.34,1.4.89,0,.22.08.45.06.67-.06.55.21,1.16-.27,1.64h0c-.36,0-.59.24-.87.39-.51.27-.94.29-1.14-.38-.19-.43-.67-.51-1-.76s-.51-.07-.51.31h0l0,.64a.59.59,0,0,0-.34.51h0a2.17,2.17,0,0,0,.78,3,.53.53,0,0,0,.62-.1c.15-.17.19-.35-.05-.49h0a1.17,1.17,0,0,1,1.71-.88h0c-.19.81.74,1.06.84,1.71a.61.61,0,0,0,.17.53l.12,0,.06.07a.49.49,0,0,0,.23.06,1.55,1.55,0,0,0,1.22-2,8.45,8.45,0,0,1,0-1.67c0-.24,0-.44-.24-.57-.27-.31.06-.46.17-.68.4-.3.9-.52.84-1.15l.51-.38.49.36h0c0,1-.05,1.95,0,2.93a1.78,1.78,0,0,0,1.9,1.44,1.49,1.49,0,0,0,1.85-.15C474.26,586.78,474.42,586.49,473.81,586.17Zm-7.48,0a.59.59,0,0,0-.24-.23c-.47-.28-.24-.46,0-.65C466.46,585.47,466.8,585.7,466.33,586.12Zm2.16-8.35a.63.63,0,0,1-.41-.27A.87.87,0,0,0,468.49,577.77Z"/><path class="cls-3" d="M489.86,586.37,488,586h0a7.68,7.68,0,0,0-2.06-.61c-.76,0-.95-.23-.82-.91l.53.14h0a6,6,0,0,1,2.11-.31c.08,0,.18-.1.27-.16h0c.6-.41,0-.5-.19-.71-.19-.61-.55-.64-1-.31h0c-.11.17-.22.34-.34.5h-1.66a.37.37,0,0,1,.11-.36h0l.38-.29h0c.3,0,.27-.53.51-.48.83.16,1.15-.54,1.66-.9.19,0,.33-.07.35-.28s-.08-.37-.33-.38h0a4.51,4.51,0,0,0-1.42.12.34.34,0,0,1-.44-.14c-.1-.16-.13-.37.05-.45.57-.25.35-.74.36-1.15,0-1-.05-2,0-3s-.39-1.41-1.38-1.33c-.34.23-.37.65-.57,1h0c-.46,0-.95.12-1.32-.29-.26-.2-.38,0-.48.18a21.62,21.62,0,0,1-.19,3.86h0c-.13.21-.18.42.05.59s.16.52,0,.77a.4.4,0,0,0,.07.45c.48.37.87,0,1.29-.16.24-.08.41-.39.72-.24,0,.49-.45.6-.6.93a.39.39,0,0,0-.3-.06,1,1,0,0,1-.21.09,1.31,1.31,0,0,0-.55.13h-.27a5.43,5.43,0,0,1-.57,0l-.15,0c.39,0,.55-.22.45-.62-.22-.19-.45-.35-.72-.08l-.07.29-.29.17h0a1.5,1.5,0,0,1-1.26.51c-.27,0-.54.06-.56.37s-.24.71.31.79h0a4.06,4.06,0,0,0,2.24-.47h0a5,5,0,0,0,2.33-.53h0c0,.39,0,.79,0,1.18h0c-.12.47.39.86.17,1.35-.62.2-.72-.37-1-.69h0c-.4-.69-.63-.69-1,0h0c-.36.26-.79.13-1.18.18h0l-.68,0c-.25,0-.59,0-.58.32s.33.38.63.29c.11,0,.23,0,.34,0s.55-.11.66.17-.23.34-.37.5h0c-.21.09-.25.3-.34.48h0c-.66-.39-.87.43-1.35.51-.46-.27-.29.15-.34.31h0c-.35.28-.78.11-1.16.2-.19,0-.35.05-.33.26a.41.41,0,0,0,.45.39h1.75c.24,0,.44,0,.48-.32h0l.33-.36a1,1,0,0,0,.52-.32c.18,0,.39,0,.5-.19h0a2.92,2.92,0,0,0,.84-.84c.22-.22.31-.45.79-.29a3.81,3.81,0,0,0,1.75.47h0a6.14,6.14,0,0,0,3,1.14c1,0,2.23.26,3-.91A1.27,1.27,0,0,0,489.86,586.37Zm-6.57-9.14h0a.3.3,0,0,0-.21-.34c.47-.15,1,0,1.51-.27h0C484.54,577.55,484.54,577.55,483.29,577.23Zm.85-1.14Zm-.19,3.54h0c-.49.19-.71.09-.52-.47l.18-.55h0c.3-.26.68-.6,1-.2s-.05.75-.4,1A2.65,2.65,0,0,0,484,579.63Zm-3.19,5.29.1,0h.07S480.83,585,480.76,584.92Z"/><path class="cls-3" d="M523.21,576.59h0c-.48-.09-1.32.19-.86-.85-.19-.25,0-.59-.15-.84l0,0a.61.61,0,0,0-.25-.64,1.29,1.29,0,0,0-1.67-.85.64.64,0,0,0-.19.17c-.35.37-.22.6.5,1.17h0c-.09.56.28,1.1,0,1.66h0c.22.18.51.35.26.67s-.33.06-.45-.11c-.28-.13-.58.43-.81,0-.13-.24.14-.39.32-.52h0l-.08-1.37a3.65,3.65,0,0,1-1.1.55c-.49.07-.51.54-.23.91.15.21.56.37.17.63a.55.55,0,0,1-.85-.21c-.07-.15-.15-.41-.42-.28a.39.39,0,0,0-.15.52.92.92,0,0,1-.4,1.27h0l-.33.26c-.17.11-.52.11-.39.42a.42.42,0,0,0,.68.21c.41-.27.32.26.53.31l.31.64h0l-.16.14h0c-.3-.09-.62-.2-.77.21a.74.74,0,0,0,.06.72c.26.3.46,0,.7-.12a4.72,4.72,0,0,1,1-.25c.27-.05.57,0,.71-.33h0l.13,0,.1-.11a1,1,0,0,0,.38,0l.11,0c.25.09.17.27.13.44s-.13.15-.18.23c0,.23,0,.48-.17.66h0c-.36,0-.34.26-.34.51h0a1.61,1.61,0,0,1-1.27.7c-.24,0-.57,0-.57.37s.32.26.52.27c.5,0,.51.34.46.71s-.4.38-.5.65a4.55,4.55,0,0,0-1.7.67c-.22.08-.57.07-.54.4s.37.27.61.28a1.87,1.87,0,0,0,.25,0h0a1,1,0,0,1,1.27-.43c.55.14.23.59.28.9.11.61.35.94,1,.58.09-.16.29-.28.16-.51s.19-.58.34-.84c.2-.1.14-.23,0-.36h0a.73.73,0,0,1,.79-.46l.2.31.19.54h0c.28.46,0,.8-.24,1.14h0c-.28.3-.2.66-.19,1s-.14.65.19.74.39-.33.57-.53c.47-.13.37-.41.18-.72h0a.28.28,0,0,0,0-.13h0a.71.71,0,0,0,.63-.88,11.49,11.49,0,0,1,0-1.31c.23-.17.6-.16.66-.54h0c.44-.24.7-.48,0-.73a2.48,2.48,0,0,1-.49-.3c-.18-.27-.3-.54,0-.81h0c.59,0,.31-.59.67-.8-.55-.12-1-.12-.91-.86.08-.44-.37-.37-.66-.4h0a1,1,0,0,0-.33.89c0,.28.11.72-.33.7s-.32-.44-.31-.75,0-.44,0-.66c.31.1.43-.08.5-.33a.16.16,0,0,0,.16,0c0-.49.36-.72.73-.92a.75.75,0,0,0,.39-.83c-.09-.35-.47-.32-.78-.19h0c-.1-.1-.08-.18,0-.26h0c.28-.21.07-.43,0-.65h0c.58-.45,1.5.09,2-.71.08-.14.38-.17.32-.41S523.45,576.58,523.21,576.59Zm-1.89,9.25h0Zm-3.89-6.21Z"/><path class="cls-3" d="M515.91,585h0c.22-.1.17-.31.19-.49.46-.45.21-1,.14-1.48a.32.32,0,0,0-.15-.21l-.31-.36h0l-.06-.32a.21.21,0,0,0,.07-.13l.18-.2a.24.24,0,0,0-.06-.34c-.71-.19-.86-.11-.73.53a1.16,1.16,0,0,0,0,.18c-.32.38-.06.76,0,1.13h0c0,.32,0,.66-.29.88a.07.07,0,0,0-.06,0,2.07,2.07,0,0,0-.83,1.38.63.63,0,0,1-.62.58c-.36,0-.37-.25-.38-.51h0V585c0-.4,0-.8,0-1.2h0a1.17,1.17,0,0,1,.3-.89.56.56,0,0,0,0-.8c-.12-.25-.27-.48-.38-.74-.32-.7-.77-.69-1.31-.26h0c-.55.1-.72.69-1.16.91-.2.1-.61-.25-.71.15s.41.47.6.74.65,0,1-.06.76-.46.72.18a3.13,3.13,0,0,0,.33,1.83.92.92,0,0,1-.13,1c-.31,0-.4.18-.39.51a6.59,6.59,0,0,0,.25,1.87h0a.6.6,0,0,0,.33.51h0c.29.54.58.5.88,0h0c.27-.12.62-.13.63-.55h0c.5-.45.52-1.23,1.1-1.63,0,0,0-.25-.08-.38h0l.2-.48h0c.37-.09.49-.42.65-.71Zm-.07-1.12.11,0v.09Zm-3,1.19h0v0Zm.24-1.25L513,584Z"/><path class="cls-3" d="M512.31,579.22c.22-.46.84-.56,1-1.1h0l.12,0a.34.34,0,0,0,0,.14c.24.14.38,0,.49-.2l.68-.64h0c.24.37.55.28.58-.06s.2-.84-.22-1.15c-.6-.31-1.24-.09-1.87-.13h0c-.25-.05-.6-.1-.59.22s.34.49.7.43c0,.28-.1.55-.16.83h0l-.12.17c-.3.29-.61.57-.9.86a.44.44,0,0,0,0,.6A.24.24,0,0,0,512.31,579.22Z"/><path class="cls-3" d="M539.8,579.1h0a1.08,1.08,0,0,0-1-.68h0l-.12,0h0c-.15-.19-.24-.46-.54-.5h0a.74.74,0,0,0-.91,0,10.93,10.93,0,0,0-1.14.92h0c-.25.07-.75-.32-.66.36h0l-1.87.82c-.12-.15-.21,0-.32,0h0a.49.49,0,0,0-.53.32h0c-.28.17-.65.18-.88.44l0-.6h0l0-.17h0a18.68,18.68,0,0,0,2.54-1.69,1.51,1.51,0,0,0,1.17-.69h0c.37-.16.61-.68,1.08-.51s.64-.15.8-.48h0c.59,0,.39-.61.66-.87a.49.49,0,0,0,.33-.63c-.06-.19-.22-.05-.33,0h0l-.34-.32-.18-.19h0a2.09,2.09,0,0,0-1.77-.12c-.74.17-.08.85-.57,1h0c-.18-.46-.37-.32-.66-.06-.48.42-.9.27-1.08-.35,0-.15-.11-.25-.25-.29a3.73,3.73,0,0,0-.4-.63.75.75,0,0,0-.93-.07c-.31.15-.15.56,0,.65.48.39.53,1,.79,1.45h0c0,.12.09.39,0,.35-.63-.33-1.1.48-1.72.23-.12,0-.48-.12-.48.27h0c-.19.12-.33.44-.62.23s-.07-.61-.07-.91h0l.2-.14h0c.65-.21.09-.9.48-1.22.17,0,.3-.11.24-.31a.21.21,0,0,0-.18-.11c-.27,0-.2.25-.21.43h0c-.77.07-.57.73-.72,1.17-.26,0-.49,0-.47.36h0a.66.66,0,0,0,0,.14c-.18.54-.74.9-.7,1.53h0c-.66.68-.66,1.09,0,1.53h0c.33.67.95.67,1.52,0h0l.67-.68c.25,0,.44-.1.47-.38h0c.17-.21.32-.53.65-.32s.19.48.09.75-.13.3-.2.45h0c-.41.08-.34.4-.34.68h0c-.35,0-.64.09-.67.51h0c-.23.17-.56.19-.67.51h0a.57.57,0,0,0-.34.32h0a2.62,2.62,0,0,0-1.56,2.87,1.12,1.12,0,0,0,.95.91c.5,0,.78-.5.68-1-.08-.37,0-.79.26-.9.75-.31,1-1.12,1.72-1.47a3.41,3.41,0,0,1,1.79-1,.5.5,0,0,0,.45-.33,4,4,0,0,0,2.11-.69h0c.17.14.41.21.38.49h0c-.33.64-1,.76-1.58.94-.92.3-1.76,1-2.84.73h0c-.21.3,0,.71-.3,1-.48.44-.38.87,0,1.38,1,1.19.93,1.22-.06,2h0c-.31,0-.7-.23-.83.27-.07.26-.15.64.16.75s.65-.2.86-.5h0l.95-.17c.08.27.19.56-.07.78a9.89,9.89,0,0,1-2,.91c-.2.1-.56,0-.54.35s.31.32.58.31h0A3.87,3.87,0,0,0,532,589c.32-.1.78.33,1-.26h0c.08-.08.17-.21.25-.21a15.19,15.19,0,0,1,2.34.05c.42.06.49-.08.56-.38.16-.64-.14-1-.92-.85-.38.06-.66.07-.87-.28h0c-.23.07-.28.31-.42.47s-.36.1-.43-.15a.66.66,0,0,1,.48-.68h0c.07-.62.53-.34.85-.37s.41-.26.52-.49h0c.14-.15.47-.29.16-.51a.65.65,0,0,0-.91.09c-.41.5-.58,0-.78-.18s-.12-.48.13-.7.87-.25,1.12-.68h0c.18-.16.47-.2.5-.51h0c.33-.33.89-.6.43-1.19-.14-.18-.56-.24-.36-.52s.6-.21.91,0a2,2,0,0,0,.89.38c1.12.19,1.69-.55,2.32-1.23h0A1.79,1.79,0,0,0,539.8,579.1ZM534,583.31c-.09.11-.15.24-.23.35s-.13.74-.52.63-.38-.55-.29-1,0-.81.6-.75c.22,0,.46-.11.6.15S534.1,583.13,534,583.31Zm1,.35.14.21A.91.91,0,0,1,535,583.66Z"/><path class="cls-3" d="M505.66,579.19a12.89,12.89,0,0,0-2.34-.87,8.27,8.27,0,0,0-1.73-.08h0c-.19-.21-.59-.12-.7-.47h0a2.76,2.76,0,0,0-1.09-1.66.54.54,0,0,0-.52.2c-.18.25.07.33.22.43a.3.3,0,0,1,0,.19,1.62,1.62,0,0,0,0-.19c-.44.5-.65-.18-1-.19-.08-.25-.06-.67-.52-.31h0c-.45.58-.36,1.17.28,1.45s.67.72.75,1.25c0,.27-.2.62.18.82h0c.19.13.38.25.31.53h0c-.19,0-.42-.09-.57,0-.41.21-1-.31-1.3.34s-1.2.11-1.7.5l.05,0h0l0,0c-.36,0-.73.35-1.09,0-.17-.17-.35-.31-.57-.08a.64.64,0,0,0-.11.7,1.93,1.93,0,0,0,2,.63h0l.48-.2c.22-.51.78.06,1-.32h0l.39-.13c.31-.1.69-.43.92-.09s-.36.44-.49.71a.58.58,0,0,1-.28.83c-.16.07-.42.16-.24.41s0,.46-.24.64-.44.19-.25.49c0,.59-.68.7-.85,1.18l-1.19,1a.05.05,0,0,1,0,0l0,0c-.29,0-.71-.16-.71.26s.41.33.71.23l0,0,0,0a.82.82,0,0,0,1-.51h0a4,4,0,0,0,1.85-1.35h0c.23-.27.18-.77.68-.82h0a5.93,5.93,0,0,1,3.38,1.35h0c.48.45,1.23,0,1.69.51h0a.3.3,0,0,0,.31.18h0a.59.59,0,0,0,.92-.23,1.56,1.56,0,0,0,0-1.66h0a6.17,6.17,0,0,1-1.7-.33h0a.76.76,0,0,0,0-.15,20.52,20.52,0,0,0-3-.54.72.72,0,0,0-.54.21c-.69,0-.57-.52-.35-.81a6.69,6.69,0,0,1,5.54-2.89c.32,0,.6.1.77-.29A.64.64,0,0,0,505.66,579.19Zm-3.94.74c-.48.06-.57-.34-.62-.75a.33.33,0,0,1,.42-.39,1.11,1.11,0,0,1,.84.8C502.44,579.87,502.07,579.92,501.72,579.93Z"/><path class="cls-3" d="M295.45,473.36c-4.24,0-8.23,1-4.11,4.12,4.8,3.6,7.2,6.18,5.14,7.21-4.69,2.35-5.14,6.18-5.14,9.26v9.27c0,3.09,1,4.12,4.11,4.12h11.64c1.75,0,3.45.31,3.45-3.45V497c0-2.06-1.7-4.11-3.76-5.14s-1-3.09,1-4.12,3.65-6.64,1-9.27A19.58,19.58,0,0,0,295.45,473.36Z"/><path class="cls-3" d="M706.2,473.36c4.24,0,8.23,1,4.11,4.12-4.8,3.6-7.2,6.18-5.14,7.21,4.69,2.35,5.14,6.18,5.14,9.26v9.27c0,3.09-1,4.12-4.11,4.12H694.56c-1.75,0-3.45.31-3.45-3.45V497c0-2.06,1.7-4.11,3.76-5.14s1-3.09-1-4.12-3.65-6.64-1-9.27A19.58,19.58,0,0,1,706.2,473.36Z"/><path class="cls-4" d="M706.21,499.48c-29.85,4.11-127.66,5.95-204.87,5.95s-175-1.84-204.87-5.95c0,0-46.77,46.24-77.65,37,9.26,8.24,31.91,16.16,38.09,16.16H745.77c6.18,0,28.83-7.92,38.09-16.16C753,545.72,706.21,499.48,706.21,499.48Z"/><path class="cls-6" d="M155.59,628.61h116a10.46,10.46,0,0,1,10.46,10.46v64.7a0,0,0,0,1,0,0H145.13a0,0,0,0,1,0,0v-64.7A10.46,10.46,0,0,1,155.59,628.61Z"/><path class="cls-6" d="M729,628.61H852.24a10.46,10.46,0,0,1,10.46,10.46v64.7a0,0,0,0,1,0,0H718.56a0,0,0,0,1,0,0v-64.7A10.46,10.46,0,0,1,729,628.61Z"/><path class="cls-6" d="M1,651H161.08a8,8,0,0,1,3,.58l32.52,13a8.21,8.21,0,0,1,5.15,7.62v31.35H1Z"/><line class="cls-10" x1="162.63" y1="651.26" x2="162.63" y2="703.77"/><path class="cls-6" d="M978,651H817.92a8,8,0,0,0-3,.58l-32.52,13a8.21,8.21,0,0,0-5.15,7.62v31.35H978Z"/><line class="cls-10" x1="816.37" y1="651.26" x2="816.37" y2="703.77"/><line class="cls-2" x1="816.37" y1="651.26" x2="816.37" y2="703.77"/><rect class="cls-6" x="65.86" y="703.77" width="869.14" height="54.56"/><rect class="cls-6" x="65.86" y="757.3" width="869.14" height="167.7"/><line class="cls-6" x1="239.52" y1="703.77" x2="168.48" y2="758.33"/><line class="cls-6" x1="760.48" y1="703.77" x2="831.52" y2="758.33"/><line class="cls-6" x1="362.09" y1="703.77" x2="303.41" y2="758.33"/><line class="cls-6" x1="630.8" y1="703.77" x2="696.59" y2="758.33"/><rect class="cls-6" x="249" y="688.32" width="502" height="15.44" rx="5.24"/><path class="cls-6" d="M255.34,660.53h93.56a5.23,5.23,0,0,1,5.23,5.23v22.57a0,0,0,0,1,0,0H249a0,0,0,0,1,0,0V666.86A6.34,6.34,0,0,1,255.34,660.53Z"/><path class="cls-6" d="M651.73,660.53h93.72a5.55,5.55,0,0,1,5.55,5.55v22.24a0,0,0,0,1,0,0H646.5a0,0,0,0,1,0,0V665.76A5.23,5.23,0,0,1,651.73,660.53Z"/><path class="cls-4" d="M646.59,688.32l84.42,69V729.5l-76.62-62.6a4.78,4.78,0,0,0-7.8,3.7Z"/><path class="cls-4" d="M354.12,688.32l-84.42,69V729.5l76.62-62.6a4.78,4.78,0,0,1,7.8,3.7Z"/><rect class="cls-11" x="193" y="786" width="602" height="29"/><rect class="cls-11" x="193" y="841" width="602" height="29"/><line class="cls-6" x1="374.18" y1="758.77" x2="250.82" y2="882.12"/><line class="cls-6" x1="625.82" y1="758.77" x2="749.18" y2="882.12"/></g><path class="cls-12" d="M879.13,624.68C826.78,784,676.82,899,500,899c-180.44,0-332.9-119.77-382.22-284.15"/></g></svg>